<svg width="2024" height="375" viewBox="0 0 2024 375" fill="none" xmlns="http://www.w3.org/2000/svg">
<path fill-rule="evenodd" clip-rule="evenodd" d="M112.779 361.574L112.728 361.553C90.039 352.271 70.2109 339.351 53.3013 322.786L53.2792 322.764L53.2574 322.743C36.3441 305.829 23.2394 285.987 13.9467 263.272L13.9261 263.221L13.9064 263.171C4.94241 240.071 0.5 214.825 0.5 187.5C0.5 160.766 5.30198 135.961 14.9765 113.157C24.6046 90.462 37.8766 70.7934 54.8004 54.2147C72.0471 37.3129 92.2178 24.2195 115.257 14.9349L115.272 14.9291L115.286 14.9235C138.72 5.61861 164.146 0.999985 191.5 0.999985C208.694 0.999985 225.554 3.23605 242.069 7.70863C258.608 12.1881 273.974 18.9132 288.142 27.8877C302.637 36.5257 315.124 46.9249 325.556 59.0952L328.935 63.0381L269.195 131.394L264.66 126.643C257.948 119.612 250.785 113.568 243.172 108.492L243.051 108.412L242.934 108.325C235.807 103.057 227.894 99.0182 219.164 96.2122C210.474 93.4189 201.098 92 191 92C178.438 92 166.558 94.351 155.308 99.0385L155.268 99.0549L155.228 99.0709C144.326 103.432 134.676 109.81 126.243 118.243C118.218 126.267 111.813 136.215 107.081 148.203C102.396 160.071 100 173.475 100 188.5C100 203.163 102.387 216.395 107.071 228.271C111.782 239.884 118.342 249.857 126.743 258.257C135.087 266.602 145.16 272.977 157.053 277.362C169.315 281.76 182.943 284 198 284C208.096 284 217.661 282.581 226.722 279.77C235.92 276.915 244.268 273.128 251.793 268.429C259.738 263.341 266.681 257.65 272.65 251.367L277.961 245.777L325.487 321.123L322.476 324.496C313.56 334.482 301.775 343.222 287.309 350.802C273.169 358.386 257.381 364.379 239.982 368.814L239.941 368.824L239.9 368.834C222.779 372.943 205.476 375 188 375C160.998 375 135.92 370.554 112.829 361.594L112.779 361.574ZM284.5 345.5C298.5 338.167 309.667 329.833 318 320.5L277 255.5C275.596 256.978 274.143 258.423 272.641 259.835C267.366 264.794 261.486 269.349 255 273.5C247 278.5 238.167 282.5 228.5 285.5C218.833 288.5 208.667 290 198 290C182.333 290 168 287.667 155 283C142.333 278.333 131.5 271.5 122.5 262.5C113.5 253.5 106.5 242.833 101.5 230.5C96.5 217.833 94 203.833 94 188.5C94 172.833 96.5 158.667 101.5 146C106.5 133.333 113.333 122.667 122 114C131 105 141.333 98.1667 153 93.5C165 88.5 177.667 86 191 86C201.667 86 211.667 87.5 221 90.5C230.333 93.5 238.833 97.8333 246.5 103.5C252.906 107.771 258.992 112.683 264.757 118.237C266.191 119.618 267.606 121.039 269 122.5L321 63C311 51.3333 299 41.3333 285 33C271.333 24.3333 256.5 17.8333 240.5 13.5C224.5 9.16666 208.167 6.99998 191.5 6.99998C164.833 6.99998 140.167 11.5 117.5 20.5C95.1667 29.5 75.6667 42.1667 59 58.5C42.6667 74.5 29.8333 93.5 20.5 115.5C11.1667 137.5 6.5 161.5 6.5 187.5C6.5 214.167 10.8333 238.667 19.5 261C28.5 283 41.1667 302.167 57.5 318.5C73.8333 334.5 93 347 115 356C137.333 364.667 161.667 369 188 369C205 369 221.833 367 238.5 363C255.5 358.667 270.833 352.833 284.5 345.5ZM540.275 275.998L540.304 275.985C551.226 271.305 560.523 264.785 568.265 256.424L568.271 256.417C576.391 247.673 582.654 237.511 587.056 225.877C591.439 214.294 593.668 201.522 593.668 187.5C593.668 173.478 591.439 160.706 587.056 149.123C582.661 137.507 576.418 127.545 568.346 119.162L568.268 119.08L568.192 118.996C560.452 110.327 551.177 103.674 540.304 99.0149L540.275 99.0023L540.246 98.9895C529.751 94.3594 518.087 92 505.168 92C492.262 92 480.417 94.3547 469.561 99.0023C459.008 103.663 449.684 110.339 441.565 119.083L441.528 119.123L441.49 119.162C433.433 127.529 427.199 137.469 422.805 149.057C418.737 160.66 416.668 173.456 416.668 187.5C416.668 201.533 418.734 214.507 422.814 226.466C427.207 238.044 433.438 247.977 441.49 256.338C449.613 264.774 458.959 271.316 469.561 275.998C480.417 280.645 492.262 283 505.168 283C518.087 283 529.751 280.641 540.246 276.01L540.275 275.998ZM417.168 228.5C412.835 215.833 410.668 202.167 410.668 187.5C410.668 172.833 412.835 159.333 417.168 147C421.835 134.667 428.501 124 437.168 115C445.835 105.667 455.835 98.5 467.168 93.5C478.835 88.5 491.501 86 505.168 86C518.835 86 531.335 88.5 542.668 93.5C554.335 98.5 564.335 105.667 572.668 115C581.335 124 588.001 134.667 592.668 147C597.335 159.333 599.668 172.833 599.668 187.5C599.668 202.167 597.335 215.667 592.668 228C588.001 240.333 581.335 251.167 572.668 260.5C564.335 269.5 554.335 276.5 542.668 281.5C531.335 286.5 518.835 289 505.168 289C491.501 289 478.835 286.5 467.168 281.5C455.835 276.5 445.835 269.5 437.168 260.5C428.501 251.5 421.835 240.833 417.168 228.5ZM505.668 375C478.317 375 453.2 370.382 430.396 361.053C407.681 351.761 387.839 338.656 370.925 321.743C354.012 304.829 340.907 284.987 331.615 262.272C322.289 239.477 317.668 214.528 317.668 187.5C317.668 160.472 322.289 135.523 331.615 112.728C340.907 90.0127 354.012 70.1706 370.925 53.2573C387.839 36.3441 407.681 23.2394 430.396 13.9467C453.191 4.62147 478.14 0 505.168 0C532.196 0 557.145 4.62147 579.94 13.9467C602.655 23.2394 622.497 36.3441 639.411 53.2574C656.331 70.1778 669.276 90.0327 678.236 112.765C687.551 135.55 692.168 160.486 692.168 187.5C692.168 214.198 687.545 239.125 678.242 262.22C669.281 284.959 656.335 304.818 639.411 321.743C622.497 338.656 602.655 351.761 579.94 361.053C557.154 370.375 532.374 375 505.668 375ZM672.668 260C681.668 237.667 686.168 213.5 686.168 187.5C686.168 161.167 681.668 137 672.668 115C664.001 93 651.501 73.8333 635.168 57.5C618.835 41.1666 599.668 28.5 577.668 19.5C555.668 10.5 531.501 6 505.168 6C478.835 6 454.668 10.5 432.668 19.5C410.668 28.5 391.501 41.1666 375.168 57.5C358.835 73.8333 346.168 93 337.168 115C328.168 137 323.668 161.167 323.668 187.5C323.668 213.833 328.168 238 337.168 260C346.168 282 358.835 301.167 375.168 317.5C391.501 333.833 410.668 346.5 432.668 355.5C454.668 364.5 479.001 369 505.668 369C531.668 369 555.668 364.5 577.668 355.5C599.668 346.5 618.835 333.833 635.168 317.5C651.501 301.167 664.001 282 672.668 260ZM715.93 370V7.99998H868.43C894.767 7.99998 919.032 12.4466 941.151 21.4261C963.213 30.0501 982.253 42.4986 998.195 58.7795C1014.46 75.0475 1026.9 94.2481 1035.52 116.317C1044.15 138.425 1048.43 162.676 1048.43 189C1048.43 215.325 1044.15 239.731 1035.53 262.154L1035.52 262.168L1035.52 262.183C1026.89 284.262 1014.45 303.47 998.172 319.743C982.238 335.677 963.217 348.109 941.188 357.059L941.15 357.074L941.113 357.089C919.005 365.725 894.754 370 868.43 370H715.93ZM938.93 27C917.596 18.3333 894.096 14 868.43 14H721.93V364H868.43C894.096 364 917.596 359.833 938.93 351.5C960.263 342.833 978.596 330.833 993.93 315.5C1009.6 299.833 1021.6 281.333 1029.93 260C1038.26 238.333 1042.43 214.667 1042.43 189C1042.43 163.333 1038.26 139.833 1029.93 118.5C1021.6 97.1667 1009.6 78.6667 993.93 63C978.596 47.3333 960.263 35.3333 938.93 27ZM806.93 289H865.93C879.93 289 892.43 286.667 903.43 282C914.43 277 923.763 270.167 931.43 261.5C939.43 252.833 945.596 242.333 949.93 230C954.263 217.667 956.43 204 956.43 189C956.43 174 954.263 160.333 949.93 148C945.596 135.667 939.43 125.167 931.43 116.5C923.763 107.833 914.43 101.167 903.43 96.5C892.43 91.5 879.93 89 865.93 89H806.93V289ZM812.93 95V283H865.93C879.23 283 890.89 280.79 901.017 276.506C911.253 271.842 919.868 265.514 926.936 257.525L926.978 257.477L927.021 257.43C934.409 249.427 940.177 239.657 944.269 228.011C948.347 216.403 950.43 203.421 950.43 189C950.43 174.579 948.347 161.597 944.269 149.989C940.177 138.343 934.409 128.573 927.021 120.57L926.978 120.523L926.936 120.475C919.881 112.501 911.291 106.353 901.086 102.023L901.016 101.994L900.947 101.962C890.841 97.3686 879.208 95 865.93 95H812.93ZM1057.84 370V286.5H1116.84V91.5H1057.84V7.99998H1273.34V91.5H1213.84V286.5H1273.34V370H1057.84ZM1207.84 292.5V85.5H1267.34V14H1063.84V85.5H1122.84V292.5H1063.84V364H1267.34V292.5H1207.84ZM1312.18 370V7.99998H1397.22L1549.71 215.758C1549.21 210.836 1548.71 205.956 1548.21 201.117L1548.2 201.015L1548.19 200.913C1547.53 191.241 1546.86 181.404 1546.19 171.399L1546.19 171.3L1546.18 171.2C1545.85 161.189 1545.52 150.346 1545.18 138.671L1545.18 138.586V7.99998H1639.68V370H1553.66L1402.48 166.32C1402.94 170.94 1403.34 175.309 1403.65 179.425C1404.66 188.15 1405.33 196.083 1405.67 203.215C1406.01 210.259 1406.18 217.304 1406.18 224.349C1406.51 231.099 1406.68 238.652 1406.68 247V370H1312.18ZM1400.18 224.5C1400.18 217.5 1400.01 210.5 1399.68 203.5C1399.35 196.5 1398.68 188.667 1397.68 180C1397.14 173.026 1396.39 165.297 1395.42 156.812C1395.19 154.753 1394.94 152.649 1394.68 150.5C1394.53 148.752 1394.36 146.948 1394.19 145.089L1556.68 364H1633.68V14H1551.18V138.5C1551.51 150.167 1551.85 161 1552.18 171C1552.85 181 1553.51 190.833 1554.18 200.5C1555.02 208.644 1555.86 216.906 1556.71 225.287C1556.86 226.854 1557.02 228.425 1557.18 230C1557.41 232.34 1557.67 234.707 1557.94 237.102L1394.18 14H1318.18V364H1400.68V247C1400.68 238.667 1400.51 231.167 1400.18 224.5ZM1676.41 262.171C1667.45 239.088 1663 214.179 1663 187.5C1663 160.796 1667.62 136.17 1676.96 113.698L1676.97 113.677L1676.98 113.657C1686.62 90.9205 1700.25 71.0765 1717.84 54.1734C1735.44 37.2687 1756.12 24.1855 1779.81 14.9125L1779.83 14.9072L1779.84 14.902C1803.92 5.61259 1830 0.999985 1858 0.999985C1877.85 0.999985 1896.59 3.56671 1914.18 8.73959C1931.98 13.8767 1948.15 20.9199 1962.66 29.8984C1977.13 38.8582 1989.45 49.2529 1999.57 61.1063L2003.06 65.2052L1943.71 128.016L1939.34 123.828C1931.31 116.115 1923.01 109.737 1914.44 104.662L1914.4 104.636L1914.36 104.61C1906.14 99.5568 1897.29 95.6011 1887.78 92.747L1887.69 92.7208L1887.6 92.6921C1878.26 89.5775 1868.24 88 1857.5 88C1843.59 88 1830.92 90.5234 1819.41 95.4944C1808.14 100.506 1798.12 107.549 1789.32 116.665C1780.92 125.378 1774.33 135.847 1769.6 148.154L1769.59 148.178L1769.58 148.203C1764.88 160.1 1762.5 173.178 1762.5 187.5C1762.5 201.772 1765.03 214.993 1770.05 227.223C1775.1 239.535 1782.01 250.206 1790.78 259.293C1799.54 268.046 1809.88 275.113 1821.86 280.484C1834.08 285.485 1847.11 288 1861 288C1870.68 288 1879.63 286.441 1887.92 283.374L1887.95 283.361L1887.98 283.35C1896.72 280.228 1904.07 276.068 1910.11 270.928C1916.18 265.769 1921.02 259.726 1924.66 252.774C1926.71 248.659 1928.17 244.406 1929.04 240H1844.5V161.5H2020.01L2020.9 166.427C2021.64 170.457 2022.15 175.747 2022.49 182.185C2022.83 188.559 2023 194.775 2023 200.834C2023.33 206.777 2023.5 211.356 2023.5 214.5C2023.5 237.91 2019.19 259.566 2010.5 279.388C2002.18 298.801 1990.37 315.652 1975.09 329.89C1959.82 344.117 1941.82 355.179 1921.15 363.102C1900.4 371.055 1878 375 1854 375C1825.35 375 1799.25 370.395 1775.79 361.077C1752.4 351.792 1732.2 338.686 1715.26 321.743C1698.33 304.813 1685.38 284.946 1676.42 262.199L1676.41 262.171ZM2005 277C2013.33 258 2017.5 237.167 2017.5 214.5C2017.5 211.5 2017.33 207 2017 201C2017 195 2016.83 188.833 2016.5 182.5C2016.17 176.167 2015.67 171.167 2015 167.5H1850.5V234H1935.87C1935.73 236.026 1935.49 238.026 1935.14 240C1934.2 245.36 1932.49 250.527 1930 255.5C1926 263.167 1920.67 269.833 1914 275.5C1907.33 281.167 1899.33 285.667 1890 289C1881 292.333 1871.33 294 1861 294C1846.33 294 1832.5 291.333 1819.5 286C1806.83 280.333 1795.83 272.833 1786.5 263.5C1777.17 253.833 1769.83 242.5 1764.5 229.5C1759.17 216.5 1756.5 202.5 1756.5 187.5C1756.5 172.5 1759 158.667 1764 146C1769 133 1776 121.833 1785 112.5C1794.33 102.833 1805 95.3333 1817 90C1829.33 84.6667 1842.83 82 1857.5 82C1868.83 82 1879.5 83.6667 1889.5 87C1899.5 90 1908.83 94.1667 1917.5 99.5C1925.82 104.428 1933.85 110.494 1941.59 117.698C1942.23 118.291 1942.87 118.892 1943.5 119.5L1995 65C1985.33 53.6667 1973.5 43.6667 1959.5 35C1945.5 26.3333 1929.83 19.5 1912.5 14.5C1895.5 9.49998 1877.33 6.99998 1858 6.99998C1830.67 6.99998 1805.33 11.5 1782 20.5C1759 29.5 1739 42.1667 1722 58.5C1705 74.8333 1691.83 94 1682.5 116C1673.5 137.667 1669 161.5 1669 187.5C1669 213.5 1673.33 237.667 1682 260C1690.67 282 1703.17 301.167 1719.5 317.5C1735.83 333.833 1755.33 346.5 1778 355.5C1800.67 364.5 1826 369 1854 369C1877.33 369 1899 365.167 1919 357.5C1939 349.833 1956.33 339.167 1971 325.5C1985.67 311.833 1997 295.667 2005 277Z" fill="url(#paint0_linear_1372_32)" fill-opacity="0.21"/>
<defs>
<linearGradient id="paint0_linear_1372_32" x1="1012" y1="1.02969e-07" x2="1007.35" y2="387.149" gradientUnits="userSpaceOnUse">
<stop stop-color="white"/>
<stop offset="1" stop-color="white" stop-opacity="0"/>
</linearGradient>
</defs>
</svg>
