<svg width="1909" height="410" viewBox="0 0 1909 410" fill="none" xmlns="http://www.w3.org/2000/svg">
<path fill-rule="evenodd" clip-rule="evenodd" d="M99.2611 319.659L99.2443 319.652C79.2146 311.458 61.7441 300.068 46.852 285.48L46.8446 285.472L46.8374 285.465C31.944 270.572 20.398 253.097 12.2005 233.058L12.1936 233.041L12.187 233.024C4.28792 212.669 0.351562 190.37 0.351562 166.151C0.351562 142.506 4.59667 120.638 13.1104 100.57C21.6086 80.5381 33.3049 63.2152 48.2017 48.6224C63.3951 33.7329 81.1686 22.1906 101.504 13.9957L101.513 13.9919C122.169 5.79031 144.623 1.70078 168.852 1.70078C184.027 1.70078 198.903 3.6739 213.474 7.62032C228.054 11.569 241.582 17.4941 254.049 25.3967C266.814 32.9983 277.776 42.1312 286.92 52.7992L288.047 54.1135L238.667 110.616L237.155 109.032C230.951 102.532 224.313 96.9289 217.242 92.2149L217.202 92.188L217.163 92.1591C210.443 87.1921 202.988 83.3902 194.79 80.7548C186.604 78.1237 177.812 76.8008 168.402 76.8008C156.659 76.8008 145.521 79.0011 134.971 83.3969L134.958 83.4024L134.944 83.4077C124.699 87.5058 115.627 93.504 107.716 101.415C100.13 109.001 94.1225 118.361 89.7119 129.535C85.317 140.669 83.1016 153.165 83.1016 167.051C83.1016 180.627 85.3138 192.971 89.7082 204.107C94.1121 214.967 100.266 224.336 108.166 232.237C116.047 240.118 125.543 246.115 136.684 250.221C148.139 254.332 160.804 256.401 174.702 256.401C184.111 256.401 193.061 255.078 201.559 252.441C210.102 249.789 217.89 246.261 224.932 241.861C232.303 237.143 238.773 231.846 244.352 225.973L246.122 224.11L285.197 286.059L284.193 287.183C276.5 295.8 266.244 303.435 253.489 310.117C241.031 316.801 227.079 322.105 211.646 326.039L211.632 326.042L211.618 326.046C196.467 329.682 181.16 331.501 165.702 331.501C141.779 331.501 119.631 327.563 99.278 319.665L99.2611 319.659ZM252.552 308.351C265.152 301.751 275.202 294.251 282.702 285.851L245.802 227.351C245.33 227.847 244.852 228.339 244.368 228.828C239.003 234.24 232.881 239.148 226.002 243.551C218.802 248.051 210.852 251.651 202.152 254.351C193.452 257.051 184.302 258.401 174.702 258.401C160.602 258.401 147.702 256.301 136.002 252.101C124.602 247.901 114.852 241.751 106.752 233.651C98.6516 225.551 92.3516 215.951 87.8516 204.851C83.3516 193.451 81.1016 180.851 81.1016 167.051C81.1016 152.951 83.3516 140.201 87.8516 128.801C92.3516 117.401 98.5016 107.801 106.302 100.001C114.402 91.9008 123.702 85.7508 134.202 81.5508C145.002 77.0508 156.402 74.8008 168.402 74.8008C178.002 74.8008 187.002 76.1508 195.402 78.8508C203.802 81.5508 211.452 85.4508 218.352 90.5508C225.022 94.9979 231.307 100.218 237.205 106.21C237.673 106.685 238.138 107.166 238.602 107.651L285.402 54.1008C276.402 43.6008 265.602 34.6008 253.002 27.1008C240.702 19.3008 227.352 13.4508 212.952 9.55078C198.552 5.65077 183.852 3.70078 168.852 3.70078C144.852 3.70078 122.652 7.75077 102.252 15.8508C82.1516 23.9508 64.6016 35.3508 49.6016 50.0508C34.9016 64.4508 23.3516 81.5508 14.9516 101.351C6.55156 121.151 2.35156 142.751 2.35156 166.151C2.35156 190.151 6.25156 212.201 14.0516 232.301C22.1516 252.101 33.5516 269.351 48.2516 284.051C62.9516 298.451 80.2016 309.701 100.002 317.801C120.102 325.601 142.002 329.501 165.702 329.501C181.002 329.501 196.152 327.701 211.152 324.101C226.452 320.201 240.252 314.951 252.552 308.351ZM495.355 248.917L495.365 248.913C505.616 244.519 514.382 238.379 521.685 230.492L521.687 230.49C529.305 222.286 535.17 212.76 539.282 201.893C543.388 191.043 545.453 179.136 545.453 166.151C545.453 153.166 543.388 141.258 539.282 130.409C535.173 119.548 529.314 110.182 521.712 102.288L521.686 102.261L521.661 102.233C514.359 94.0543 505.6 87.7756 495.365 83.3891L495.355 83.3849L495.345 83.3806C485.425 79.0039 474.454 76.8008 462.403 76.8008C450.356 76.8008 439.23 79.0023 429 83.3849C419.06 87.7717 410.286 94.0581 402.668 102.262L402.656 102.275L402.643 102.288C395.047 110.177 389.191 119.535 385.082 130.386C381.27 141.243 379.353 153.158 379.353 166.151C379.353 179.14 381.269 191.209 385.085 202.373C389.194 213.221 395.048 222.577 402.643 230.464C410.262 238.375 419.044 244.523 429 248.917C439.23 253.299 450.356 255.501 462.403 255.501C474.454 255.501 485.425 253.298 495.345 248.921L495.355 248.917ZM428.203 250.751C418.003 246.251 409.003 239.951 401.203 231.851C393.403 223.751 387.403 214.151 383.203 203.051C379.303 191.651 377.353 179.351 377.353 166.151C377.353 152.951 379.303 140.801 383.203 129.701C387.403 118.601 393.403 109.001 401.203 100.901C409.003 92.5008 418.003 86.0508 428.203 81.5508C438.703 77.0508 450.103 74.8008 462.403 74.8008C474.703 74.8008 485.953 77.0508 496.153 81.5508C506.653 86.0508 515.653 92.5008 523.153 100.901C530.953 109.001 536.953 118.601 541.153 129.701C545.353 140.801 547.453 152.951 547.453 166.151C547.453 179.351 545.353 191.501 541.153 202.601C536.953 213.701 530.953 223.451 523.153 231.851C515.653 239.951 506.653 246.251 496.153 250.751C485.953 255.251 474.703 257.501 462.403 257.501C450.103 257.501 438.703 255.251 428.203 250.751ZM462.853 331.501C438.625 331.501 416.463 327.411 396.395 319.202C376.357 311.004 358.882 299.458 343.989 284.565C329.095 269.672 317.549 252.197 309.352 232.158C301.143 212.093 297.053 190.082 297.053 166.151C297.053 142.219 301.143 120.209 309.352 100.144C317.549 80.105 329.095 62.6299 343.989 47.7366C358.882 32.8433 376.357 21.2973 396.395 13.0997C416.46 4.89127 438.471 0.800781 462.403 0.800781C486.334 0.800781 508.345 4.89127 528.41 13.0997C548.448 21.2973 565.924 32.8433 580.817 47.7366C595.712 62.632 607.111 80.1112 615.008 100.155C623.214 120.217 627.303 142.224 627.303 166.151C627.303 189.783 623.212 211.785 615.012 232.139C607.114 252.186 595.714 269.667 580.817 284.565C565.924 299.458 548.448 311.004 528.41 319.202C508.348 327.409 486.488 331.501 462.853 331.501ZM613.153 231.401C621.253 211.301 625.303 189.551 625.303 166.151C625.303 142.451 621.253 120.701 613.153 100.901C605.353 81.1008 594.103 63.8508 579.403 49.1508C564.703 34.4508 547.453 23.0508 527.653 14.9508C507.853 6.85078 486.103 2.80078 462.403 2.80078C438.703 2.80078 416.953 6.85078 397.153 14.9508C377.353 23.0508 360.103 34.4508 345.403 49.1508C330.703 63.8508 319.303 81.1008 311.203 100.901C303.103 120.701 299.053 142.451 299.053 166.151C299.053 189.851 303.103 211.601 311.203 231.401C319.303 251.201 330.703 268.451 345.403 283.151C360.103 297.851 377.353 309.251 397.153 317.351C416.953 325.451 438.853 329.501 462.853 329.501C486.253 329.501 507.853 325.451 527.653 317.351C547.453 309.251 564.703 297.851 579.403 283.151C594.103 268.451 605.353 251.201 613.153 231.401ZM666.738 327.001V8.00077H800.588C823.912 8.00077 845.318 11.9386 864.78 19.8432C884.223 27.4402 900.958 38.3898 914.961 52.6947C929.259 66.995 940.206 83.8783 947.801 103.323C955.402 122.781 959.188 144.182 959.188 167.501C959.188 190.82 955.402 212.367 947.805 232.119L947.801 232.129C940.204 251.577 929.255 268.463 914.952 282.765C900.952 296.765 884.223 307.709 864.791 315.604L864.779 315.609L864.766 315.614C845.308 323.215 823.907 327.001 800.588 327.001H666.738ZM913.538 54.1008C899.738 40.0008 883.238 29.2008 864.038 21.7008C844.838 13.9008 823.688 10.0008 800.588 10.0008H668.738V325.001H800.588C823.688 325.001 844.838 321.251 864.038 313.751C883.238 305.951 899.738 295.151 913.538 281.351C927.638 267.251 938.438 250.601 945.938 231.401C953.438 211.901 957.188 190.601 957.188 167.501C957.188 144.401 953.438 123.251 945.938 104.051C938.438 84.8508 927.638 68.2008 913.538 54.1008ZM745.238 257.501H798.338C810.938 257.501 822.188 255.401 832.088 251.201C841.988 246.701 850.388 240.551 857.288 232.751C864.488 224.951 870.038 215.501 873.938 204.401C877.838 193.301 879.788 181.001 879.788 167.501C879.788 154.001 877.838 141.701 873.938 130.601C870.038 119.501 864.488 110.051 857.288 102.251C850.388 94.4508 841.988 88.4508 832.088 84.2508C822.188 79.7508 810.938 77.5008 798.338 77.5008H745.238V257.501ZM747.238 79.5008V255.501H798.338C810.706 255.501 821.675 253.442 831.284 249.369C840.93 244.981 849.09 239 855.79 231.426L855.804 231.41L855.819 231.394C862.815 223.815 868.232 214.609 872.051 203.738C875.866 192.88 877.788 180.808 877.788 167.501C877.788 154.194 875.866 142.122 872.051 131.264C868.232 120.393 862.815 111.186 855.819 103.607L855.804 103.592L855.79 103.576C849.094 96.0066 840.942 90.1794 831.307 86.0919L831.284 86.082L831.261 86.0715C821.659 81.707 810.698 79.5008 798.338 79.5008H747.238ZM985.704 327.001V258.651H1038.8V76.3508H985.704V8.00077H1172.85V76.3508H1119.3V258.651H1172.85V327.001H985.704ZM1117.3 260.651V74.3508H1170.85V10.0008H987.704V74.3508H1040.8V260.651H987.704V325.001H1170.85V260.651H1117.3ZM1225.86 327.001V8.00077H1297.28L1440.88 203.643C1440.01 194.974 1439.14 186.446 1438.27 178.057L1438.27 178.023L1438.27 177.988C1437.67 169.287 1437.07 160.435 1436.47 151.434L1436.47 151.401L1436.46 151.367C1436.16 142.364 1435.86 132.611 1435.56 122.108L1435.56 122.079V8.00077H1513.81V327.001H1441.51L1298.98 134.984C1300.04 143.938 1300.85 152.014 1301.4 159.21C1302.31 167.029 1302.91 174.112 1303.21 180.456C1303.51 186.771 1303.66 193.087 1303.66 199.402C1303.96 205.43 1304.11 212.197 1304.11 219.701V327.001H1225.86ZM1301.66 199.451C1301.66 193.151 1301.51 186.851 1301.21 180.551C1300.91 174.251 1300.31 167.201 1299.41 159.401C1298.81 151.601 1297.91 142.751 1296.71 132.851C1296.68 132.503 1296.65 132.153 1296.62 131.801C1296.51 130.558 1296.39 129.284 1296.28 127.98L1442.51 325.001H1511.81V10.0008H1437.56V122.051C1437.86 132.551 1438.16 142.301 1438.46 151.301C1439.06 160.301 1439.66 169.151 1440.26 177.851C1441.16 186.551 1442.06 195.401 1442.96 204.401C1443.04 205.205 1443.13 206.012 1443.21 206.823C1443.35 208.137 1443.49 209.46 1443.64 210.792L1296.26 10.0008H1227.86V325.001H1302.11V219.701C1302.11 212.201 1301.96 205.451 1301.66 199.451ZM1564.69 232.134L1564.69 232.124C1556.79 211.775 1552.85 189.777 1552.85 166.151C1552.85 142.516 1556.94 120.802 1565.15 101.034L1565.16 101.027L1565.16 101.02C1573.66 80.9743 1585.67 63.4985 1601.17 48.6086C1616.66 33.7181 1634.89 22.1793 1655.82 13.9883L1655.83 13.9847C1677.08 5.78831 1700.13 1.70078 1724.95 1.70078C1742.52 1.70078 1759.06 3.97301 1774.56 8.53066C1790.32 13.0764 1804.59 19.2963 1817.35 27.2002C1830.11 35.0979 1840.93 44.2295 1849.77 54.6029L1850.94 55.9692L1801.97 107.79L1800.52 106.394C1793.12 99.289 1785.44 93.3855 1777.48 88.6714L1777.47 88.6628L1777.45 88.6541C1769.81 83.9475 1761.56 80.2678 1752.73 77.6164L1752.7 77.6077L1752.67 77.5981C1743.89 74.6711 1734.5 73.2008 1724.5 73.2008C1711.55 73.2008 1699.68 75.5533 1688.85 80.2332C1678.3 84.9259 1668.91 91.5236 1660.69 100.04C1652.79 108.233 1646.63 118.05 1642.22 129.519L1642.22 129.527L1642.21 129.535C1637.81 140.679 1635.6 152.877 1635.6 166.151C1635.6 179.408 1637.96 191.748 1642.65 203.192C1647.36 214.662 1653.82 224.641 1662.03 233.147C1670.24 241.354 1679.92 247.961 1691.09 252.962C1702.53 257.651 1714.71 260.001 1727.65 260.001C1736.73 260.001 1745.2 258.537 1753.06 255.625L1753.07 255.621L1753.08 255.617C1761.28 252.688 1768.26 248.751 1774.06 243.827C1779.86 238.895 1784.49 233.102 1787.97 226.438C1790.59 221.205 1792.21 215.729 1792.85 210.001H1716.2V146.151H1867.92L1868.22 147.793C1868.84 151.214 1869.3 155.811 1869.6 161.546C1869.9 167.26 1870.05 172.827 1870.05 178.247C1870.35 183.627 1870.5 187.703 1870.5 190.451C1870.5 211.099 1866.71 230.123 1859.09 247.497C1851.78 264.546 1841.42 279.324 1828.02 291.814C1814.61 304.301 1798.79 314.033 1780.57 321.018C1762.32 328.013 1742.57 331.501 1721.35 331.501C1695.94 331.501 1672.88 327.416 1652.21 319.21C1631.57 311.015 1613.79 299.468 1598.89 284.565C1583.99 269.666 1572.59 252.183 1564.69 232.134ZM1857.25 246.701C1864.75 229.601 1868.5 210.851 1868.5 190.451C1868.5 187.751 1868.35 183.701 1868.05 178.301C1868.05 172.901 1867.9 167.351 1867.6 161.651C1867.3 155.951 1866.85 151.451 1866.25 148.151H1718.2V208.001H1795.03C1794.99 208.671 1794.93 209.337 1794.86 210.001C1794.21 216.049 1792.51 221.832 1789.75 227.351C1786.15 234.251 1781.35 240.251 1775.35 245.351C1769.35 250.451 1762.15 254.501 1753.75 257.501C1745.65 260.501 1736.95 262.001 1727.65 262.001C1714.45 262.001 1702 259.601 1690.3 254.801C1678.9 249.701 1669 242.951 1660.6 234.551C1652.2 225.851 1645.6 215.651 1640.8 203.951C1636 192.251 1633.6 179.651 1633.6 166.151C1633.6 152.651 1635.85 140.201 1640.35 128.801C1644.85 117.101 1651.15 107.051 1659.25 98.6508C1667.65 89.9508 1677.25 83.2008 1688.05 78.4008C1699.15 73.6008 1711.3 71.2008 1724.5 71.2008C1734.7 71.2008 1744.3 72.7008 1753.3 75.7008C1762.3 78.4008 1770.7 82.1508 1778.5 86.9508C1786.08 91.4418 1793.4 96.9834 1800.45 103.575C1800.93 104.029 1801.42 104.487 1801.9 104.951L1801.91 104.946L1848.25 55.9008C1839.55 45.7008 1828.9 36.7008 1816.3 28.9008C1803.7 21.1008 1789.6 14.9508 1774 10.4508C1758.7 5.95077 1742.35 3.70078 1724.95 3.70078C1700.35 3.70078 1677.55 7.75077 1656.55 15.8508C1635.85 23.9508 1617.85 35.3508 1602.55 50.0508C1587.25 64.7508 1575.4 82.0008 1567 101.801C1558.9 121.301 1554.85 142.751 1554.85 166.151C1554.85 189.551 1558.75 211.301 1566.55 231.401C1574.35 251.201 1585.6 268.451 1600.3 283.151C1615 297.851 1632.55 309.251 1652.95 317.351C1673.35 325.451 1696.15 329.501 1721.35 329.501C1742.35 329.501 1761.85 326.051 1779.85 319.151C1797.85 312.251 1813.45 302.651 1826.65 290.351C1839.85 278.051 1850.05 263.501 1857.25 246.701ZM1870.5 409.401V352.451L1908.45 350L1908.5 406L1870.5 409.401ZM1870.5 409.401L1908.5 406L1908.45 350L1870.5 352.451V409.401Z" fill="url(#paint0_linear_1443_179)" fill-opacity="0.8"/>
<defs>
<linearGradient id="paint0_linear_1443_179" x1="1107.39" y1="-153.199" x2="1103.74" y2="291.79" gradientUnits="userSpaceOnUse">
<stop stop-color="white"/>
<stop offset="1" stop-color="white" stop-opacity="0"/>
</linearGradient>
</defs>
</svg>
