<svg width="1920" height="363" viewBox="0 0 1920 363" fill="none" xmlns="http://www.w3.org/2000/svg">
<path d="M63 350L61.8641 352.777L61.8893 352.787L61.9147 352.797L63 350ZM5.50001 312.5L3.37868 314.621L3.38962 314.632L3.40067 314.643L5.50001 312.5ZM-32.5 255L-35.2968 256.085L-35.2869 256.111L-35.2766 256.136L-32.5 255ZM-31.5 109.5L-28.7383 110.672L-31.5 109.5ZM7 52.5L9.09934 54.6431L9.09978 54.6426L7 52.5ZM65.5 14.5L64.3929 11.7117L64.3858 11.7146L64.3787 11.7174L65.5 14.5ZM188.5 7.49998L189.284 4.6043L188.5 7.49998ZM233 27L231.393 29.5335L231.429 29.5562L231.466 29.5779L233 27ZM269 57L271.259 58.9741L272.968 57.019L271.278 55.0476L269 57ZM217 116.5L214.83 118.571L217.098 120.947L219.259 118.474L217 116.5ZM194.5 97.5L192.717 99.9125L192.775 99.9558L192.836 99.9961L194.5 97.5ZM169 84.5L169.918 81.6439L169 84.5ZM101 87.5L102.114 90.2854L102.134 90.2775L102.154 90.2692L101 87.5ZM70 108L72.1213 110.121L70 108ZM49.5 140L52.2905 141.101L49.5 140ZM49.5 224.5L46.7095 225.602L46.7146 225.614L46.7198 225.627L49.5 224.5ZM70.5 256.5L68.3787 258.621L70.5 256.5ZM103 277L101.963 279.815L101.975 279.819L101.986 279.824L103 277ZM176.5 279.5L175.611 276.635L176.5 279.5ZM203 267.5L204.59 270.044L204.604 270.035L204.617 270.027L203 267.5ZM225 249.5L227.537 247.899L225.48 244.639L222.825 247.434L225 249.5ZM266 314.5L268.238 316.498L269.744 314.812L268.537 312.899L266 314.5ZM232.5 339.5L231.108 336.842L231.095 336.849L231.082 336.857L232.5 339.5ZM186.5 357L187.2 359.917L187.221 359.912L187.241 359.907L186.5 357ZM136 360C110.001 360 86.0398 355.723 64.0853 347.203L61.9147 352.797C84.6269 361.61 109.332 366 136 366V360ZM64.1359 347.223C42.4805 338.364 23.6446 326.075 7.59934 310.357L3.40067 314.643C20.0221 330.925 39.5195 343.636 61.8641 352.777L64.1359 347.223ZM7.62132 310.379C-8.42206 294.335 -20.8697 275.506 -29.7234 253.864L-35.2766 256.136C-26.1303 278.494 -13.2446 297.998 3.37868 314.621L7.62132 310.379ZM-29.7032 253.915C-38.2212 231.964 -42.5 207.837 -42.5 181.5H-48.5C-48.5 208.496 -44.1121 233.369 -35.2968 256.085L-29.7032 253.915ZM-42.5 181.5C-42.5 155.867 -37.901 132.27 -28.7383 110.672L-34.2617 108.328C-43.7657 130.73 -48.5 155.133 -48.5 181.5H-42.5ZM-28.7383 110.672C-19.5524 89.0192 -6.93855 70.3537 9.09934 54.6431L4.90067 50.3569C-11.7281 66.6463 -24.781 85.9808 -34.2617 108.328L-28.7383 110.672ZM9.09978 54.6426C25.4764 38.5935 44.6411 26.1403 66.6213 17.2825L64.3787 11.7174C41.6922 20.8597 21.8569 33.7398 4.90022 50.3574L9.09978 54.6426ZM66.6071 17.2882C88.8898 8.44067 113.177 3.99998 139.5 3.99998V-2.00002C112.49 -2.00002 87.4435 2.55929 64.3929 11.7117L66.6071 17.2882ZM139.5 3.99998C155.903 3.99998 171.973 6.13195 187.716 10.3957L189.284 4.6043C173.027 0.201347 156.43 -2.00002 139.5 -2.00002V3.99998ZM187.716 10.3957C203.432 14.6522 217.987 21.0321 231.393 29.5335L234.607 24.4664C220.679 15.6346 205.568 9.01445 189.284 4.6043L187.716 10.3957ZM231.466 29.5779C245.202 37.7546 256.947 47.5478 266.722 58.9523L271.278 55.0476C261.053 43.1189 248.798 32.9121 234.534 24.4221L231.466 29.5779ZM266.741 55.0258L214.741 114.526L219.259 118.474L271.259 58.9741L266.741 55.0258ZM219.17 114.429C212.026 106.944 204.358 100.466 196.164 95.0038L192.836 99.9961C200.642 105.201 207.974 111.389 214.83 118.571L219.17 114.429ZM196.283 95.0875C188.347 89.2214 179.553 84.7409 169.918 81.6439L168.082 87.3561C177.114 90.2591 185.32 94.4452 192.717 99.9125L196.283 95.0875ZM169.918 81.6439C160.263 78.5405 149.951 77 139 77V83C149.382 83 159.07 84.4594 168.082 87.3561L169.918 81.6439ZM139 77C125.281 77 112.221 79.5745 99.8462 84.7308L102.154 90.2692C113.779 85.4255 126.052 83 139 83V77ZM99.8858 84.7146C87.837 89.5341 77.1622 96.5952 67.8787 105.879L72.1213 110.121C80.8379 101.405 90.8297 94.7992 102.114 90.2854L99.8858 84.7146ZM67.8787 105.879C58.8908 114.867 51.8436 125.892 46.7095 138.898L52.2905 141.101C57.1564 128.774 63.7759 118.467 72.1213 110.121L67.8787 105.879ZM46.7095 138.898C41.5519 151.965 39 166.512 39 182.5H45C45 167.154 47.4481 153.369 52.2905 141.101L46.7095 138.898ZM39 182.5C39 198.163 41.5547 212.543 46.7095 225.602L52.2905 223.398C47.4453 211.124 45 197.504 45 182.5H39ZM46.7198 225.627C51.8637 238.315 59.0818 249.324 68.3787 258.621L72.6213 254.379C63.9182 245.676 57.1364 235.351 52.2802 223.373L46.7198 225.627ZM68.3787 258.621C77.7041 267.947 88.9141 275.008 101.963 279.815L104.037 274.185C91.7526 269.659 81.2959 263.053 72.6213 254.379L68.3787 258.621ZM101.986 279.824C115.352 284.622 130.034 287 146 287V281C130.633 281 116.648 278.712 104.014 274.176L101.986 279.824ZM146 287C156.952 287 167.419 285.459 177.389 282.365L175.611 276.635C166.247 279.541 156.381 281 146 281V287ZM177.389 282.365C187.284 279.294 196.356 275.19 204.59 270.044L201.41 264.956C193.644 269.81 185.049 273.706 175.611 276.635L177.389 282.365ZM204.617 270.027C213.139 264.573 220.663 258.421 227.175 251.566L222.825 247.434C216.67 253.912 209.528 259.76 201.383 264.973L204.617 270.027ZM222.463 251.1L263.463 316.1L268.537 312.899L227.537 247.899L222.463 251.1ZM263.762 312.502C255.723 321.506 244.869 329.634 231.108 336.842L233.892 342.158C248.131 334.699 259.611 326.161 268.238 316.498L263.762 312.502ZM231.082 336.857C217.655 344.061 202.554 349.812 185.759 354.093L187.241 359.907C204.446 355.521 220.012 349.606 233.918 342.143L231.082 336.857ZM185.8 354.083C169.361 358.028 152.762 360 136 360V366C153.238 366 170.306 363.972 187.2 359.917L185.8 354.083ZM380.668 349.5L379.532 352.277L380.668 349.5ZM323.168 311.5L325.289 309.379L323.168 311.5ZM285.168 254L282.391 255.136L285.168 254ZM285.168 109L282.391 107.864L285.168 109ZM323.168 51.5L325.289 53.6213L323.168 51.5ZM380.668 13.5L381.804 16.2766L380.668 13.5ZM525.668 13.5L524.532 16.2766L525.668 13.5ZM583.168 51.5L581.047 53.6213L583.168 51.5ZM620.668 109L617.877 110.1L617.884 110.118L617.891 110.136L620.668 109ZM620.668 254L617.885 252.879L617.881 252.89L617.877 252.9L620.668 254ZM583.168 311.5L581.047 309.379L583.168 311.5ZM525.668 349.5L524.532 346.723L525.668 349.5ZM490.668 275.5L489.486 272.743L489.472 272.749L489.457 272.755L490.668 275.5ZM520.668 254.5L518.47 252.459L518.467 252.462L520.668 254.5ZM520.668 109L518.43 110.998L518.468 111.04L518.507 111.081L520.668 109ZM490.668 87.5L489.457 90.2448L489.472 90.2512L489.486 90.2574L490.668 87.5ZM415.168 87.5L413.986 84.7426L413.972 84.7488L413.957 84.7552L415.168 87.5ZM385.168 109L387.329 111.081L387.348 111.061L387.366 111.041L385.168 109ZM365.168 141L362.362 139.938L362.349 139.972L362.338 140.006L365.168 141ZM365.168 222.5L362.329 223.471L362.345 223.517L362.362 223.562L365.168 222.5ZM385.168 254.5L387.329 252.419L385.168 254.5ZM415.168 275.5L413.957 278.245L413.972 278.251L413.986 278.257L415.168 275.5ZM453.668 360C427.344 360 403.402 355.559 381.804 346.723L379.532 352.277C401.934 361.441 426.659 366 453.668 366V360ZM381.804 346.723C360.162 337.87 341.333 325.422 325.289 309.379L321.047 313.621C337.67 330.245 357.174 343.13 379.532 352.277L381.804 346.723ZM325.289 309.379C309.246 293.335 296.798 274.506 287.945 252.864L282.391 255.136C291.538 277.494 304.423 296.998 321.047 313.621L325.289 309.379ZM287.945 252.864C279.107 231.262 274.668 207.486 274.668 181.5H268.668C268.668 208.181 273.229 232.738 282.391 255.136L287.945 252.864ZM274.668 181.5C274.668 155.514 279.107 131.738 287.945 110.136L282.391 107.864C273.229 130.262 268.668 154.819 268.668 181.5H274.668ZM287.945 110.136C296.798 88.4937 309.246 69.6647 325.289 53.6213L321.047 49.3787C304.423 66.002 291.538 85.5063 282.391 107.864L287.945 110.136ZM325.289 53.6213C341.333 37.5779 360.162 25.1303 381.804 16.2766L379.532 10.7234C357.174 19.8697 337.67 32.7554 321.047 49.3787L325.289 53.6213ZM381.804 16.2766C403.406 7.43925 427.182 2.99999 453.168 2.99999V-3.00001C426.487 -3.00001 401.93 1.56072 379.532 10.7234L381.804 16.2766ZM453.168 2.99999C479.154 2.99999 502.93 7.43925 524.532 16.2766L526.804 10.7234C504.406 1.56072 479.849 -3.00001 453.168 -3.00001V2.99999ZM524.532 16.2766C546.174 25.1303 565.003 37.5779 581.047 53.6213L585.289 49.3787C568.666 32.7554 549.162 19.8697 526.804 10.7234L524.532 16.2766ZM581.047 53.6213C597.082 69.6566 609.357 88.4732 617.877 110.1L623.459 107.9C614.645 85.5268 601.921 66.01 585.289 49.3787L581.047 53.6213ZM617.891 110.136C626.729 131.738 631.168 155.514 631.168 181.5H637.168C637.168 154.819 632.607 130.262 623.445 107.864L617.891 110.136ZM631.168 181.5C631.168 207.147 626.731 230.929 617.885 252.879L623.451 255.121C632.605 232.404 637.168 207.853 637.168 181.5H631.168ZM617.877 252.9C609.357 274.527 597.082 293.343 581.047 309.379L585.289 313.621C601.921 296.99 614.645 277.473 623.459 255.1L617.877 252.9ZM581.047 309.379C565.003 325.422 546.174 337.87 524.532 346.723L526.804 352.277C549.162 343.13 568.666 330.245 585.289 313.621L581.047 309.379ZM524.532 346.723C502.925 355.563 479.315 360 453.668 360V366C480.021 366 504.411 361.437 526.804 352.277L524.532 346.723ZM453.168 286C467.208 286 480.126 283.43 491.879 278.245L489.457 272.755C478.543 277.57 466.461 280 453.168 280V286ZM491.85 278.257C503.889 273.098 514.24 265.858 522.869 256.538L518.467 252.462C510.429 261.142 500.78 267.902 489.486 272.743L491.85 278.257ZM522.866 256.541C531.806 246.914 538.675 235.745 543.474 223.062L537.862 220.938C533.328 232.922 526.863 243.42 518.47 252.459L522.866 256.541ZM543.474 223.062C548.282 210.353 550.668 196.489 550.668 181.5H544.668C544.668 195.845 542.387 208.98 537.862 220.938L543.474 223.062ZM550.668 181.5C550.668 166.511 548.282 152.647 543.474 139.938L537.862 142.062C542.387 154.02 544.668 167.155 544.668 181.5H550.668ZM543.474 139.938C538.672 127.246 531.793 116.228 522.829 106.919L518.507 111.081C526.876 119.772 533.331 130.087 537.862 142.062L543.474 139.938ZM522.906 107.002C514.276 97.3364 503.914 89.9128 491.85 84.7426L489.486 90.2574C500.756 95.0872 510.393 101.997 518.43 110.998L522.906 107.002ZM491.879 84.7552C480.126 79.5703 467.208 77 453.168 77V83C466.461 83 478.543 85.4297 489.457 90.2448L491.879 84.7552ZM453.168 77C439.127 77 426.054 79.5705 413.986 84.7426L416.35 90.2574C427.615 85.4294 439.876 83 453.168 83V77ZM413.957 84.7552C402.239 89.9248 391.906 97.3347 382.97 106.959L387.366 111.041C395.763 101.999 405.43 95.0752 416.379 90.2448L413.957 84.7552ZM383.007 106.919C374.043 116.228 367.164 127.246 362.362 139.938L367.974 142.062C372.505 130.087 378.959 119.772 387.329 111.081L383.007 106.919ZM362.338 140.006C357.879 152.695 355.668 166.536 355.668 181.5H361.668C361.668 167.131 363.79 153.972 367.998 141.994L362.338 140.006ZM355.668 181.5C355.668 196.466 357.879 210.463 362.329 223.471L368.006 221.529C363.79 209.203 361.668 195.868 361.668 181.5H355.668ZM362.362 223.562C367.164 236.254 374.043 247.272 383.007 256.581L387.329 252.419C378.959 243.728 372.505 233.413 367.974 221.438L362.362 223.562ZM383.007 256.581C391.942 265.859 402.264 273.086 413.957 278.245L416.379 272.755C405.406 267.914 395.727 261.141 387.329 252.419L383.007 256.581ZM413.986 278.257C426.054 283.429 439.127 286 453.168 286V280C439.876 280 427.615 277.571 416.35 272.743L413.986 278.257ZM669.93 358H666.93V361H669.93V358ZM669.93 7.99998V4.99998H666.93V7.99998H669.93ZM886.93 21L885.801 23.7794L885.819 23.787L885.838 23.7944L886.93 21ZM941.93 57L939.786 59.0984L939.797 59.1099L939.808 59.1213L941.93 57ZM977.93 112.5L980.724 111.408L977.93 112.5ZM977.93 254L980.724 255.092L980.727 255.084L980.73 255.077L977.93 254ZM941.93 309.5L944.051 311.621L941.93 309.5ZM886.93 345.5L888.021 348.294L888.04 348.287L888.059 348.279L886.93 345.5ZM754.93 300L752.445 301.681L757.93 309.789V300H754.93ZM743.43 283V280H737.778L740.945 284.681L743.43 283ZM851.43 276L852.601 278.762L852.636 278.747L852.671 278.731L851.43 276ZM879.43 255.5L877.225 253.465L877.204 253.488L877.183 253.512L879.43 255.5ZM879.43 110.5L877.183 112.488L877.204 112.511L877.225 112.535L879.43 110.5ZM851.43 90.5L850.188 93.2311L850.223 93.2469L850.258 93.2617L851.43 90.5ZM741.93 83L739.601 81.1082L735.627 86H741.93V83ZM754.93 67H757.93V58.5503L752.601 65.1082L754.93 67ZM672.93 358V7.99998H666.93V358H672.93ZM669.93 11H816.43V4.99998H669.93V11ZM816.43 11C841.754 11 864.865 15.2742 885.801 23.7794L888.059 18.2206C866.328 9.39242 842.439 4.99998 816.43 4.99998V11ZM885.838 23.7944C906.793 31.98 924.763 43.7493 939.786 59.0984L944.074 54.9016C928.43 38.9173 909.733 26.6866 888.021 18.2056L885.838 23.7944ZM939.808 59.1213C955.172 74.4849 966.948 92.631 975.135 113.592L980.724 111.408C972.245 89.7024 960.021 70.8484 944.051 54.8786L939.808 59.1213ZM975.135 113.592C983.317 134.538 987.43 157.662 987.43 183H993.43C993.43 157.005 989.209 133.129 980.724 111.408L975.135 113.592ZM987.43 183C987.43 208.337 983.318 231.635 975.13 252.923L980.73 255.077C989.208 233.032 993.43 208.996 993.43 183H987.43ZM975.135 252.908C966.948 273.869 955.172 292.015 939.808 307.379L944.051 311.621C960.021 295.652 972.245 276.798 980.724 255.092L975.135 252.908ZM939.808 307.379C924.776 322.411 906.786 334.195 885.801 342.721L888.059 348.279C909.74 339.471 928.417 327.255 944.051 311.621L939.808 307.379ZM885.838 342.706C864.892 350.888 841.768 355 816.43 355V361C842.425 361 866.301 356.779 888.021 348.294L885.838 342.706ZM816.43 355H669.93V361H816.43V355ZM757.415 298.319L745.915 281.319L740.945 284.681L752.445 301.681L757.415 298.319ZM743.43 286H813.93V280H743.43V286ZM813.93 286C828.264 286 841.173 283.61 852.601 278.762L850.258 273.238C839.687 277.723 827.595 280 813.93 280V286ZM852.671 278.731C864.037 273.565 873.718 266.484 881.677 257.488L877.183 253.512C869.808 261.849 860.822 268.435 850.188 273.269L852.671 278.731ZM881.634 257.535C889.94 248.537 896.306 237.672 900.76 224.994L895.099 223.006C890.887 234.995 884.919 245.13 877.225 253.465L881.634 257.535ZM900.76 224.994C905.221 212.298 907.43 198.29 907.43 183H901.43C901.43 197.71 899.305 211.035 895.099 223.006L900.76 224.994ZM907.43 183C907.43 167.71 905.221 153.702 900.76 141.006L895.099 142.994C899.305 154.965 901.43 168.29 901.43 183H907.43ZM900.76 141.006C896.306 128.328 889.94 117.463 881.634 108.465L877.225 112.535C884.919 120.87 890.887 131.005 895.099 142.994L900.76 141.006ZM881.677 108.512C873.704 99.4996 863.999 92.5737 852.601 87.7382L850.258 93.2617C860.86 97.7596 869.822 104.167 877.183 112.488L881.677 108.512ZM852.671 87.7689C841.224 82.5657 828.29 80 813.93 80V86C827.569 86 839.635 88.4343 850.188 93.2311L852.671 87.7689ZM813.93 80H741.93V86H813.93V80ZM744.258 84.8918L757.258 68.8918L752.601 65.1082L739.601 81.1082L744.258 84.8918ZM751.93 67V300H757.93V67H751.93ZM1011.84 358H1008.84V361H1011.84V358ZM1011.84 286.5V283.5H1008.84V286.5H1011.84ZM1070.84 286.5V289.5H1073.84V286.5H1070.84ZM1070.84 79.5H1073.84V76.5H1070.84V79.5ZM1011.84 79.5H1008.84V82.5H1011.84V79.5ZM1011.84 7.99998V4.99998H1008.84V7.99998H1011.84ZM1215.34 7.99998H1218.34V4.99998H1215.34V7.99998ZM1215.34 79.5V82.5H1218.34V79.5H1215.34ZM1155.84 79.5V76.5H1152.84V79.5H1155.84ZM1155.84 286.5H1152.84V289.5H1155.84V286.5ZM1215.34 286.5H1218.34V283.5H1215.34V286.5ZM1215.34 358V361H1218.34V358H1215.34ZM1014.84 358V286.5H1008.84V358H1014.84ZM1011.84 289.5H1070.84V283.5H1011.84V289.5ZM1073.84 286.5V79.5H1067.84V286.5H1073.84ZM1070.84 76.5H1011.84V82.5H1070.84V76.5ZM1014.84 79.5V7.99998H1008.84V79.5H1014.84ZM1011.84 11H1215.34V4.99998H1011.84V11ZM1212.34 7.99998V79.5H1218.34V7.99998H1212.34ZM1215.34 76.5H1155.84V82.5H1215.34V76.5ZM1152.84 79.5V286.5H1158.84V79.5H1152.84ZM1155.84 289.5H1215.34V283.5H1155.84V289.5ZM1212.34 286.5V358H1218.34V286.5H1212.34ZM1215.34 355H1011.84V361H1215.34V355ZM1266.18 358H1263.18V361H1266.18V358ZM1266.18 7.99998V4.99998H1263.18V7.99998H1266.18ZM1342.18 7.99998L1344.6 6.22484L1343.7 4.99998H1342.18V7.99998ZM1525.68 258L1525.23 260.966L1532.37 262.048L1528.1 256.225L1525.68 258ZM1509.18 255.5L1506.21 255.949L1506.54 258.135L1508.73 258.466L1509.18 255.5ZM1505.18 224L1508.16 223.701L1505.18 224ZM1502.18 194.5L1499.19 194.706L1499.19 194.758L1499.2 194.809L1502.18 194.5ZM1500.18 165L1497.18 165.1L1497.18 165.15L1497.19 165.2L1500.18 165ZM1499.18 132.5H1496.18V132.543L1496.18 132.586L1499.18 132.5ZM1499.18 7.99998V4.99998H1496.18V7.99998H1499.18ZM1581.68 7.99998H1584.68V4.99998H1581.68V7.99998ZM1581.68 358V361H1584.68V358H1581.68ZM1504.68 358L1502.27 359.788L1503.17 361H1504.68V358ZM1313.18 100L1313.59 97.0278L1306.52 96.0574L1310.77 101.788L1313.18 100ZM1338.68 103.5L1341.66 103.189L1341.42 100.848L1339.09 100.528L1338.68 103.5ZM1342.68 144.5L1339.69 144.764L1339.7 144.812L1339.7 144.861L1342.68 144.5ZM1345.68 174L1342.69 174.23L1342.69 174.287L1342.7 174.344L1345.68 174ZM1347.68 197.5L1350.68 197.357L1347.68 197.5ZM1348.18 218.5H1345.18V218.575L1345.18 218.65L1348.18 218.5ZM1348.68 358V361H1351.68V358H1348.68ZM1269.18 358V7.99998H1263.18V358H1269.18ZM1266.18 11H1342.18V4.99998H1266.18V11ZM1339.76 9.77512L1523.26 259.775L1528.1 256.225L1344.6 6.22484L1339.76 9.77512ZM1526.13 255.034L1509.63 252.534L1508.73 258.466L1525.23 260.966L1526.13 255.034ZM1512.15 255.051C1510.49 244.095 1509.16 233.646 1508.16 223.701L1502.19 224.298C1503.2 234.354 1504.54 244.905 1506.21 255.949L1512.15 255.051ZM1508.16 223.701C1507.16 213.698 1506.16 203.861 1505.16 194.191L1499.2 194.809C1500.2 204.472 1501.19 214.302 1502.19 224.299L1508.16 223.701ZM1505.17 194.294C1504.51 184.629 1503.84 174.798 1503.17 164.8L1497.19 165.2C1497.85 175.202 1498.52 185.037 1499.19 194.706L1505.17 194.294ZM1503.18 164.9C1502.84 154.906 1502.51 144.077 1502.18 132.414L1496.18 132.586C1496.51 144.256 1496.85 155.094 1497.18 165.1L1503.18 164.9ZM1502.18 132.5C1502.18 132.477 1502.18 132.454 1502.18 132.432C1502.18 132.409 1502.18 132.386 1502.18 132.363C1502.18 132.34 1502.18 132.318 1502.18 132.295C1502.18 132.272 1502.18 132.249 1502.18 132.226C1502.18 132.204 1502.18 132.181 1502.18 132.158C1502.18 132.135 1502.18 132.112 1502.18 132.089C1502.18 132.067 1502.18 132.044 1502.18 132.021C1502.18 131.998 1502.18 131.975 1502.18 131.952C1502.18 131.93 1502.18 131.907 1502.18 131.884C1502.18 131.861 1502.18 131.838 1502.18 131.815C1502.18 131.792 1502.18 131.77 1502.18 131.747C1502.18 131.724 1502.18 131.701 1502.18 131.678C1502.18 131.655 1502.18 131.632 1502.18 131.609C1502.18 131.586 1502.18 131.564 1502.18 131.541C1502.18 131.518 1502.18 131.495 1502.18 131.472C1502.18 131.449 1502.18 131.426 1502.18 131.403C1502.18 131.38 1502.18 131.357 1502.18 131.335C1502.18 131.312 1502.18 131.289 1502.18 131.266C1502.18 131.243 1502.18 131.22 1502.18 131.197C1502.18 131.174 1502.18 131.151 1502.18 131.128C1502.18 131.105 1502.18 131.082 1502.18 131.059C1502.18 131.036 1502.18 131.013 1502.18 130.991C1502.18 130.968 1502.18 130.945 1502.18 130.922C1502.18 130.899 1502.18 130.876 1502.18 130.853C1502.18 130.83 1502.18 130.807 1502.18 130.784C1502.18 130.761 1502.18 130.738 1502.18 130.715C1502.18 130.692 1502.18 130.669 1502.18 130.646C1502.18 130.623 1502.18 130.6 1502.18 130.577C1502.18 130.554 1502.18 130.531 1502.18 130.508C1502.18 130.485 1502.18 130.462 1502.18 130.439C1502.18 130.416 1502.18 130.393 1502.18 130.37C1502.18 130.347 1502.18 130.324 1502.18 130.301C1502.18 130.278 1502.18 130.255 1502.18 130.232C1502.18 130.209 1502.18 130.186 1502.18 130.163C1502.18 130.139 1502.18 130.116 1502.18 130.093C1502.18 130.07 1502.18 130.047 1502.18 130.024C1502.18 130.001 1502.18 129.978 1502.18 129.955C1502.18 129.932 1502.18 129.909 1502.18 129.886C1502.18 129.863 1502.18 129.84 1502.18 129.817C1502.18 129.793 1502.18 129.77 1502.18 129.747C1502.18 129.724 1502.18 129.701 1502.18 129.678C1502.18 129.655 1502.18 129.632 1502.18 129.609C1502.18 129.586 1502.18 129.562 1502.18 129.539C1502.18 129.516 1502.18 129.493 1502.18 129.47C1502.18 129.447 1502.18 129.424 1502.18 129.401C1502.18 129.378 1502.18 129.354 1502.18 129.331C1502.18 129.308 1502.18 129.285 1502.18 129.262C1502.18 129.239 1502.18 129.216 1502.18 129.192C1502.18 129.169 1502.18 129.146 1502.18 129.123C1502.18 129.1 1502.18 129.077 1502.18 129.053C1502.18 129.03 1502.18 129.007 1502.18 128.984C1502.18 128.961 1502.18 128.938 1502.18 128.914C1502.18 128.891 1502.18 128.868 1502.18 128.845C1502.18 128.822 1502.18 128.798 1502.18 128.775C1502.18 128.752 1502.18 128.729 1502.18 128.706C1502.18 128.682 1502.18 128.659 1502.18 128.636C1502.18 128.613 1502.18 128.59 1502.18 128.566C1502.18 128.543 1502.18 128.52 1502.18 128.497C1502.18 128.473 1502.18 128.45 1502.18 128.427C1502.18 128.404 1502.18 128.38 1502.18 128.357C1502.18 128.334 1502.18 128.311 1502.18 128.287C1502.18 128.264 1502.18 128.241 1502.18 128.218C1502.18 128.194 1502.18 128.171 1502.18 128.148C1502.18 128.125 1502.18 128.101 1502.18 128.078C1502.18 128.055 1502.18 128.032 1502.18 128.008C1502.18 127.985 1502.18 127.962 1502.18 127.938C1502.18 127.915 1502.18 127.892 1502.18 127.869C1502.18 127.845 1502.18 127.822 1502.18 127.799C1502.18 127.775 1502.18 127.752 1502.18 127.729C1502.18 127.705 1502.18 127.682 1502.18 127.659C1502.18 127.635 1502.18 127.612 1502.18 127.589C1502.18 127.565 1502.18 127.542 1502.18 127.519C1502.18 127.495 1502.18 127.472 1502.18 127.449C1502.18 127.425 1502.18 127.402 1502.18 127.379C1502.18 127.355 1502.18 127.332 1502.18 127.309C1502.18 127.285 1502.18 127.262 1502.18 127.239C1502.18 127.215 1502.18 127.192 1502.18 127.168C1502.18 127.145 1502.18 127.122 1502.18 127.098C1502.18 127.075 1502.18 127.052 1502.18 127.028C1502.18 127.005 1502.18 126.981 1502.18 126.958C1502.18 126.935 1502.18 126.911 1502.18 126.888C1502.18 126.864 1502.18 126.841 1502.18 126.818C1502.18 126.794 1502.18 126.771 1502.18 126.747C1502.18 126.724 1502.18 126.7 1502.18 126.677C1502.18 126.654 1502.18 126.63 1502.18 126.607C1502.18 126.583 1502.18 126.56 1502.18 126.536C1502.18 126.513 1502.18 126.49 1502.18 126.466C1502.18 126.443 1502.18 126.419 1502.18 126.396C1502.18 126.372 1502.18 126.349 1502.18 126.325C1502.18 126.302 1502.18 126.278 1502.18 126.255C1502.18 126.231 1502.18 126.208 1502.18 126.185C1502.18 126.161 1502.18 126.138 1502.18 126.114C1502.18 126.091 1502.18 126.067 1502.18 126.044C1502.18 126.02 1502.18 125.997 1502.18 125.973C1502.18 125.95 1502.18 125.926 1502.18 125.903C1502.18 125.879 1502.18 125.856 1502.18 125.832C1502.18 125.809 1502.18 125.785 1502.18 125.761C1502.18 125.738 1502.18 125.714 1502.18 125.691C1502.18 125.667 1502.18 125.644 1502.18 125.62C1502.18 125.597 1502.18 125.573 1502.18 125.55C1502.18 125.526 1502.18 125.503 1502.18 125.479C1502.18 125.455 1502.18 125.432 1502.18 125.408C1502.18 125.385 1502.18 125.361 1502.18 125.338C1502.18 125.314 1502.18 125.29 1502.18 125.267C1502.18 125.243 1502.18 125.22 1502.18 125.196C1502.18 125.172 1502.18 125.149 1502.18 125.125C1502.18 125.102 1502.18 125.078 1502.18 125.055C1502.18 125.031 1502.18 125.007 1502.18 124.984C1502.18 124.96 1502.18 124.936 1502.18 124.913C1502.18 124.889 1502.18 124.866 1502.18 124.842C1502.18 124.818 1502.18 124.795 1502.18 124.771C1502.18 124.747 1502.18 124.724 1502.18 124.7C1502.18 124.677 1502.18 124.653 1502.18 124.629C1502.18 124.606 1502.18 124.582 1502.18 124.558C1502.18 124.535 1502.18 124.511 1502.18 124.487C1502.18 124.464 1502.18 124.44 1502.18 124.416C1502.18 124.393 1502.18 124.369 1502.18 124.345C1502.18 124.322 1502.18 124.298 1502.18 124.274C1502.18 124.251 1502.18 124.227 1502.18 124.203C1502.18 124.179 1502.18 124.156 1502.18 124.132C1502.18 124.108 1502.18 124.085 1502.18 124.061C1502.18 124.037 1502.18 124.014 1502.18 123.99C1502.18 123.966 1502.18 123.942 1502.18 123.919C1502.18 123.895 1502.18 123.871 1502.18 123.847C1502.18 123.824 1502.18 123.8 1502.18 123.776C1502.18 123.753 1502.18 123.729 1502.18 123.705C1502.18 123.681 1502.18 123.658 1502.18 123.634C1502.18 123.61 1502.18 123.586 1502.18 123.562C1502.18 123.539 1502.18 123.515 1502.18 123.491C1502.18 123.467 1502.18 123.444 1502.18 123.42C1502.18 123.396 1502.18 123.372 1502.18 123.349C1502.18 123.325 1502.18 123.301 1502.18 123.277C1502.18 123.253 1502.18 123.23 1502.18 123.206C1502.18 123.182 1502.18 123.158 1502.18 123.134C1502.18 123.111 1502.18 123.087 1502.18 123.063C1502.18 123.039 1502.18 123.015 1502.18 122.991C1502.18 122.968 1502.18 122.944 1502.18 122.92C1502.18 122.896 1502.18 122.872 1502.18 122.848C1502.18 122.825 1502.18 122.801 1502.18 122.777C1502.18 122.753 1502.18 122.729 1502.18 122.705C1502.18 122.682 1502.18 122.658 1502.18 122.634C1502.18 122.61 1502.18 122.586 1502.18 122.562C1502.18 122.538 1502.18 122.514 1502.18 122.491C1502.18 122.467 1502.18 122.443 1502.18 122.419C1502.18 122.395 1502.18 122.371 1502.18 122.347C1502.18 122.323 1502.18 122.299 1502.18 122.276C1502.18 122.252 1502.18 122.228 1502.18 122.204C1502.18 122.18 1502.18 122.156 1502.18 122.132C1502.18 122.108 1502.18 122.084 1502.18 122.06C1502.18 122.036 1502.18 122.013 1502.18 121.989C1502.18 121.965 1502.18 121.941 1502.18 121.917C1502.18 121.893 1502.18 121.869 1502.18 121.845C1502.18 121.821 1502.18 121.797 1502.18 121.773C1502.18 121.749 1502.18 121.725 1502.18 121.701C1502.18 121.677 1502.18 121.653 1502.18 121.629C1502.18 121.605 1502.18 121.581 1502.18 121.557C1502.18 121.533 1502.18 121.509 1502.18 121.485C1502.18 121.461 1502.18 121.438 1502.18 121.414C1502.18 121.39 1502.18 121.366 1502.18 121.342C1502.18 121.318 1502.18 121.294 1502.18 121.27C1502.18 121.246 1502.18 121.221 1502.18 121.197C1502.18 121.173 1502.18 121.149 1502.18 121.125C1502.18 121.101 1502.18 121.077 1502.18 121.053C1502.18 121.029 1502.18 121.005 1502.18 120.981C1502.18 120.957 1502.18 120.933 1502.18 120.909C1502.18 120.885 1502.18 120.861 1502.18 120.837C1502.18 120.813 1502.18 120.789 1502.18 120.765C1502.18 120.741 1502.18 120.717 1502.18 120.693C1502.18 120.669 1502.18 120.644 1502.18 120.62C1502.18 120.596 1502.18 120.572 1502.18 120.548C1502.18 120.524 1502.18 120.5 1502.18 120.476C1502.18 120.452 1502.18 120.428 1502.18 120.404C1502.18 120.38 1502.18 120.355 1502.18 120.331C1502.18 120.307 1502.18 120.283 1502.18 120.259C1502.18 120.235 1502.18 120.211 1502.18 120.187C1502.18 120.162 1502.18 120.138 1502.18 120.114C1502.18 120.09 1502.18 120.066 1502.18 120.042C1502.18 120.018 1502.18 119.994 1502.18 119.969C1502.18 119.945 1502.18 119.921 1502.18 119.897C1502.18 119.873 1502.18 119.849 1502.18 119.825C1502.18 119.8 1502.18 119.776 1502.18 119.752C1502.18 119.728 1502.18 119.704 1502.18 119.68C1502.18 119.655 1502.18 119.631 1502.18 119.607C1502.18 119.583 1502.18 119.559 1502.18 119.534C1502.18 119.51 1502.18 119.486 1502.18 119.462C1502.18 119.438 1502.18 119.413 1502.18 119.389C1502.18 119.365 1502.18 119.341 1502.18 119.317C1502.18 119.292 1502.18 119.268 1502.18 119.244C1502.18 119.22 1502.18 119.195 1502.18 119.171C1502.18 119.147 1502.18 119.123 1502.18 119.099C1502.18 119.074 1502.18 119.05 1502.18 119.026C1502.18 119.002 1502.18 118.977 1502.18 118.953C1502.18 118.929 1502.18 118.905 1502.18 118.88C1502.18 118.856 1502.18 118.832 1502.18 118.808C1502.18 118.783 1502.18 118.759 1502.18 118.735C1502.18 118.71 1502.18 118.686 1502.18 118.662C1502.18 118.638 1502.18 118.613 1502.18 118.589C1502.18 118.565 1502.18 118.54 1502.18 118.516C1502.18 118.492 1502.18 118.468 1502.18 118.443C1502.18 118.419 1502.18 118.395 1502.18 118.37C1502.18 118.346 1502.18 118.322 1502.18 118.297C1502.18 118.273 1502.18 118.249 1502.18 118.224C1502.18 118.2 1502.18 118.176 1502.18 118.151C1502.18 118.127 1502.18 118.103 1502.18 118.078C1502.18 118.054 1502.18 118.03 1502.18 118.005C1502.18 117.981 1502.18 117.957 1502.18 117.932C1502.18 117.908 1502.18 117.884 1502.18 117.859C1502.18 117.835 1502.18 117.81 1502.18 117.786C1502.18 117.762 1502.18 117.737 1502.18 117.713C1502.18 117.689 1502.18 117.664 1502.18 117.64C1502.18 117.615 1502.18 117.591 1502.18 117.567C1502.18 117.542 1502.18 117.518 1502.18 117.493C1502.18 117.469 1502.18 117.445 1502.18 117.42C1502.18 117.396 1502.18 117.371 1502.18 117.347C1502.18 117.323 1502.18 117.298 1502.18 117.274C1502.18 117.249 1502.18 117.225 1502.18 117.2C1502.18 117.176 1502.18 117.152 1502.18 117.127C1502.18 117.103 1502.18 117.078 1502.18 117.054C1502.18 117.029 1502.18 117.005 1502.18 116.98C1502.18 116.956 1502.18 116.931 1502.18 116.907C1502.18 116.883 1502.18 116.858 1502.18 116.834C1502.18 116.809 1502.18 116.785 1502.18 116.76C1502.18 116.736 1502.18 116.711 1502.18 116.687C1502.18 116.662 1502.18 116.638 1502.18 116.613C1502.18 116.589 1502.18 116.564 1502.18 116.54C1502.18 116.515 1502.18 116.491 1502.18 116.466C1502.18 116.442 1502.18 116.417 1502.18 116.393C1502.18 116.368 1502.18 116.344 1502.18 116.319C1502.18 116.295 1502.18 116.27 1502.18 116.246C1502.18 116.221 1502.18 116.196 1502.18 116.172C1502.18 116.147 1502.18 116.123 1502.18 116.098C1502.18 116.074 1502.18 116.049 1502.18 116.025C1502.18 116 1502.18 115.976 1502.18 115.951C1502.18 115.926 1502.18 115.902 1502.18 115.877C1502.18 115.853 1502.18 115.828 1502.18 115.804C1502.18 115.779 1502.18 115.754 1502.18 115.73C1502.18 115.705 1502.18 115.681 1502.18 115.656C1502.18 115.631 1502.18 115.607 1502.18 115.582C1502.18 115.558 1502.18 115.533 1502.18 115.508C1502.18 115.484 1502.18 115.459 1502.18 115.435C1502.18 115.41 1502.18 115.385 1502.18 115.361C1502.18 115.336 1502.18 115.311 1502.18 115.287C1502.18 115.262 1502.18 115.238 1502.18 115.213C1502.18 115.188 1502.18 115.164 1502.18 115.139C1502.18 115.114 1502.18 115.09 1502.18 115.065C1502.18 115.04 1502.18 115.016 1502.18 114.991C1502.18 114.966 1502.18 114.942 1502.18 114.917C1502.18 114.892 1502.18 114.868 1502.18 114.843C1502.18 114.818 1502.18 114.794 1502.18 114.769C1502.18 114.744 1502.18 114.72 1502.18 114.695C1502.18 114.67 1502.18 114.645 1502.18 114.621C1502.18 114.596 1502.18 114.571 1502.18 114.547C1502.18 114.522 1502.18 114.497 1502.18 114.473C1502.18 114.448 1502.18 114.423 1502.18 114.398C1502.18 114.374 1502.18 114.349 1502.18 114.324C1502.18 114.299 1502.18 114.275 1502.18 114.25C1502.18 114.225 1502.18 114.201 1502.18 114.176C1502.18 114.151 1502.18 114.126 1502.18 114.102C1502.18 114.077 1502.18 114.052 1502.18 114.027C1502.18 114.002 1502.18 113.978 1502.18 113.953C1502.18 113.928 1502.18 113.903 1502.18 113.879C1502.18 113.854 1502.18 113.829 1502.18 113.804C1502.18 113.779 1502.18 113.755 1502.18 113.73C1502.18 113.705 1502.18 113.68 1502.18 113.656C1502.18 113.631 1502.18 113.606 1502.18 113.581C1502.18 113.556 1502.18 113.531 1502.18 113.507C1502.18 113.482 1502.18 113.457 1502.18 113.432C1502.18 113.407 1502.18 113.383 1502.18 113.358C1502.18 113.333 1502.18 113.308 1502.18 113.283C1502.18 113.258 1502.18 113.234 1502.18 113.209C1502.18 113.184 1502.18 113.159 1502.18 113.134C1502.18 113.109 1502.18 113.084 1502.18 113.06C1502.18 113.035 1502.18 113.01 1502.18 112.985C1502.18 112.96 1502.18 112.935 1502.18 112.91C1502.18 112.885 1502.18 112.861 1502.18 112.836C1502.18 112.811 1502.18 112.786 1502.18 112.761C1502.18 112.736 1502.18 112.711 1502.18 112.686C1502.18 112.661 1502.18 112.637 1502.18 112.612C1502.18 112.587 1502.18 112.562 1502.18 112.537C1502.18 112.512 1502.18 112.487 1502.18 112.462C1502.18 112.437 1502.18 112.412 1502.18 112.387C1502.18 112.362 1502.18 112.337 1502.18 112.313C1502.18 112.288 1502.18 112.263 1502.18 112.238C1502.18 112.213 1502.18 112.188 1502.18 112.163C1502.18 112.138 1502.18 112.113 1502.18 112.088C1502.18 112.063 1502.18 112.038 1502.18 112.013C1502.18 111.988 1502.18 111.963 1502.18 111.938C1502.18 111.913 1502.18 111.888 1502.18 111.863C1502.18 111.838 1502.18 111.813 1502.18 111.788C1502.18 111.763 1502.18 111.738 1502.18 111.713C1502.18 111.688 1502.18 111.663 1502.18 111.638C1502.18 111.613 1502.18 111.588 1502.18 111.563C1502.18 111.538 1502.18 111.513 1502.18 111.488C1502.18 111.463 1502.18 111.438 1502.18 111.413C1502.18 111.388 1502.18 111.363 1502.18 111.338C1502.18 111.313 1502.18 111.288 1502.18 111.263C1502.18 111.238 1502.18 111.213 1502.18 111.188C1502.18 111.163 1502.18 111.138 1502.18 111.113C1502.18 111.088 1502.18 111.062 1502.18 111.037C1502.18 111.012 1502.18 110.987 1502.18 110.962C1502.18 110.937 1502.18 110.912 1502.18 110.887C1502.18 110.862 1502.18 110.837 1502.18 110.812C1502.18 110.787 1502.18 110.762 1502.18 110.736C1502.18 110.711 1502.18 110.686 1502.18 110.661C1502.18 110.636 1502.18 110.611 1502.18 110.586C1502.18 110.561 1502.18 110.536 1502.18 110.51C1502.18 110.485 1502.18 110.46 1502.18 110.435C1502.18 110.41 1502.18 110.385 1502.18 110.36C1502.18 110.335 1502.18 110.309 1502.18 110.284C1502.18 110.259 1502.18 110.234 1502.18 110.209C1502.18 110.184 1502.18 110.158 1502.18 110.133C1502.18 110.108 1502.18 110.083 1502.18 110.058C1502.18 110.033 1502.18 110.008 1502.18 109.982C1502.18 109.957 1502.18 109.932 1502.18 109.907C1502.18 109.882 1502.18 109.856 1502.18 109.831C1502.18 109.806 1502.18 109.781 1502.18 109.756C1502.18 109.73 1502.18 109.705 1502.18 109.68C1502.18 109.655 1502.18 109.63 1502.18 109.604C1502.18 109.579 1502.18 109.554 1502.18 109.529C1502.18 109.504 1502.18 109.478 1502.18 109.453C1502.18 109.428 1502.18 109.403 1502.18 109.377C1502.18 109.352 1502.18 109.327 1502.18 109.302C1502.18 109.276 1502.18 109.251 1502.18 109.226C1502.18 109.201 1502.18 109.175 1502.18 109.15C1502.18 109.125 1502.18 109.1 1502.18 109.074C1502.18 109.049 1502.18 109.024 1502.18 108.999C1502.18 108.973 1502.18 108.948 1502.18 108.923C1502.18 108.897 1502.18 108.872 1502.18 108.847C1502.18 108.822 1502.18 108.796 1502.18 108.771C1502.18 108.746 1502.18 108.72 1502.18 108.695C1502.18 108.67 1502.18 108.645 1502.18 108.619C1502.18 108.594 1502.18 108.569 1502.18 108.543C1502.18 108.518 1502.18 108.493 1502.18 108.467C1502.18 108.442 1502.18 108.417 1502.18 108.391C1502.18 108.366 1502.18 108.341 1502.18 108.315C1502.18 108.29 1502.18 108.265 1502.18 108.239C1502.18 108.214 1502.18 108.189 1502.18 108.163C1502.18 108.138 1502.18 108.112 1502.18 108.087C1502.18 108.062 1502.18 108.036 1502.18 108.011C1502.18 107.986 1502.18 107.96 1502.18 107.935C1502.18 107.909 1502.18 107.884 1502.18 107.859C1502.18 107.833 1502.18 107.808 1502.18 107.783C1502.18 107.757 1502.18 107.732 1502.18 107.706C1502.18 107.681 1502.18 107.656 1502.18 107.63C1502.18 107.605 1502.18 107.579 1502.18 107.554C1502.18 107.528 1502.18 107.503 1502.18 107.478C1502.18 107.452 1502.18 107.427 1502.18 107.401C1502.18 107.376 1502.18 107.35 1502.18 107.325C1502.18 107.3 1502.18 107.274 1502.18 107.249C1502.18 107.223 1502.18 107.198 1502.18 107.172C1502.18 107.147 1502.18 107.121 1502.18 107.096C1502.18 107.07 1502.18 107.045 1502.18 107.02C1502.18 106.994 1502.18 106.969 1502.18 106.943C1502.18 106.918 1502.18 106.892 1502.18 106.867C1502.18 106.841 1502.18 106.816 1502.18 106.79C1502.18 106.765 1502.18 106.739 1502.18 106.714C1502.18 106.688 1502.18 106.663 1502.18 106.637C1502.18 106.612 1502.18 106.586 1502.18 106.561C1502.18 106.535 1502.18 106.51 1502.18 106.484C1502.18 106.459 1502.18 106.433 1502.18 106.407C1502.18 106.382 1502.18 106.356 1502.18 106.331C1502.18 106.305 1502.18 106.28 1502.18 106.254C1502.18 106.229 1502.18 106.203 1502.18 106.178C1502.18 106.152 1502.18 106.126 1502.18 106.101C1502.18 106.075 1502.18 106.05 1502.18 106.024C1502.18 105.999 1502.18 105.973 1502.18 105.947C1502.18 105.922 1502.18 105.896 1502.18 105.871C1502.18 105.845 1502.18 105.82 1502.18 105.794C1502.18 105.768 1502.18 105.743 1502.18 105.717C1502.18 105.692 1502.18 105.666 1502.18 105.64C1502.18 105.615 1502.18 105.589 1502.18 105.563C1502.18 105.538 1502.18 105.512 1502.18 105.487C1502.18 105.461 1502.18 105.435 1502.18 105.41C1502.18 105.384 1502.18 105.358 1502.18 105.333C1502.18 105.307 1502.18 105.282 1502.18 105.256C1502.18 105.23 1502.18 105.205 1502.18 105.179C1502.18 105.153 1502.18 105.128 1502.18 105.102C1502.18 105.076 1502.18 105.051 1502.18 105.025C1502.18 104.999 1502.18 104.974 1502.18 104.948C1502.18 104.922 1502.18 104.897 1502.18 104.871C1502.18 104.845 1502.18 104.82 1502.18 104.794C1502.18 104.768 1502.18 104.742 1502.18 104.717C1502.18 104.691 1502.18 104.665 1502.18 104.64C1502.18 104.614 1502.18 104.588 1502.18 104.562C1502.18 104.537 1502.18 104.511 1502.18 104.485C1502.18 104.46 1502.18 104.434 1502.18 104.408C1502.18 104.382 1502.18 104.357 1502.18 104.331C1502.18 104.305 1502.18 104.279 1502.18 104.254C1502.18 104.228 1502.18 104.202 1502.18 104.176C1502.18 104.151 1502.18 104.125 1502.18 104.099C1502.18 104.073 1502.18 104.048 1502.18 104.022C1502.18 103.996 1502.18 103.97 1502.18 103.945C1502.18 103.919 1502.18 103.893 1502.18 103.867C1502.18 103.841 1502.18 103.816 1502.18 103.79C1502.18 103.764 1502.18 103.738 1502.18 103.712C1502.18 103.687 1502.18 103.661 1502.18 103.635C1502.18 103.609 1502.18 103.583 1502.18 103.558C1502.18 103.532 1502.18 103.506 1502.18 103.48C1502.18 103.454 1502.18 103.429 1502.18 103.403C1502.18 103.377 1502.18 103.351 1502.18 103.325C1502.18 103.299 1502.18 103.273 1502.18 103.248C1502.18 103.222 1502.18 103.196 1502.18 103.17C1502.18 103.144 1502.18 103.118 1502.18 103.093C1502.18 103.067 1502.18 103.041 1502.18 103.015C1502.18 102.989 1502.18 102.963 1502.18 102.937C1502.18 102.911 1502.18 102.886 1502.18 102.86C1502.18 102.834 1502.18 102.808 1502.18 102.782C1502.18 102.756 1502.18 102.73 1502.18 102.704C1502.18 102.678 1502.18 102.653 1502.18 102.627C1502.18 102.601 1502.18 102.575 1502.18 102.549C1502.18 102.523 1502.18 102.497 1502.18 102.471C1502.18 102.445 1502.18 102.419 1502.18 102.393C1502.18 102.367 1502.18 102.342 1502.18 102.316C1502.18 102.29 1502.18 102.264 1502.18 102.238C1502.18 102.212 1502.18 102.186 1502.18 102.16C1502.18 102.134 1502.18 102.108 1502.18 102.082C1502.18 102.056 1502.18 102.03 1502.18 102.004C1502.18 101.978 1502.18 101.952 1502.18 101.926C1502.18 101.9 1502.18 101.874 1502.18 101.848C1502.18 101.822 1502.18 101.796 1502.18 101.77C1502.18 101.744 1502.18 101.718 1502.18 101.692C1502.18 101.666 1502.18 101.64 1502.18 101.614C1502.18 101.588 1502.18 101.562 1502.18 101.536C1502.18 101.51 1502.18 101.484 1502.18 101.458C1502.18 101.432 1502.18 101.406 1502.18 101.38C1502.18 101.354 1502.18 101.328 1502.18 101.302C1502.18 101.276 1502.18 101.25 1502.18 101.224C1502.18 101.198 1502.18 101.172 1502.18 101.146C1502.18 101.12 1502.18 101.094 1502.18 101.068C1502.18 101.042 1502.18 101.016 1502.18 100.989C1502.18 100.963 1502.18 100.937 1502.18 100.911C1502.18 100.885 1502.18 100.859 1502.18 100.833C1502.18 100.807 1502.18 100.781 1502.18 100.755C1502.18 100.729 1502.18 100.703 1502.18 100.676C1502.18 100.65 1502.18 100.624 1502.18 100.598C1502.18 100.572 1502.18 100.546 1502.18 100.52C1502.18 100.494 1502.18 100.468 1502.18 100.441C1502.18 100.415 1502.18 100.389 1502.18 100.363C1502.18 100.337 1502.18 100.311 1502.18 100.285C1502.18 100.259 1502.18 100.232 1502.18 100.206C1502.18 100.18 1502.18 100.154 1502.18 100.128C1502.18 100.102 1502.18 100.076 1502.18 100.049C1502.18 100.023 1502.18 99.9971 1502.18 99.9709C1502.18 99.9447 1502.18 99.9186 1502.18 99.8924C1502.18 99.8662 1502.18 99.84 1502.18 99.8139C1502.18 99.7877 1502.18 99.7615 1502.18 99.7353C1502.18 99.7091 1502.18 99.6829 1502.18 99.6567C1502.18 99.6305 1502.18 99.6043 1502.18 99.5781C1502.18 99.5519 1502.18 99.5257 1502.18 99.4995C1502.18 99.4733 1502.18 99.4471 1502.18 99.4209C1502.18 99.3946 1502.18 99.3684 1502.18 99.3422C1502.18 99.3159 1502.18 99.2897 1502.18 99.2635C1502.18 99.2372 1502.18 99.211 1502.18 99.1848C1502.18 99.1585 1502.18 99.1323 1502.18 99.106C1502.18 99.0798 1502.18 99.0535 1502.18 99.0273C1502.18 99.001 1502.18 98.9747 1502.18 98.9485C1502.18 98.9222 1502.18 98.896 1502.18 98.8697C1502.18 98.8434 1502.18 98.8171 1502.18 98.7908C1502.18 98.7646 1502.18 98.7383 1502.18 98.712C1502.18 98.6857 1502.18 98.6594 1502.18 98.6331C1502.18 98.6068 1502.18 98.5805 1502.18 98.5542C1502.18 98.5279 1502.18 98.5016 1502.18 98.4753C1502.18 98.449 1502.18 98.4227 1502.18 98.3963C1502.18 98.37 1502.18 98.3437 1502.18 98.3174C1502.18 98.291 1502.18 98.2647 1502.18 98.2384C1502.18 98.2121 1502.18 98.1857 1502.18 98.1594C1502.18 98.133 1502.18 98.1067 1502.18 98.0803C1502.18 98.054 1502.18 98.0276 1502.18 98.0013C1502.18 97.9749 1502.18 97.9486 1502.18 97.9222C1502.18 97.8958 1502.18 97.8695 1502.18 97.8431C1502.18 97.8167 1502.18 97.7903 1502.18 97.764C1502.18 97.7376 1502.18 97.7112 1502.18 97.6848C1502.18 97.6584 1502.18 97.632 1502.18 97.6056C1502.18 97.5792 1502.18 97.5528 1502.18 97.5264C1502.18 97.5 1502.18 97.4736 1502.18 97.4472C1502.18 97.4208 1502.18 97.3944 1502.18 97.368C1502.18 97.3416 1502.18 97.3151 1502.18 97.2887C1502.18 97.2623 1502.18 97.2359 1502.18 97.2094C1502.18 97.183 1502.18 97.1566 1502.18 97.1301C1502.18 97.1037 1502.18 97.0772 1502.18 97.0508C1502.18 97.0243 1502.18 96.9979 1502.18 96.9714C1502.18 96.945 1502.18 96.9185 1502.18 96.892C1502.18 96.8656 1502.18 96.8391 1502.18 96.8126C1502.18 96.7862 1502.18 96.7597 1502.18 96.7332C1502.18 96.7067 1502.18 96.6803 1502.18 96.6538C1502.18 96.6273 1502.18 96.6008 1502.18 96.5743C1502.18 96.5478 1502.18 96.5213 1502.18 96.4948C1502.18 96.4683 1502.18 96.4418 1502.18 96.4153C1502.18 96.3888 1502.18 96.3623 1502.18 96.3357C1502.18 96.3092 1502.18 96.2827 1502.18 96.2562C1502.18 96.2296 1502.18 96.2031 1502.18 96.1766C1502.18 96.1501 1502.18 96.1235 1502.18 96.097C1502.18 96.0704 1502.18 96.0439 1502.18 96.0173C1502.18 95.9908 1502.18 95.9642 1502.18 95.9377C1502.18 95.9111 1502.18 95.8846 1502.18 95.858C1502.18 95.8315 1502.18 95.8049 1502.18 95.7783C1502.18 95.7517 1502.18 95.7252 1502.18 95.6986C1502.18 95.672 1502.18 95.6454 1502.18 95.6189C1502.18 95.5923 1502.18 95.5657 1502.18 95.5391C1502.18 95.5125 1502.18 95.4859 1502.18 95.4593C1502.18 95.4327 1502.18 95.4061 1502.18 95.3795C1502.18 95.3529 1502.18 95.3262 1502.18 95.2996C1502.18 95.273 1502.18 95.2464 1502.18 95.2198C1502.18 95.1931 1502.18 95.1665 1502.18 95.1399C1502.18 95.1133 1502.18 95.0866 1502.18 95.06C1502.18 95.0333 1502.18 95.0067 1502.18 94.9801C1502.18 94.9534 1502.18 94.9268 1502.18 94.9001C1502.18 94.8734 1502.18 94.8468 1502.18 94.8201C1502.18 94.7935 1502.18 94.7668 1502.18 94.7401C1502.18 94.7135 1502.18 94.6868 1502.18 94.6601C1502.18 94.6334 1502.18 94.6068 1502.18 94.5801C1502.18 94.5534 1502.18 94.5267 1502.18 94.5H1496.18C1496.18 94.5267 1496.18 94.5534 1496.18 94.5801C1496.18 94.6068 1496.18 94.6334 1496.18 94.6601C1496.18 94.6868 1496.18 94.7135 1496.18 94.7401C1496.18 94.7668 1496.18 94.7935 1496.18 94.8201C1496.18 94.8468 1496.18 94.8734 1496.18 94.9001C1496.18 94.9268 1496.18 94.9534 1496.18 94.9801C1496.18 95.0067 1496.18 95.0333 1496.18 95.06C1496.18 95.0866 1496.18 95.1133 1496.18 95.1399C1496.18 95.1665 1496.18 95.1931 1496.18 95.2198C1496.18 95.2464 1496.18 95.273 1496.18 95.2996C1496.18 95.3262 1496.18 95.3529 1496.18 95.3795C1496.18 95.4061 1496.18 95.4327 1496.18 95.4593C1496.18 95.4859 1496.18 95.5125 1496.18 95.5391C1496.18 95.5657 1496.18 95.5923 1496.18 95.6189C1496.18 95.6454 1496.18 95.672 1496.18 95.6986C1496.18 95.7252 1496.18 95.7517 1496.18 95.7783C1496.18 95.8049 1496.18 95.8315 1496.18 95.858C1496.18 95.8846 1496.18 95.9111 1496.18 95.9377C1496.18 95.9642 1496.18 95.9908 1496.18 96.0173C1496.18 96.0439 1496.18 96.0704 1496.18 96.097C1496.18 96.1235 1496.18 96.1501 1496.18 96.1766C1496.18 96.2031 1496.18 96.2296 1496.18 96.2562C1496.18 96.2827 1496.18 96.3092 1496.18 96.3357C1496.18 96.3623 1496.18 96.3888 1496.18 96.4153C1496.18 96.4418 1496.18 96.4683 1496.18 96.4948C1496.18 96.5213 1496.18 96.5478 1496.18 96.5743C1496.18 96.6008 1496.18 96.6273 1496.18 96.6538C1496.18 96.6803 1496.18 96.7067 1496.18 96.7332C1496.18 96.7597 1496.18 96.7862 1496.18 96.8126C1496.18 96.8391 1496.18 96.8656 1496.18 96.892C1496.18 96.9185 1496.18 96.945 1496.18 96.9714C1496.18 96.9979 1496.18 97.0243 1496.18 97.0508C1496.18 97.0772 1496.18 97.1037 1496.18 97.1301C1496.18 97.1566 1496.18 97.183 1496.18 97.2094C1496.18 97.2359 1496.18 97.2623 1496.18 97.2887C1496.18 97.3151 1496.18 97.3416 1496.18 97.368C1496.18 97.3944 1496.18 97.4208 1496.18 97.4472C1496.18 97.4736 1496.18 97.5 1496.18 97.5264C1496.18 97.5528 1496.18 97.5792 1496.18 97.6056C1496.18 97.632 1496.18 97.6584 1496.18 97.6848C1496.18 97.7112 1496.18 97.7376 1496.18 97.764C1496.18 97.7903 1496.18 97.8167 1496.18 97.8431C1496.18 97.8695 1496.18 97.8958 1496.18 97.9222C1496.18 97.9486 1496.18 97.9749 1496.18 98.0013C1496.18 98.0276 1496.18 98.054 1496.18 98.0803C1496.18 98.1067 1496.18 98.133 1496.18 98.1594C1496.18 98.1857 1496.18 98.2121 1496.18 98.2384C1496.18 98.2647 1496.18 98.291 1496.18 98.3174C1496.18 98.3437 1496.18 98.37 1496.18 98.3963C1496.18 98.4227 1496.18 98.449 1496.18 98.4753C1496.18 98.5016 1496.18 98.5279 1496.18 98.5542C1496.18 98.5805 1496.18 98.6068 1496.18 98.6331C1496.18 98.6594 1496.18 98.6857 1496.18 98.712C1496.18 98.7383 1496.18 98.7646 1496.18 98.7908C1496.18 98.8171 1496.18 98.8434 1496.18 98.8697C1496.18 98.896 1496.18 98.9222 1496.18 98.9485C1496.18 98.9747 1496.18 99.001 1496.18 99.0273C1496.18 99.0535 1496.18 99.0798 1496.18 99.106C1496.18 99.1323 1496.18 99.1585 1496.18 99.1848C1496.18 99.211 1496.18 99.2372 1496.18 99.2635C1496.18 99.2897 1496.18 99.3159 1496.18 99.3422C1496.18 99.3684 1496.18 99.3946 1496.18 99.4209C1496.18 99.4471 1496.18 99.4733 1496.18 99.4995C1496.18 99.5257 1496.18 99.5519 1496.18 99.5781C1496.18 99.6043 1496.18 99.6305 1496.18 99.6567C1496.18 99.6829 1496.18 99.7091 1496.18 99.7353C1496.18 99.7615 1496.18 99.7877 1496.18 99.8139C1496.18 99.84 1496.18 99.8662 1496.18 99.8924C1496.18 99.9186 1496.18 99.9447 1496.18 99.9709C1496.18 99.9971 1496.18 100.023 1496.18 100.049C1496.18 100.076 1496.18 100.102 1496.18 100.128C1496.18 100.154 1496.18 100.18 1496.18 100.206C1496.18 100.232 1496.18 100.259 1496.18 100.285C1496.18 100.311 1496.18 100.337 1496.18 100.363C1496.18 100.389 1496.18 100.415 1496.18 100.441C1496.18 100.468 1496.18 100.494 1496.18 100.52C1496.18 100.546 1496.18 100.572 1496.18 100.598C1496.18 100.624 1496.18 100.65 1496.18 100.676C1496.18 100.703 1496.18 100.729 1496.18 100.755C1496.18 100.781 1496.18 100.807 1496.18 100.833C1496.18 100.859 1496.18 100.885 1496.18 100.911C1496.18 100.937 1496.18 100.963 1496.18 100.989C1496.18 101.016 1496.18 101.042 1496.18 101.068C1496.18 101.094 1496.18 101.12 1496.18 101.146C1496.18 101.172 1496.18 101.198 1496.18 101.224C1496.18 101.25 1496.18 101.276 1496.18 101.302C1496.18 101.328 1496.18 101.354 1496.18 101.38C1496.18 101.406 1496.18 101.432 1496.18 101.458C1496.18 101.484 1496.18 101.51 1496.18 101.536C1496.18 101.562 1496.18 101.588 1496.18 101.614C1496.18 101.64 1496.18 101.666 1496.18 101.692C1496.18 101.718 1496.18 101.744 1496.18 101.77C1496.18 101.796 1496.18 101.822 1496.18 101.848C1496.18 101.874 1496.18 101.9 1496.18 101.926C1496.18 101.952 1496.18 101.978 1496.18 102.004C1496.18 102.03 1496.18 102.056 1496.18 102.082C1496.18 102.108 1496.18 102.134 1496.18 102.16C1496.18 102.186 1496.18 102.212 1496.18 102.238C1496.18 102.264 1496.18 102.29 1496.18 102.316C1496.18 102.342 1496.18 102.367 1496.18 102.393C1496.18 102.419 1496.18 102.445 1496.18 102.471C1496.18 102.497 1496.18 102.523 1496.18 102.549C1496.18 102.575 1496.18 102.601 1496.18 102.627C1496.18 102.653 1496.18 102.678 1496.18 102.704C1496.18 102.73 1496.18 102.756 1496.18 102.782C1496.18 102.808 1496.18 102.834 1496.18 102.86C1496.18 102.886 1496.18 102.911 1496.18 102.937C1496.18 102.963 1496.18 102.989 1496.18 103.015C1496.18 103.041 1496.18 103.067 1496.18 103.093C1496.18 103.118 1496.18 103.144 1496.18 103.17C1496.18 103.196 1496.18 103.222 1496.18 103.248C1496.18 103.273 1496.18 103.299 1496.18 103.325C1496.18 103.351 1496.18 103.377 1496.18 103.403C1496.18 103.429 1496.18 103.454 1496.18 103.48C1496.18 103.506 1496.18 103.532 1496.18 103.558C1496.18 103.583 1496.18 103.609 1496.18 103.635C1496.18 103.661 1496.18 103.687 1496.18 103.712C1496.18 103.738 1496.18 103.764 1496.18 103.79C1496.18 103.816 1496.18 103.841 1496.18 103.867C1496.18 103.893 1496.18 103.919 1496.18 103.945C1496.18 103.97 1496.18 103.996 1496.18 104.022C1496.18 104.048 1496.18 104.073 1496.18 104.099C1496.18 104.125 1496.18 104.151 1496.18 104.176C1496.18 104.202 1496.18 104.228 1496.18 104.254C1496.18 104.279 1496.18 104.305 1496.18 104.331C1496.18 104.357 1496.18 104.382 1496.18 104.408C1496.18 104.434 1496.18 104.46 1496.18 104.485C1496.18 104.511 1496.18 104.537 1496.18 104.562C1496.18 104.588 1496.18 104.614 1496.18 104.64C1496.18 104.665 1496.18 104.691 1496.18 104.717C1496.18 104.742 1496.18 104.768 1496.18 104.794C1496.18 104.82 1496.18 104.845 1496.18 104.871C1496.18 104.897 1496.18 104.922 1496.18 104.948C1496.18 104.974 1496.18 104.999 1496.18 105.025C1496.18 105.051 1496.18 105.076 1496.18 105.102C1496.18 105.128 1496.18 105.153 1496.18 105.179C1496.18 105.205 1496.18 105.23 1496.18 105.256C1496.18 105.282 1496.18 105.307 1496.18 105.333C1496.18 105.358 1496.18 105.384 1496.18 105.41C1496.18 105.435 1496.18 105.461 1496.18 105.487C1496.18 105.512 1496.18 105.538 1496.18 105.563C1496.18 105.589 1496.18 105.615 1496.18 105.64C1496.18 105.666 1496.18 105.692 1496.18 105.717C1496.18 105.743 1496.18 105.768 1496.18 105.794C1496.18 105.82 1496.18 105.845 1496.18 105.871C1496.18 105.896 1496.18 105.922 1496.18 105.947C1496.18 105.973 1496.18 105.999 1496.18 106.024C1496.18 106.05 1496.18 106.075 1496.18 106.101C1496.18 106.126 1496.18 106.152 1496.18 106.178C1496.18 106.203 1496.18 106.229 1496.18 106.254C1496.18 106.28 1496.18 106.305 1496.18 106.331C1496.18 106.356 1496.18 106.382 1496.18 106.407C1496.18 106.433 1496.18 106.459 1496.18 106.484C1496.18 106.51 1496.18 106.535 1496.18 106.561C1496.18 106.586 1496.18 106.612 1496.18 106.637C1496.18 106.663 1496.18 106.688 1496.18 106.714C1496.18 106.739 1496.18 106.765 1496.18 106.79C1496.18 106.816 1496.18 106.841 1496.18 106.867C1496.18 106.892 1496.18 106.918 1496.18 106.943C1496.18 106.969 1496.18 106.994 1496.18 107.02C1496.18 107.045 1496.18 107.07 1496.18 107.096C1496.18 107.121 1496.18 107.147 1496.18 107.172C1496.18 107.198 1496.18 107.223 1496.18 107.249C1496.18 107.274 1496.18 107.3 1496.18 107.325C1496.18 107.35 1496.18 107.376 1496.18 107.401C1496.18 107.427 1496.18 107.452 1496.18 107.478C1496.18 107.503 1496.18 107.528 1496.18 107.554C1496.18 107.579 1496.18 107.605 1496.18 107.63C1496.18 107.656 1496.18 107.681 1496.18 107.706C1496.18 107.732 1496.18 107.757 1496.18 107.783C1496.18 107.808 1496.18 107.833 1496.18 107.859C1496.18 107.884 1496.18 107.909 1496.18 107.935C1496.18 107.96 1496.18 107.986 1496.18 108.011C1496.18 108.036 1496.18 108.062 1496.18 108.087C1496.18 108.112 1496.18 108.138 1496.18 108.163C1496.18 108.189 1496.18 108.214 1496.18 108.239C1496.18 108.265 1496.18 108.29 1496.18 108.315C1496.18 108.341 1496.18 108.366 1496.18 108.391C1496.18 108.417 1496.18 108.442 1496.18 108.467C1496.18 108.493 1496.18 108.518 1496.18 108.543C1496.18 108.569 1496.18 108.594 1496.18 108.619C1496.18 108.645 1496.18 108.67 1496.18 108.695C1496.18 108.72 1496.18 108.746 1496.18 108.771C1496.18 108.796 1496.18 108.822 1496.18 108.847C1496.18 108.872 1496.18 108.897 1496.18 108.923C1496.18 108.948 1496.18 108.973 1496.18 108.999C1496.18 109.024 1496.18 109.049 1496.18 109.074C1496.18 109.1 1496.18 109.125 1496.18 109.15C1496.18 109.175 1496.18 109.201 1496.18 109.226C1496.18 109.251 1496.18 109.276 1496.18 109.302C1496.18 109.327 1496.18 109.352 1496.18 109.377C1496.18 109.403 1496.18 109.428 1496.18 109.453C1496.18 109.478 1496.18 109.504 1496.18 109.529C1496.18 109.554 1496.18 109.579 1496.18 109.604C1496.18 109.63 1496.18 109.655 1496.18 109.68C1496.18 109.705 1496.18 109.73 1496.18 109.756C1496.18 109.781 1496.18 109.806 1496.18 109.831C1496.18 109.856 1496.18 109.882 1496.18 109.907C1496.18 109.932 1496.18 109.957 1496.18 109.982C1496.18 110.008 1496.18 110.033 1496.18 110.058C1496.18 110.083 1496.18 110.108 1496.18 110.133C1496.18 110.158 1496.18 110.184 1496.18 110.209C1496.18 110.234 1496.18 110.259 1496.18 110.284C1496.18 110.309 1496.18 110.335 1496.18 110.36C1496.18 110.385 1496.18 110.41 1496.18 110.435C1496.18 110.46 1496.18 110.485 1496.18 110.51C1496.18 110.536 1496.18 110.561 1496.18 110.586C1496.18 110.611 1496.18 110.636 1496.18 110.661C1496.18 110.686 1496.18 110.711 1496.18 110.736C1496.18 110.762 1496.18 110.787 1496.18 110.812C1496.18 110.837 1496.18 110.862 1496.18 110.887C1496.18 110.912 1496.18 110.937 1496.18 110.962C1496.18 110.987 1496.18 111.012 1496.18 111.037C1496.18 111.062 1496.18 111.088 1496.18 111.113C1496.18 111.138 1496.18 111.163 1496.18 111.188C1496.18 111.213 1496.18 111.238 1496.18 111.263C1496.18 111.288 1496.18 111.313 1496.18 111.338C1496.18 111.363 1496.18 111.388 1496.18 111.413C1496.18 111.438 1496.18 111.463 1496.18 111.488C1496.18 111.513 1496.18 111.538 1496.18 111.563C1496.18 111.588 1496.18 111.613 1496.18 111.638C1496.18 111.663 1496.18 111.688 1496.18 111.713C1496.18 111.738 1496.18 111.763 1496.18 111.788C1496.18 111.813 1496.18 111.838 1496.18 111.863C1496.18 111.888 1496.18 111.913 1496.18 111.938C1496.18 111.963 1496.18 111.988 1496.18 112.013C1496.18 112.038 1496.18 112.063 1496.18 112.088C1496.18 112.113 1496.18 112.138 1496.18 112.163C1496.18 112.188 1496.18 112.213 1496.18 112.238C1496.18 112.263 1496.18 112.288 1496.18 112.313C1496.18 112.337 1496.18 112.362 1496.18 112.387C1496.18 112.412 1496.18 112.437 1496.18 112.462C1496.18 112.487 1496.18 112.512 1496.18 112.537C1496.18 112.562 1496.18 112.587 1496.18 112.612C1496.18 112.637 1496.18 112.661 1496.18 112.686C1496.18 112.711 1496.18 112.736 1496.18 112.761C1496.18 112.786 1496.18 112.811 1496.18 112.836C1496.18 112.861 1496.18 112.885 1496.18 112.91C1496.18 112.935 1496.18 112.96 1496.18 112.985C1496.18 113.01 1496.18 113.035 1496.18 113.06C1496.18 113.084 1496.18 113.109 1496.18 113.134C1496.18 113.159 1496.18 113.184 1496.18 113.209C1496.18 113.234 1496.18 113.258 1496.18 113.283C1496.18 113.308 1496.18 113.333 1496.18 113.358C1496.18 113.383 1496.18 113.407 1496.18 113.432C1496.18 113.457 1496.18 113.482 1496.18 113.507C1496.18 113.531 1496.18 113.556 1496.18 113.581C1496.18 113.606 1496.18 113.631 1496.18 113.656C1496.18 113.68 1496.18 113.705 1496.18 113.73C1496.18 113.755 1496.18 113.779 1496.18 113.804C1496.18 113.829 1496.18 113.854 1496.18 113.879C1496.18 113.903 1496.18 113.928 1496.18 113.953C1496.18 113.978 1496.18 114.002 1496.18 114.027C1496.18 114.052 1496.18 114.077 1496.18 114.102C1496.18 114.126 1496.18 114.151 1496.18 114.176C1496.18 114.201 1496.18 114.225 1496.18 114.25C1496.18 114.275 1496.18 114.299 1496.18 114.324C1496.18 114.349 1496.18 114.374 1496.18 114.398C1496.18 114.423 1496.18 114.448 1496.18 114.473C1496.18 114.497 1496.18 114.522 1496.18 114.547C1496.18 114.571 1496.18 114.596 1496.18 114.621C1496.18 114.645 1496.18 114.67 1496.18 114.695C1496.18 114.72 1496.18 114.744 1496.18 114.769C1496.18 114.794 1496.18 114.818 1496.18 114.843C1496.18 114.868 1496.18 114.892 1496.18 114.917C1496.18 114.942 1496.18 114.966 1496.18 114.991C1496.18 115.016 1496.18 115.04 1496.18 115.065C1496.18 115.09 1496.18 115.114 1496.18 115.139C1496.18 115.164 1496.18 115.188 1496.18 115.213C1496.18 115.238 1496.18 115.262 1496.18 115.287C1496.18 115.311 1496.18 115.336 1496.18 115.361C1496.18 115.385 1496.18 115.41 1496.18 115.435C1496.18 115.459 1496.18 115.484 1496.18 115.508C1496.18 115.533 1496.18 115.558 1496.18 115.582C1496.18 115.607 1496.18 115.631 1496.18 115.656C1496.18 115.681 1496.18 115.705 1496.18 115.73C1496.18 115.754 1496.18 115.779 1496.18 115.804C1496.18 115.828 1496.18 115.853 1496.18 115.877C1496.18 115.902 1496.18 115.926 1496.18 115.951C1496.18 115.976 1496.18 116 1496.18 116.025C1496.18 116.049 1496.18 116.074 1496.18 116.098C1496.18 116.123 1496.18 116.147 1496.18 116.172C1496.18 116.196 1496.18 116.221 1496.18 116.246C1496.18 116.27 1496.18 116.295 1496.18 116.319C1496.18 116.344 1496.18 116.368 1496.18 116.393C1496.18 116.417 1496.18 116.442 1496.18 116.466C1496.18 116.491 1496.18 116.515 1496.18 116.54C1496.18 116.564 1496.18 116.589 1496.18 116.613C1496.18 116.638 1496.18 116.662 1496.18 116.687C1496.18 116.711 1496.18 116.736 1496.18 116.76C1496.18 116.785 1496.18 116.809 1496.18 116.834C1496.18 116.858 1496.18 116.883 1496.18 116.907C1496.18 116.931 1496.18 116.956 1496.18 116.98C1496.18 117.005 1496.18 117.029 1496.18 117.054C1496.18 117.078 1496.18 117.103 1496.18 117.127C1496.18 117.152 1496.18 117.176 1496.18 117.2C1496.18 117.225 1496.18 117.249 1496.18 117.274C1496.18 117.298 1496.18 117.323 1496.18 117.347C1496.18 117.371 1496.18 117.396 1496.18 117.42C1496.18 117.445 1496.18 117.469 1496.18 117.493C1496.18 117.518 1496.18 117.542 1496.18 117.567C1496.18 117.591 1496.18 117.615 1496.18 117.64C1496.18 117.664 1496.18 117.689 1496.18 117.713C1496.18 117.737 1496.18 117.762 1496.18 117.786C1496.18 117.81 1496.18 117.835 1496.18 117.859C1496.18 117.884 1496.18 117.908 1496.18 117.932C1496.18 117.957 1496.18 117.981 1496.18 118.005C1496.18 118.03 1496.18 118.054 1496.18 118.078C1496.18 118.103 1496.18 118.127 1496.18 118.151C1496.18 118.176 1496.18 118.2 1496.18 118.224C1496.18 118.249 1496.18 118.273 1496.18 118.297C1496.18 118.322 1496.18 118.346 1496.18 118.37C1496.18 118.395 1496.18 118.419 1496.18 118.443C1496.18 118.468 1496.18 118.492 1496.18 118.516C1496.18 118.54 1496.18 118.565 1496.18 118.589C1496.18 118.613 1496.18 118.638 1496.18 118.662C1496.18 118.686 1496.18 118.71 1496.18 118.735C1496.18 118.759 1496.18 118.783 1496.18 118.808C1496.18 118.832 1496.18 118.856 1496.18 118.88C1496.18 118.905 1496.18 118.929 1496.18 118.953C1496.18 118.977 1496.18 119.002 1496.18 119.026C1496.18 119.05 1496.18 119.074 1496.18 119.099C1496.18 119.123 1496.18 119.147 1496.18 119.171C1496.18 119.195 1496.18 119.22 1496.18 119.244C1496.18 119.268 1496.18 119.292 1496.18 119.317C1496.18 119.341 1496.18 119.365 1496.18 119.389C1496.18 119.413 1496.18 119.438 1496.18 119.462C1496.18 119.486 1496.18 119.51 1496.18 119.534C1496.18 119.559 1496.18 119.583 1496.18 119.607C1496.18 119.631 1496.18 119.655 1496.18 119.68C1496.18 119.704 1496.18 119.728 1496.18 119.752C1496.18 119.776 1496.18 119.8 1496.18 119.825C1496.18 119.849 1496.18 119.873 1496.18 119.897C1496.18 119.921 1496.18 119.945 1496.18 119.969C1496.18 119.994 1496.18 120.018 1496.18 120.042C1496.18 120.066 1496.18 120.09 1496.18 120.114C1496.18 120.138 1496.18 120.162 1496.18 120.187C1496.18 120.211 1496.18 120.235 1496.18 120.259C1496.18 120.283 1496.18 120.307 1496.18 120.331C1496.18 120.355 1496.18 120.38 1496.18 120.404C1496.18 120.428 1496.18 120.452 1496.18 120.476C1496.18 120.5 1496.18 120.524 1496.18 120.548C1496.18 120.572 1496.18 120.596 1496.18 120.62C1496.18 120.644 1496.18 120.669 1496.18 120.693C1496.18 120.717 1496.18 120.741 1496.18 120.765C1496.18 120.789 1496.18 120.813 1496.18 120.837C1496.18 120.861 1496.18 120.885 1496.18 120.909C1496.18 120.933 1496.18 120.957 1496.18 120.981C1496.18 121.005 1496.18 121.029 1496.18 121.053C1496.18 121.077 1496.18 121.101 1496.18 121.125C1496.18 121.149 1496.18 121.173 1496.18 121.197C1496.18 121.221 1496.18 121.246 1496.18 121.27C1496.18 121.294 1496.18 121.318 1496.18 121.342C1496.18 121.366 1496.18 121.39 1496.18 121.414C1496.18 121.438 1496.18 121.461 1496.18 121.485C1496.18 121.509 1496.18 121.533 1496.18 121.557C1496.18 121.581 1496.18 121.605 1496.18 121.629C1496.18 121.653 1496.18 121.677 1496.18 121.701C1496.18 121.725 1496.18 121.749 1496.18 121.773C1496.18 121.797 1496.18 121.821 1496.18 121.845C1496.18 121.869 1496.18 121.893 1496.18 121.917C1496.18 121.941 1496.18 121.965 1496.18 121.989C1496.18 122.013 1496.18 122.036 1496.18 122.06C1496.18 122.084 1496.18 122.108 1496.18 122.132C1496.18 122.156 1496.18 122.18 1496.18 122.204C1496.18 122.228 1496.18 122.252 1496.18 122.276C1496.18 122.299 1496.18 122.323 1496.18 122.347C1496.18 122.371 1496.18 122.395 1496.18 122.419C1496.18 122.443 1496.18 122.467 1496.18 122.491C1496.18 122.514 1496.18 122.538 1496.18 122.562C1496.18 122.586 1496.18 122.61 1496.18 122.634C1496.18 122.658 1496.18 122.682 1496.18 122.705C1496.18 122.729 1496.18 122.753 1496.18 122.777C1496.18 122.801 1496.18 122.825 1496.18 122.848C1496.18 122.872 1496.18 122.896 1496.18 122.92C1496.18 122.944 1496.18 122.968 1496.18 122.991C1496.18 123.015 1496.18 123.039 1496.18 123.063C1496.18 123.087 1496.18 123.111 1496.18 123.134C1496.18 123.158 1496.18 123.182 1496.18 123.206C1496.18 123.23 1496.18 123.253 1496.18 123.277C1496.18 123.301 1496.18 123.325 1496.18 123.349C1496.18 123.372 1496.18 123.396 1496.18 123.42C1496.18 123.444 1496.18 123.467 1496.18 123.491C1496.18 123.515 1496.18 123.539 1496.18 123.562C1496.18 123.586 1496.18 123.61 1496.18 123.634C1496.18 123.658 1496.18 123.681 1496.18 123.705C1496.18 123.729 1496.18 123.753 1496.18 123.776C1496.18 123.8 1496.18 123.824 1496.18 123.847C1496.18 123.871 1496.18 123.895 1496.18 123.919C1496.18 123.942 1496.18 123.966 1496.18 123.99C1496.18 124.014 1496.18 124.037 1496.18 124.061C1496.18 124.085 1496.18 124.108 1496.18 124.132C1496.18 124.156 1496.18 124.179 1496.18 124.203C1496.18 124.227 1496.18 124.251 1496.18 124.274C1496.18 124.298 1496.18 124.322 1496.18 124.345C1496.18 124.369 1496.18 124.393 1496.18 124.416C1496.18 124.44 1496.18 124.464 1496.18 124.487C1496.18 124.511 1496.18 124.535 1496.18 124.558C1496.18 124.582 1496.18 124.606 1496.18 124.629C1496.18 124.653 1496.18 124.677 1496.18 124.7C1496.18 124.724 1496.18 124.747 1496.18 124.771C1496.18 124.795 1496.18 124.818 1496.18 124.842C1496.18 124.866 1496.18 124.889 1496.18 124.913C1496.18 124.936 1496.18 124.96 1496.18 124.984C1496.18 125.007 1496.18 125.031 1496.18 125.055C1496.18 125.078 1496.18 125.102 1496.18 125.125C1496.18 125.149 1496.18 125.172 1496.18 125.196C1496.18 125.22 1496.18 125.243 1496.18 125.267C1496.18 125.29 1496.18 125.314 1496.18 125.338C1496.18 125.361 1496.18 125.385 1496.18 125.408C1496.18 125.432 1496.18 125.455 1496.18 125.479C1496.18 125.503 1496.18 125.526 1496.18 125.55C1496.18 125.573 1496.18 125.597 1496.18 125.62C1496.18 125.644 1496.18 125.667 1496.18 125.691C1496.18 125.714 1496.18 125.738 1496.18 125.761C1496.18 125.785 1496.18 125.809 1496.18 125.832C1496.18 125.856 1496.18 125.879 1496.18 125.903C1496.18 125.926 1496.18 125.95 1496.18 125.973C1496.18 125.997 1496.18 126.02 1496.18 126.044C1496.18 126.067 1496.18 126.091 1496.18 126.114C1496.18 126.138 1496.18 126.161 1496.18 126.185C1496.18 126.208 1496.18 126.231 1496.18 126.255C1496.18 126.278 1496.18 126.302 1496.18 126.325C1496.18 126.349 1496.18 126.372 1496.18 126.396C1496.18 126.419 1496.18 126.443 1496.18 126.466C1496.18 126.49 1496.18 126.513 1496.18 126.536C1496.18 126.56 1496.18 126.583 1496.18 126.607C1496.18 126.63 1496.18 126.654 1496.18 126.677C1496.18 126.7 1496.18 126.724 1496.18 126.747C1496.18 126.771 1496.18 126.794 1496.18 126.818C1496.18 126.841 1496.18 126.864 1496.18 126.888C1496.18 126.911 1496.18 126.935 1496.18 126.958C1496.18 126.981 1496.18 127.005 1496.18 127.028C1496.18 127.052 1496.18 127.075 1496.18 127.098C1496.18 127.122 1496.18 127.145 1496.18 127.168C1496.18 127.192 1496.18 127.215 1496.18 127.239C1496.18 127.262 1496.18 127.285 1496.18 127.309C1496.18 127.332 1496.18 127.355 1496.18 127.379C1496.18 127.402 1496.18 127.425 1496.18 127.449C1496.18 127.472 1496.18 127.495 1496.18 127.519C1496.18 127.542 1496.18 127.565 1496.18 127.589C1496.18 127.612 1496.18 127.635 1496.18 127.659C1496.18 127.682 1496.18 127.705 1496.18 127.729C1496.18 127.752 1496.18 127.775 1496.18 127.799C1496.18 127.822 1496.18 127.845 1496.18 127.869C1496.18 127.892 1496.18 127.915 1496.18 127.938C1496.18 127.962 1496.18 127.985 1496.18 128.008C1496.18 128.032 1496.18 128.055 1496.18 128.078C1496.18 128.101 1496.18 128.125 1496.18 128.148C1496.18 128.171 1496.18 128.194 1496.18 128.218C1496.18 128.241 1496.18 128.264 1496.18 128.287C1496.18 128.311 1496.18 128.334 1496.18 128.357C1496.18 128.38 1496.18 128.404 1496.18 128.427C1496.18 128.45 1496.18 128.473 1496.18 128.497C1496.18 128.52 1496.18 128.543 1496.18 128.566C1496.18 128.59 1496.18 128.613 1496.18 128.636C1496.18 128.659 1496.18 128.682 1496.18 128.706C1496.18 128.729 1496.18 128.752 1496.18 128.775C1496.18 128.798 1496.18 128.822 1496.18 128.845C1496.18 128.868 1496.18 128.891 1496.18 128.914C1496.18 128.938 1496.18 128.961 1496.18 128.984C1496.18 129.007 1496.18 129.03 1496.18 129.053C1496.18 129.077 1496.18 129.1 1496.18 129.123C1496.18 129.146 1496.18 129.169 1496.18 129.192C1496.18 129.216 1496.18 129.239 1496.18 129.262C1496.18 129.285 1496.18 129.308 1496.18 129.331C1496.18 129.354 1496.18 129.378 1496.18 129.401C1496.18 129.424 1496.18 129.447 1496.18 129.47C1496.18 129.493 1496.18 129.516 1496.18 129.539C1496.18 129.562 1496.18 129.586 1496.18 129.609C1496.18 129.632 1496.18 129.655 1496.18 129.678C1496.18 129.701 1496.18 129.724 1496.18 129.747C1496.18 129.77 1496.18 129.793 1496.18 129.817C1496.18 129.84 1496.18 129.863 1496.18 129.886C1496.18 129.909 1496.18 129.932 1496.18 129.955C1496.18 129.978 1496.18 130.001 1496.18 130.024C1496.18 130.047 1496.18 130.07 1496.18 130.093C1496.18 130.116 1496.18 130.139 1496.18 130.163C1496.18 130.186 1496.18 130.209 1496.18 130.232C1496.18 130.255 1496.18 130.278 1496.18 130.301C1496.18 130.324 1496.18 130.347 1496.18 130.37C1496.18 130.393 1496.18 130.416 1496.18 130.439C1496.18 130.462 1496.18 130.485 1496.18 130.508C1496.18 130.531 1496.18 130.554 1496.18 130.577C1496.18 130.6 1496.18 130.623 1496.18 130.646C1496.18 130.669 1496.18 130.692 1496.18 130.715C1496.18 130.738 1496.18 130.761 1496.18 130.784C1496.18 130.807 1496.18 130.83 1496.18 130.853C1496.18 130.876 1496.18 130.899 1496.18 130.922C1496.18 130.945 1496.18 130.968 1496.18 130.991C1496.18 131.013 1496.18 131.036 1496.18 131.059C1496.18 131.082 1496.18 131.105 1496.18 131.128C1496.18 131.151 1496.18 131.174 1496.18 131.197C1496.18 131.22 1496.18 131.243 1496.18 131.266C1496.18 131.289 1496.18 131.312 1496.18 131.335C1496.18 131.357 1496.18 131.38 1496.18 131.403C1496.18 131.426 1496.18 131.449 1496.18 131.472C1496.18 131.495 1496.18 131.518 1496.18 131.541C1496.18 131.564 1496.18 131.586 1496.18 131.609C1496.18 131.632 1496.18 131.655 1496.18 131.678C1496.18 131.701 1496.18 131.724 1496.18 131.747C1496.18 131.77 1496.18 131.792 1496.18 131.815C1496.18 131.838 1496.18 131.861 1496.18 131.884C1496.18 131.907 1496.18 131.93 1496.18 131.952C1496.18 131.975 1496.18 131.998 1496.18 132.021C1496.18 132.044 1496.18 132.067 1496.18 132.089C1496.18 132.112 1496.18 132.135 1496.18 132.158C1496.18 132.181 1496.18 132.204 1496.18 132.226C1496.18 132.249 1496.18 132.272 1496.18 132.295C1496.18 132.318 1496.18 132.34 1496.18 132.363C1496.18 132.386 1496.18 132.409 1496.18 132.432C1496.18 132.454 1496.18 132.477 1496.18 132.5H1502.18ZM1502.18 94.5V7.99998H1496.18V94.5H1502.18ZM1499.18 11H1581.68V4.99998H1499.18V11ZM1578.68 7.99998V358H1584.68V7.99998H1578.68ZM1581.68 355H1504.68V361H1581.68V355ZM1507.09 356.212L1315.59 98.212L1310.77 101.788L1502.27 359.788L1507.09 356.212ZM1312.77 102.972L1338.27 106.472L1339.09 100.528L1313.59 97.0278L1312.77 102.972ZM1335.7 103.811C1337.36 119.801 1338.69 133.451 1339.69 144.764L1345.67 144.236C1344.67 132.882 1343.33 119.199 1341.66 103.189L1335.7 103.811ZM1339.7 144.861C1341.03 155.829 1342.03 165.617 1342.69 174.23L1348.67 173.77C1348 165.05 1347 155.171 1345.66 144.139L1339.7 144.861ZM1342.7 174.344C1343.69 182.959 1344.35 190.724 1344.68 197.643L1350.68 197.357C1350.34 190.276 1349.67 182.374 1348.66 173.656L1342.7 174.344ZM1344.68 197.643C1345.01 204.595 1345.18 211.548 1345.18 218.5H1351.18C1351.18 211.452 1351.01 204.405 1350.68 197.357L1344.68 197.643ZM1345.18 218.65C1345.51 225.256 1345.68 232.705 1345.68 241H1351.68C1351.68 232.628 1351.51 225.077 1351.18 218.35L1345.18 218.65ZM1345.68 241V358H1351.68V241H1345.68ZM1348.68 355H1266.18V361H1348.68V355ZM1726 349.5L1724.89 352.288L1726 349.5ZM1667.5 311.5L1669.62 309.379L1667.5 311.5ZM1630 254L1627.2 255.085L1627.21 255.092L1627.21 255.1L1630 254ZM1630.5 110L1627.74 108.828L1627.73 108.839L1627.73 108.849L1630.5 110ZM1670 52.5L1672.08 54.6633L1670 52.5ZM1730 14.5L1728.92 11.701L1728.91 11.7036L1728.91 11.7063L1730 14.5ZM1860.5 8.49997L1859.65 11.3781L1859.66 11.3803L1859.67 11.3824L1860.5 8.49997ZM1907.5 29L1909.08 26.4492L1907.5 29ZM1943 59L1945.18 61.0604L1947.03 59.1026L1945.28 57.0531L1943 59ZM1891.5 113.5L1889.42 115.664L1891.6 117.758L1893.68 115.56L1891.5 113.5ZM1865.5 93.5L1863.93 96.055L1863.95 96.0681L1863.97 96.0809L1865.5 93.5ZM1837.5 81L1836.55 83.846L1836.59 83.8604L1836.64 83.8735L1837.5 81ZM1765 84L1763.81 81.2464L1763.8 81.2524L1763.78 81.2585L1765 84ZM1733 106.5L1730.84 104.416L1730.84 104.418L1733 106.5ZM1712 140L1714.79 141.101L1714.8 141.089L1714.8 141.077L1712 140ZM1712.5 223.5L1715.28 222.361L1712.5 223.5ZM1734.5 257.5L1732.34 259.584L1732.36 259.603L1732.38 259.621L1734.5 257.5ZM1767.5 280L1766.27 282.738L1766.32 282.758L1766.36 282.776L1767.5 280ZM1838 283L1836.99 280.175L1836.97 280.181L1836.96 280.187L1838 283ZM1862 269.5L1863.94 271.786L1862 269.5ZM1878 249.5L1880.66 250.888L1880.67 250.865L1880.68 250.842L1878 249.5ZM1884 211L1886.52 209.37L1881 200.841V211H1884ZM1895 228V231H1900.51L1897.52 226.37L1895 228ZM1798.5 228H1795.5V231H1798.5V228ZM1798.5 161.5V158.5H1795.5V161.5H1798.5ZM1963 161.5L1965.95 160.963L1965.5 158.5H1963V161.5ZM1964.5 176.5L1961.5 176.658L1964.5 176.5ZM1965 195H1962V195.083L1962 195.166L1965 195ZM1953 271L1950.25 269.795L1950.25 269.807L1950.24 269.818L1953 271ZM1919 319.5L1916.95 317.305L1919 319.5ZM1867 351.5L1868.07 354.301L1867 351.5ZM1802 360C1774.32 360 1749.37 355.553 1727.11 346.712L1724.89 352.288C1747.96 361.447 1773.68 366 1802 366V360ZM1727.11 346.712C1704.8 337.854 1685.65 325.407 1669.62 309.379L1665.38 313.621C1682.02 330.26 1701.87 343.146 1724.89 352.288L1727.11 346.712ZM1669.62 309.379C1653.59 293.343 1641.31 274.527 1632.79 252.9L1627.21 255.1C1636.02 277.473 1648.75 296.99 1665.38 313.621L1669.62 309.379ZM1632.8 252.915C1624.28 230.956 1620 207.161 1620 181.5H1614C1614 207.839 1618.39 232.377 1627.2 255.085L1632.8 252.915ZM1620 181.5C1620 155.852 1624.44 132.415 1633.27 111.151L1627.73 108.849C1618.56 130.918 1614 155.148 1614 181.5H1620ZM1633.26 111.172C1642.44 89.5397 1655.38 70.7117 1672.08 54.6633L1667.92 50.3367C1650.62 66.9549 1637.23 86.4603 1627.74 108.828L1633.26 111.172ZM1672.08 54.6633C1688.78 38.6156 1708.44 26.1572 1731.09 17.2937L1728.91 11.7063C1705.56 20.8428 1685.22 33.7177 1667.92 50.3367L1672.08 54.6633ZM1731.08 17.299C1754.04 8.44367 1779 3.99998 1806 3.99998V-2.00002C1778.33 -2.00002 1752.63 2.55628 1728.92 11.701L1731.08 17.299ZM1806 3.99998C1825.07 3.99998 1842.95 6.46592 1859.65 11.3781L1861.35 5.62187C1844.05 0.534035 1825.59 -2.00002 1806 -2.00002V3.99998ZM1859.67 11.3824C1876.76 16.3137 1892.17 23.0413 1905.92 31.5508L1909.08 26.4492C1894.83 17.6253 1878.9 10.6862 1861.33 5.6175L1859.67 11.3824ZM1905.92 31.5508C1919.68 40.0709 1931.27 49.8736 1940.72 60.9468L1945.28 57.0531C1935.39 45.4597 1923.32 35.2624 1909.08 26.4492L1905.92 31.5508ZM1940.82 56.9395L1889.32 111.44L1893.68 115.56L1945.18 61.0604L1940.82 56.9395ZM1893.58 111.336C1885.1 103.193 1876.25 96.3813 1867.03 90.9191L1863.97 96.0809C1872.75 101.285 1881.24 107.807 1889.42 115.664L1893.58 111.336ZM1867.07 90.945C1858.18 85.4716 1848.61 81.1994 1838.36 78.1265L1836.64 83.8735C1846.39 86.8006 1855.49 90.8617 1863.93 96.055L1867.07 90.945ZM1838.45 78.1539C1828.12 74.7112 1817.13 73 1805.5 73V79C1816.54 79 1826.88 80.6221 1836.55 83.846L1838.45 78.1539ZM1805.5 73C1790.46 73 1776.55 75.7362 1763.81 81.2464L1766.19 86.7536C1778.11 81.5972 1791.21 79 1805.5 79V73ZM1763.78 81.2585C1751.42 86.7523 1740.44 94.4785 1730.84 104.416L1735.16 108.584C1744.23 99.1881 1754.58 91.9144 1766.22 86.7414L1763.78 81.2585ZM1730.84 104.418C1721.54 114.061 1714.33 125.577 1709.2 138.923L1714.8 141.077C1719.67 128.423 1726.46 117.606 1735.16 108.582L1730.84 104.418ZM1709.21 138.898C1704.06 151.95 1701.5 166.161 1701.5 181.5H1707.5C1707.5 166.839 1709.94 153.383 1714.79 141.101L1709.21 138.898ZM1701.5 181.5C1701.5 196.864 1704.23 211.253 1709.72 224.639L1715.28 222.361C1710.1 209.747 1707.5 196.136 1707.5 181.5H1701.5ZM1709.72 224.639C1715.2 237.974 1722.73 249.632 1732.34 259.584L1736.66 255.416C1727.6 246.035 1720.47 235.026 1715.28 222.361L1709.72 224.639ZM1732.38 259.621C1741.98 269.226 1753.29 276.93 1766.27 282.738L1768.73 277.262C1756.38 271.736 1745.68 264.44 1736.62 255.379L1732.38 259.621ZM1766.36 282.776C1779.74 288.264 1793.96 291 1809 291V285C1794.71 285 1781.26 282.403 1768.64 277.224L1766.36 282.776ZM1809 291C1819.66 291 1829.68 289.279 1839.04 285.813L1836.96 280.187C1828.32 283.387 1819.01 285 1809 285V291ZM1839.01 285.825C1848.64 282.386 1856.97 277.716 1863.94 271.786L1860.06 267.214C1853.7 272.617 1846.03 276.947 1836.99 280.175L1839.01 285.825ZM1863.94 271.786C1870.9 265.872 1876.48 258.901 1880.66 250.888L1875.34 248.112C1871.52 255.432 1866.43 261.795 1860.06 267.214L1863.94 271.786ZM1880.68 250.842C1884.89 242.422 1887 233.463 1887 224H1881C1881 232.537 1879.11 240.578 1875.32 248.158L1880.68 250.842ZM1887 224V211H1881V224H1887ZM1881.48 212.63L1892.48 229.63L1897.52 226.37L1886.52 209.37L1881.48 212.63ZM1895 225H1798.5V231H1895V225ZM1801.5 228V161.5H1795.5V228H1801.5ZM1798.5 164.5H1963V158.5H1798.5V164.5ZM1960.05 162.037C1960.68 165.521 1961.17 170.377 1961.5 176.658L1967.5 176.342C1967.16 169.957 1966.65 164.812 1965.95 160.963L1960.05 162.037ZM1961.5 176.658C1961.83 182.941 1962 189.055 1962 195H1968C1968 188.945 1967.83 182.725 1967.5 176.342L1961.5 176.658ZM1962 195.166C1962.34 201.154 1962.5 205.586 1962.5 208.5H1968.5C1968.5 205.414 1968.33 200.846 1968 194.834L1962 195.166ZM1962.5 208.5C1962.5 230.791 1958.4 251.209 1950.25 269.795L1955.75 272.205C1964.26 252.791 1968.5 231.543 1968.5 208.5H1962.5ZM1950.24 269.818C1942.4 288.107 1931.31 303.927 1916.95 317.305L1921.05 321.695C1936.02 307.74 1947.6 291.227 1955.76 272.182L1950.24 269.818ZM1916.95 317.305C1902.59 330.692 1885.59 341.16 1865.93 348.699L1868.07 354.301C1888.41 346.506 1906.08 335.642 1921.05 321.695L1916.95 317.305ZM1865.93 348.699C1846.3 356.223 1825 360 1802 360V366C1825.67 366 1847.7 362.111 1868.07 354.301L1865.93 348.699Z" fill="url(#paint0_linear_1005_105)" fill-opacity="0.21"/>
<defs>
<linearGradient id="paint0_linear_1005_105" x1="960" y1="-80" x2="951.867" y2="436.145" gradientUnits="userSpaceOnUse">
<stop stop-color="white"/>
<stop offset="1" stop-color="white" stop-opacity="0"/>
</linearGradient>
</defs>
</svg>
