<svg width="1909" height="410" viewBox="0 0 1909 410" fill="none" xmlns="http://www.w3.org/2000/svg">
<mask id="mask0_1443_203" style="mask-type:luminance" maskUnits="userSpaceOnUse" x="2" y="2" width="1867" height="328">
<path d="M1869 2H2V330H1869V2Z" fill="white"/>
</mask>
<g mask="url(#mask0_1443_203)">
<path d="M165.702 329.501C142.002 329.501 120.102 325.601 100.002 317.801C80.2016 309.701 62.9516 298.451 48.2516 284.051C33.5516 269.351 22.1516 252.101 14.0516 232.301C6.25156 212.201 2.35156 190.151 2.35156 166.151C2.35156 142.751 6.55156 121.151 14.9516 101.351C23.3516 81.5508 34.9016 64.4508 49.6016 50.0508C64.6016 35.3508 82.1516 23.9508 102.252 15.8508C122.652 7.75077 144.852 3.70077 168.852 3.70077C183.852 3.70077 198.552 5.65077 212.952 9.55077C227.352 13.4508 240.702 19.3008 253.002 27.1008C265.602 34.6008 276.402 43.6008 285.402 54.1008L238.602 107.651C232.302 101.051 225.552 95.3508 218.352 90.5508C211.452 85.4508 203.802 81.5508 195.402 78.8508C187.002 76.1508 178.002 74.8008 168.402 74.8008C156.402 74.8008 145.002 77.0508 134.202 81.5508C123.702 85.7508 114.402 91.9008 106.302 100.001C98.5016 107.801 92.3516 117.401 87.8516 128.801C83.3516 140.201 81.1016 152.951 81.1016 167.051C81.1016 180.851 83.3516 193.451 87.8516 204.851C92.3516 215.951 98.6516 225.551 106.752 233.651C114.852 241.751 124.602 247.901 136.002 252.101C147.702 256.301 160.602 258.401 174.702 258.401C184.302 258.401 193.452 257.051 202.152 254.351C210.852 251.651 218.802 248.051 226.002 243.551C233.502 238.751 240.102 233.351 245.802 227.351L282.702 285.851C275.202 294.251 265.152 301.751 252.552 308.351C240.252 314.951 226.452 320.201 211.152 324.101C196.152 327.701 181.002 329.501 165.702 329.501ZM462.853 329.501C438.853 329.501 416.953 325.451 397.153 317.351C377.353 309.251 360.103 297.851 345.403 283.151C330.703 268.451 319.303 251.201 311.203 231.401C303.103 211.601 299.053 189.851 299.053 166.151C299.053 142.451 303.103 120.701 311.203 100.901C319.303 81.1008 330.703 63.8508 345.403 49.1508C360.103 34.4508 377.353 23.0508 397.153 14.9508C416.953 6.85078 438.703 2.80078 462.403 2.80078C486.103 2.80078 507.853 6.85078 527.653 14.9508C547.453 23.0508 564.703 34.4508 579.403 49.1508C594.103 63.8508 605.353 81.1008 613.153 100.901C621.253 120.701 625.303 142.451 625.303 166.151C625.303 189.551 621.253 211.301 613.153 231.401C605.353 251.201 594.103 268.451 579.403 283.151C564.703 297.851 547.453 309.251 527.653 317.351C507.853 325.451 486.253 329.501 462.853 329.501ZM462.403 257.501C474.703 257.501 485.953 255.251 496.153 250.751C506.653 246.251 515.653 239.951 523.153 231.851C530.953 223.451 536.953 213.701 541.153 202.601C545.353 191.501 547.453 179.351 547.453 166.151C547.453 152.951 545.353 140.801 541.153 129.701C536.953 118.601 530.953 109.001 523.153 100.901C515.653 92.5008 506.653 86.0508 496.153 81.5508C485.953 77.0508 474.703 74.8008 462.403 74.8008C450.103 74.8008 438.703 77.0508 428.203 81.5508C418.003 86.0508 409.003 92.5008 401.203 100.901C393.403 109.001 387.403 118.601 383.203 129.701C379.303 140.801 377.353 152.951 377.353 166.151C377.353 179.351 379.303 191.651 383.203 203.051C387.403 214.151 393.403 223.751 401.203 231.851C409.003 239.951 418.003 246.251 428.203 250.751C438.703 255.251 450.103 257.501 462.403 257.501ZM668.739 325.001V10.0008H800.589C823.689 10.0008 844.839 13.9008 864.039 21.7008C883.239 29.2008 899.739 40.0008 913.539 54.1008C927.639 68.2008 938.439 84.8508 945.939 104.051C953.439 123.251 957.189 144.401 957.189 167.501C957.189 190.601 953.439 211.901 945.939 231.401C938.439 250.601 927.639 267.251 913.539 281.351C899.739 295.151 883.239 305.951 864.039 313.751C844.839 321.251 823.689 325.001 800.589 325.001H668.739ZM745.239 272.801L734.889 257.501H798.339C810.939 257.501 822.189 255.401 832.089 251.201C841.989 246.701 850.389 240.551 857.289 232.751C864.489 224.951 870.039 215.501 873.939 204.401C877.839 193.301 879.789 181.001 879.789 167.501C879.789 154.001 877.839 141.701 873.939 130.601C870.039 119.501 864.489 110.051 857.289 102.251C850.389 94.4508 841.989 88.4508 832.089 84.2508C822.189 79.7508 810.939 77.5008 798.339 77.5008H733.539L745.239 63.1008V272.801ZM987.704 325.001V260.651H1040.8V74.3508H987.704V10.0008H1170.85V74.3508H1117.3V260.651H1170.85V325.001H987.704ZM1227.86 325.001V10.0008H1296.26L1461.41 235.001L1446.56 232.751C1445.06 222.851 1443.86 213.401 1442.96 204.401C1442.06 195.401 1441.16 186.551 1440.26 177.851C1439.66 169.151 1439.06 160.301 1438.46 151.301C1438.16 142.301 1437.86 132.551 1437.56 122.051C1437.56 111.551 1437.56 100.151 1437.56 87.8508V10.0008H1511.81V325.001H1442.51L1270.16 92.8008L1293.11 95.9508C1294.61 110.351 1295.81 122.651 1296.71 132.851C1297.91 142.751 1298.81 151.601 1299.41 159.401C1300.31 167.201 1300.91 174.251 1301.21 180.551C1301.51 186.851 1301.66 193.151 1301.66 199.451C1301.96 205.451 1302.11 212.201 1302.11 219.701V325.001H1227.86ZM1721.35 329.501C1696.15 329.501 1673.35 325.451 1652.95 317.351C1632.55 309.251 1615 297.851 1600.3 283.151C1585.6 268.451 1574.35 251.201 1566.55 231.401C1558.75 211.301 1554.85 189.551 1554.85 166.151C1554.85 142.751 1558.9 121.301 1567 101.801C1575.4 82.0008 1587.25 64.7508 1602.55 50.0508C1617.85 35.3508 1635.85 23.9508 1656.55 15.8508C1677.55 7.75077 1700.35 3.70077 1724.95 3.70077C1742.35 3.70077 1758.7 5.95077 1774 10.4508C1789.6 14.9508 1803.7 21.1008 1816.3 28.9008C1828.9 36.7008 1839.55 45.7008 1848.25 55.9008L1801.9 104.951C1794.4 97.7508 1786.6 91.7508 1778.5 86.9508C1770.7 82.1508 1762.3 78.4008 1753.3 75.7008C1744.3 72.7008 1734.7 71.2008 1724.5 71.2008C1711.3 71.2008 1699.15 73.6008 1688.05 78.4008C1677.25 83.2008 1667.65 89.9508 1659.25 98.6508C1651.15 107.051 1644.85 117.101 1640.35 128.801C1635.85 140.201 1633.6 152.651 1633.6 166.151C1633.6 179.651 1636 192.251 1640.8 203.951C1645.6 215.651 1652.2 225.851 1660.6 234.551C1669 242.951 1678.9 249.701 1690.3 254.801C1702 259.601 1714.45 262.001 1727.65 262.001C1736.95 262.001 1745.65 260.501 1753.75 257.501C1762.15 254.501 1769.35 250.451 1775.35 245.351C1781.35 240.251 1786.15 234.251 1789.75 227.351C1793.35 220.151 1795.15 212.501 1795.15 204.401V192.701L1805.05 208.001H1718.2V148.151H1866.25C1866.85 151.451 1867.3 155.951 1867.6 161.651C1867.9 167.351 1868.05 172.901 1868.05 178.301C1868.35 183.701 1868.5 187.751 1868.5 190.451C1868.5 210.851 1864.75 229.601 1857.25 246.701C1850.05 263.501 1839.85 278.051 1826.65 290.351C1813.45 302.651 1797.85 312.251 1779.85 319.151C1761.85 326.051 1742.35 329.501 1721.35 329.501Z" fill="white"/>
</g>
</svg>
