<svg width="1442" height="201" viewBox="0 0 1442 201" fill="none" xmlns="http://www.w3.org/2000/svg">
<g clip-path="url(#clip0_1095_21)">
<path fill-rule="evenodd" clip-rule="evenodd" d="M1362.03 2.23333H1299.31L1347.66 29.1207H1416.42L1362.03 2.23333ZM1231.97 2.23333H1295.17L1343.52 29.1207H1274.27L1231.97 2.23333ZM1228.32 2.23333H1164.63L1200.89 29.1207H1270.62L1228.32 2.23333ZM1097.32 2.23333H1161.46L1197.72 29.1207H1127.54L1097.32 2.23333ZM1094.62 2.23333H1029.99L1054.16 29.1207H1124.84L1094.62 2.23333ZM962.673 2.23333H1027.75L1051.92 29.1207H980.803L962.673 2.23333ZM960.865 2.23333H895.375L907.463 29.1207H978.996L960.865 2.23333ZM828.151 2.23333H893.958L906.046 29.1207H834.194L828.151 2.23333ZM827.032 2.23333H760.997V29.1207H833.075L827.032 2.23333ZM693.955 2.23333H759.997V29.1207H687.913L693.955 2.23333ZM692.836 2.23333H627.002L614.917 29.1207H686.794L692.836 2.23333ZM560.128 2.23333H625.585L613.5 29.1207H541.997L560.128 2.23333ZM558.32 2.23333H493.244L469.071 29.1207H540.19L558.32 2.23333ZM426.372 2.23333H491.001L466.828 29.1207H396.156L426.372 2.23333ZM423.67 2.23333H359.506L323.248 29.1207H393.454L423.67 2.23333ZM292.676 2.23333H356.333L320.074 29.1207H250.372L292.676 2.23333ZM289.023 2.23333H225.817L177.471 29.1207H246.719L289.023 2.23333ZM158.964 2.23333H221.679L173.332 29.1207H104.575L158.964 2.23333ZM154.337 2.23333H92.0593V0H1428.91V2.23333H1366.66L1421.05 29.1207H1494.44V31.354H1425.57L1492.92 64.649H1574.18V66.8823H1497.43L1582.17 108.772H1673.37V111.006H1586.69L1696.27 165.175H1800.12V167.408H1700.78L1847.07 239.726H1967.75V241.959H1851.59L2056 343.009L2055.78 345.188L1846.96 241.959H1730.37L1912.08 343.015L1911.83 345.182L1726.23 241.959H1609.15L1768.16 343.024L1767.89 345.173L1605.49 241.959H1487.93L1624.25 343.04L1623.94 345.159L1484.76 241.959H1366.72L1480.34 343.062L1479.97 345.137L1364.02 241.959H1245.52L1336.45 343.1L1336 345.099L1243.27 241.959H1124.32L1192.57 343.17L1192.02 345.03L1122.51 241.959H1003.15L1048.71 343.308L1048.01 344.889L1001.73 241.959H882.028L904.87 343.598L903.977 344.599L880.909 241.959H760.997V344.099H759.997V241.959H640.078L617.01 344.599L616.116 343.598L638.959 241.959H519.249L472.982 344.889L472.277 343.308L517.832 241.959H398.478L328.976 345.03L328.423 343.17L396.67 241.959H277.717L184.989 345.099L184.543 343.1L275.474 241.959H156.968L41.0178 345.137L40.6476 343.062L154.267 241.959H36.226L-102.943 345.159L-103.258 343.04L33.0525 241.959H-84.4999L-246.894 345.173L-247.167 343.024L-88.1539 241.959H-205.236L-390.843 345.182L-391.085 343.015L-209.375 241.959H-325.966L-534.786 345.188L-535.002 343.009L-330.593 241.959H-446.757V239.726H-326.076L-179.788 167.408H-279.156V165.175H-175.271L-65.6939 111.006H-152.406V108.772H-61.1769L23.5615 66.8823H-53.1868V64.649H28.0792L95.4301 31.354H26.5515V29.1207H99.9478L154.337 2.23333ZM100.057 31.354L32.7062 64.649H109.449L169.317 31.354H100.057ZM28.1885 66.8823L-56.5493 108.772H30.1095L105.433 66.8823H28.1885ZM-61.067 111.006L-170.644 165.175H-71.3089L26.0937 111.006H-61.067ZM-175.161 167.408L-321.449 239.726H-205.359L-75.3239 167.408H-175.161ZM113.587 64.649L173.455 31.354H243.205L190.82 64.649H113.587ZM34.2479 108.772L109.571 66.8823H187.306L121.398 108.772H34.2479ZM-67.1699 165.175L30.2321 111.006H117.884L32.6556 165.175H-67.1699ZM-201.22 239.726L-71.1859 167.408H29.1418L-84.64 239.726H-201.22ZM246.859 31.354L194.473 64.649H272.163L317.062 31.354H246.859ZM190.96 66.8823L125.051 108.772H212.66L269.151 66.8823H190.96ZM121.537 111.006L36.309 165.175H136.599L209.648 111.006H121.537ZM32.7951 167.408L-80.9869 239.726H36.0643L133.587 167.408H32.7951ZM275.336 64.649L320.236 31.354H390.945L353.528 64.649H275.336ZM215.834 108.772L272.324 66.8823H351.018L303.942 108.772H215.834ZM139.772 165.175L212.822 111.006H301.432L240.556 165.175H139.772ZM39.2377 239.726L136.761 167.408H238.047L156.776 239.726H39.2377ZM393.646 31.354L356.229 64.649H434.886L464.82 31.354H393.646ZM353.72 66.8823L306.643 108.772H395.216L432.878 66.8823H353.72ZM304.133 111.006L243.258 165.175H344.507L393.208 111.006H304.133ZM240.748 167.408L159.478 239.726H277.482L342.499 167.408H240.748ZM437.129 64.649L467.063 31.354H538.684L516.232 64.649H437.129ZM397.459 108.772L435.121 66.8823H514.726L486.479 108.772H397.459ZM346.75 165.175L395.451 111.006H484.973L448.446 165.175H346.75ZM279.725 239.726L344.742 167.408H446.94L398.176 239.726H279.725ZM540.491 31.354L518.04 64.649H597.53L612.496 31.354H540.491ZM516.534 66.8823L488.287 108.772H577.697L596.526 66.8823H516.534ZM486.781 111.006L450.254 165.175H552.345L576.693 111.006H486.781ZM448.748 167.408L399.984 239.726H518.835L551.341 167.408H448.748ZM598.947 64.649L613.913 31.354H686.292L678.809 64.649H598.947ZM579.114 108.772L597.943 66.8823H678.307L668.892 108.772H579.114ZM553.762 165.175L578.11 111.006H668.39L656.216 165.175H553.762ZM520.252 239.726L552.758 167.408H655.714L639.461 239.726H520.252ZM687.411 31.354L679.928 64.649H759.997V31.354H687.411ZM679.426 66.8823L670.011 108.772H759.997V66.8823H679.426ZM669.509 111.006L657.335 165.175H759.997V111.006H669.509ZM656.833 167.408L640.58 239.726H759.997V167.408H656.833ZM760.997 64.649V31.354H833.577L841.059 64.649H760.997ZM760.997 108.772V66.8823H841.561L850.976 108.772H760.997ZM760.997 165.175V111.006H851.478L863.652 165.175H760.997ZM760.997 239.726V167.408H864.154L880.407 239.726H760.997ZM834.696 31.354L842.178 64.649H922.018L907.05 31.354H834.696ZM842.68 66.8823L852.095 108.772H941.855L923.022 66.8823H842.68ZM852.597 111.006L864.771 165.175H967.212L942.859 111.006H852.597ZM865.273 167.408L881.526 239.726H1000.73L968.216 167.408H865.273ZM923.435 64.649L908.467 31.354H980.502L1002.95 64.649H923.435ZM943.272 108.772L924.439 66.8823H1004.46L1032.71 108.772H943.272ZM968.629 165.175L944.276 111.006H1034.21L1070.74 165.175H968.629ZM1002.14 239.726L969.633 167.408H1072.24L1121.01 239.726H1002.14ZM982.309 31.354L1004.76 64.649H1083.86L1053.93 31.354H982.309ZM1006.27 66.8823L1034.51 108.772H1123.53L1085.87 66.8823H1006.27ZM1036.02 111.006L1072.55 165.175H1174.24L1125.54 111.006H1036.02ZM1074.05 167.408L1122.82 239.726H1241.26L1176.25 167.408H1074.05ZM1086.1 64.649L1056.17 31.354H1127.35L1164.76 64.649H1086.1ZM1125.77 108.772L1088.11 66.8823H1167.27L1214.35 108.772H1125.77ZM1176.48 165.175L1127.78 111.006H1216.86L1277.73 165.175H1176.48ZM1243.51 239.726L1178.49 167.408H1280.24L1361.51 239.726H1243.51ZM1130.05 31.354L1167.46 64.649H1245.63L1200.73 31.354H1130.05ZM1169.97 66.8823L1217.05 108.772H1305.14L1248.65 66.8823H1169.97ZM1219.56 111.006L1280.43 165.175H1381.21L1308.15 111.006H1219.56ZM1282.94 167.408L1364.21 239.726H1481.75L1384.22 167.408H1282.94ZM1248.81 64.649L1203.91 31.354H1274.13L1326.52 64.649H1248.81ZM1308.31 108.772L1251.82 66.8823H1330.03L1395.94 108.772H1308.31ZM1384.38 165.175L1311.33 111.006H1399.46L1484.68 165.175H1384.38ZM1484.92 239.726L1387.39 167.408H1488.2L1601.98 239.726H1484.92ZM1277.79 31.354L1330.17 64.649H1407.4L1347.54 31.354H1277.79ZM1333.69 66.8823L1399.6 108.772H1486.74L1411.42 66.8823H1333.69ZM1403.11 111.006L1488.34 165.175H1588.16L1490.76 111.006H1403.11ZM1491.85 167.408L1605.63 239.726H1722.21L1592.18 167.408H1491.85ZM1411.54 64.649L1351.67 31.354H1420.94L1488.29 64.649H1411.54ZM1490.88 108.772L1415.56 66.8823H1492.81L1577.55 108.772H1490.88ZM1592.3 165.175L1494.9 111.006H1582.06L1691.64 165.175H1592.3ZM1726.35 239.726L1596.32 167.408H1696.16L1842.44 239.726H1726.35Z" fill="url(#paint0_radial_1095_21)"/>
</g>
<defs>
<radialGradient id="paint0_radial_1095_21" cx="0" cy="0" r="1" gradientUnits="userSpaceOnUse" gradientTransform="translate(718 -29.5) rotate(89.4482) scale(311.514 695.715)">
<stop stop-color="#306BFF" stop-opacity="0"/>
<stop offset="0.5625" stop-color="#306BFF" stop-opacity="0.26"/>
<stop offset="0.911634" stop-color="#050810" stop-opacity="0.13"/>
</radialGradient>
<clipPath id="clip0_1095_21">
<rect width="1442" height="201" fill="white"/>
</clipPath>
</defs>
</svg>
