<svg width="680" height="680" viewBox="0 0 680 680" fill="none" xmlns="http://www.w3.org/2000/svg">
<circle cx="340" cy="340" r="339" stroke="url(#paint0_linear_1105_26)" stroke-width="2" stroke-linecap="round" stroke-dasharray="9 9"/>
<path d="M592.342 327.086C592.456 329.415 592.538 331.753 592.589 334.098C592.038 334.109 591.599 334.564 591.608 335.116C591.635 336.617 591.648 338.122 591.648 339.63C591.648 341.138 591.635 342.643 591.608 344.144C591.599 344.696 592.038 345.151 592.589 345.162C592.538 347.507 592.456 349.845 592.342 352.174C591.792 352.146 591.322 352.569 591.293 353.12C591.134 356.128 590.922 359.122 590.659 362.102C590.61 362.651 591.016 363.136 591.565 363.186C591.349 365.526 591.1 367.857 590.821 370.179C590.273 370.112 589.775 370.5 589.707 371.048C589.336 374.03 588.912 376.996 588.438 379.945C588.35 380.49 588.72 381.002 589.264 381.091C588.882 383.408 588.468 385.714 588.023 388.01C587.482 387.904 586.957 388.256 586.85 388.797C586.266 391.747 585.63 394.679 584.944 397.592C584.817 398.129 585.149 398.667 585.686 398.794C585.138 401.077 584.56 403.347 583.951 405.605C583.419 405.46 582.87 405.774 582.724 406.306C581.931 409.201 581.087 412.076 580.194 414.929C580.03 415.456 580.322 416.016 580.848 416.182C580.137 418.42 579.397 420.646 578.626 422.857C578.106 422.674 577.535 422.947 577.352 423.468C576.352 426.3 575.302 429.109 574.205 431.894C574.003 432.408 574.254 432.988 574.767 433.191C573.898 435.369 573 437.533 572.073 439.682C571.567 439.462 570.979 439.694 570.759 440.199C569.559 442.95 568.311 445.676 567.017 448.375C566.778 448.872 566.987 449.468 567.484 449.708C566.461 451.82 565.409 453.915 564.329 455.994C563.84 455.739 563.237 455.928 562.981 456.416C561.587 459.074 560.146 461.704 558.661 464.305C558.387 464.784 558.553 465.394 559.032 465.668C557.861 467.7 556.663 469.713 555.438 471.708C554.969 471.419 554.353 471.564 554.063 472.033C552.483 474.584 550.859 477.104 549.191 479.593C548.884 480.051 549.006 480.671 549.464 480.979C548.151 482.922 546.812 484.846 545.447 486.75C544.999 486.428 544.375 486.529 544.052 486.976C542.295 489.407 540.495 491.806 538.654 494.17C538.315 494.606 538.393 495.233 538.827 495.573C537.38 497.416 535.908 499.24 534.411 501.042C533.988 500.689 533.358 500.745 533.004 501.168C531.079 503.467 529.114 505.732 527.109 507.961C526.74 508.371 526.773 509.002 527.182 509.372C525.608 511.108 524.01 512.823 522.389 514.515C521.991 514.132 521.359 514.144 520.976 514.541C518.893 516.697 516.772 518.817 514.614 520.898C514.217 521.281 514.205 521.913 514.587 522.311C512.894 523.931 511.179 525.528 509.441 527.101C509.072 526.691 508.441 526.658 508.03 527.027C505.8 529.03 503.534 530.994 501.233 532.917C500.81 533.271 500.753 533.901 501.106 534.324C499.303 535.82 497.479 537.291 495.634 538.737C495.295 538.302 494.667 538.224 494.232 538.562C491.866 540.402 489.466 542.2 487.034 543.955C486.587 544.278 486.485 544.902 486.807 545.35C484.902 546.714 482.978 548.052 481.034 549.363C480.726 548.906 480.106 548.783 479.648 549.09C477.158 550.756 474.636 552.378 472.085 553.957C471.615 554.247 471.47 554.862 471.759 555.332C469.763 556.556 467.749 557.752 465.717 558.922C465.443 558.443 464.833 558.277 464.354 558.55C461.752 560.034 459.121 561.473 456.462 562.866C455.974 563.121 455.785 563.725 456.04 564.214C453.96 565.292 451.864 566.343 449.752 567.365C449.512 566.868 448.916 566.659 448.419 566.897C445.719 568.19 442.993 569.436 440.241 570.635C439.735 570.855 439.504 571.443 439.723 571.949C437.574 572.875 435.41 573.772 433.231 574.64C433.028 574.127 432.448 573.875 431.935 574.077C429.149 575.173 426.339 576.221 423.506 577.22C422.986 577.404 422.713 577.973 422.895 578.494C420.683 579.264 418.458 580.004 416.219 580.713C416.053 580.187 415.493 579.895 414.967 580.059C412.113 580.951 409.238 581.794 406.342 582.586C405.81 582.731 405.496 583.28 405.641 583.812C403.383 584.42 401.112 584.998 398.83 585.545C398.702 585.008 398.165 584.676 397.628 584.802C394.715 585.488 391.783 586.123 388.832 586.706C388.291 586.813 387.939 587.338 388.045 587.879C385.749 588.323 383.442 588.737 381.125 589.118C381.037 588.574 380.524 588.204 379.98 588.292C377.031 588.766 374.065 589.188 371.082 589.559C370.535 589.627 370.146 590.126 370.213 590.673C367.892 590.952 365.56 591.2 363.22 591.416C363.17 590.867 362.686 590.461 362.136 590.51C359.157 590.773 356.162 590.984 353.154 591.143C352.603 591.172 352.18 591.642 352.208 592.192C349.878 592.306 347.541 592.388 345.196 592.439C345.185 591.887 344.73 591.449 344.178 591.458C342.677 591.485 341.172 591.498 339.664 591.498C338.156 591.498 336.651 591.485 335.149 591.458C334.598 591.449 334.143 591.887 334.132 592.439C331.787 592.388 329.449 592.306 327.12 592.192C327.148 591.642 326.725 591.172 326.174 591.143C323.165 590.984 320.171 590.773 317.192 590.51C316.642 590.461 316.157 590.867 316.108 591.416C313.767 591.2 311.436 590.952 309.115 590.673C309.182 590.126 308.793 589.627 308.245 589.559C305.263 589.188 302.297 588.766 299.348 588.292C298.803 588.204 298.291 588.574 298.202 589.118C295.885 588.737 293.579 588.323 291.283 587.879C291.389 587.338 291.037 586.813 290.496 586.706C287.545 586.122 284.613 585.488 281.7 584.802C281.163 584.676 280.625 585.008 280.498 585.545C278.215 584.998 275.945 584.42 273.687 583.812C273.831 583.28 273.518 582.731 272.986 582.586C270.09 581.794 267.214 580.951 264.361 580.059C263.834 579.895 263.274 580.187 263.109 580.713C260.87 580.004 258.644 579.264 256.433 578.494C256.615 577.973 256.342 577.404 255.821 577.22C252.988 576.221 250.179 575.173 247.393 574.077C246.88 573.875 246.3 574.127 246.097 574.64C243.918 573.772 241.754 572.875 239.605 571.949C239.824 571.443 239.592 570.855 239.087 570.635C236.335 569.436 233.609 568.19 230.909 566.897C230.412 566.659 229.815 566.868 229.576 567.365C227.464 566.343 225.367 565.292 223.288 564.214C223.543 563.725 223.354 563.121 222.865 562.865C220.207 561.473 217.576 560.034 214.974 558.55C214.495 558.277 213.885 558.443 213.611 558.922C211.579 557.752 209.565 556.555 207.569 555.332C207.858 554.862 207.712 554.247 207.243 553.957C204.692 552.378 202.17 550.756 199.68 549.09C199.222 548.783 198.602 548.906 198.294 549.363C196.35 548.052 194.425 546.714 192.52 545.35C192.842 544.902 192.741 544.278 192.294 543.955C189.861 542.2 187.462 540.402 185.096 538.562C184.66 538.224 184.033 538.302 183.694 538.737C181.849 537.291 180.025 535.82 178.222 534.324C178.575 533.901 178.518 533.271 178.095 532.917C175.794 530.994 173.528 529.03 171.298 527.027C170.887 526.658 170.256 526.691 169.887 527.101C168.149 525.528 166.434 523.931 164.741 522.311C165.123 521.913 165.111 521.281 164.714 520.898C162.556 518.817 160.434 516.697 158.352 514.541C157.968 514.144 157.336 514.132 156.939 514.515C155.318 512.823 153.72 511.108 152.146 509.372C152.555 509.002 152.588 508.371 152.219 507.961C150.214 505.732 148.249 503.467 146.324 501.168C145.969 500.745 145.34 500.689 144.916 501.042C143.42 499.24 141.948 497.416 140.5 495.573C140.935 495.233 141.013 494.606 140.674 494.17C138.833 491.806 137.033 489.407 135.276 486.976C134.953 486.529 134.329 486.428 133.881 486.75C132.516 484.846 131.177 482.922 129.864 480.979C130.322 480.671 130.444 480.051 130.137 479.593C128.469 477.104 126.845 474.584 125.265 472.033C124.975 471.564 124.359 471.419 123.89 471.708C122.665 469.713 121.467 467.7 120.296 465.668C120.774 465.394 120.94 464.784 120.667 464.305C119.182 461.704 117.741 459.074 116.347 456.416C116.091 455.928 115.488 455.739 114.999 455.994C113.919 453.915 112.867 451.82 111.844 449.708C112.34 449.468 112.55 448.872 112.311 448.375C111.017 445.676 109.769 442.95 108.569 440.199C108.349 439.694 107.76 439.462 107.254 439.682C106.327 437.533 105.429 435.369 104.561 433.191C105.073 432.988 105.325 432.408 105.123 431.894C104.025 429.109 102.976 426.3 101.976 423.467C101.792 422.947 101.222 422.674 100.702 422.857C99.9312 420.646 99.1903 418.42 98.4798 416.182C99.0056 416.016 99.2982 415.456 99.1335 414.929C98.2404 412.076 97.3967 409.201 96.6035 406.306C96.4577 405.773 95.9088 405.46 95.3767 405.605C94.7678 403.347 94.1895 401.076 93.6421 398.794C94.1785 398.667 94.5107 398.129 94.3842 397.592C93.6979 394.679 93.0622 391.747 92.4781 388.797C92.371 388.256 91.846 387.904 91.3049 388.01C90.86 385.714 90.4461 383.408 90.0637 381.091C90.6079 381.002 90.9778 380.489 90.8902 379.945C90.4156 376.996 89.9922 374.03 89.6209 371.048C89.5528 370.5 89.0543 370.112 88.507 370.179C88.2274 367.857 87.9792 365.526 87.7629 363.186C88.312 363.136 88.7175 362.651 88.6689 362.102C88.4054 359.122 88.1937 356.128 88.0349 353.12C88.0058 352.569 87.5362 352.146 86.9855 352.174C86.8717 349.844 86.7894 347.507 86.739 345.161C87.2903 345.151 87.729 344.696 87.7193 344.144C87.6929 342.642 87.6797 341.138 87.6797 339.63C87.6797 338.122 87.6929 336.617 87.7193 335.115C87.729 334.564 87.2903 334.109 86.739 334.098C86.7894 331.753 86.8717 329.415 86.9855 327.086C87.5362 327.114 88.0058 326.691 88.0349 326.14C88.1937 323.131 88.4054 320.137 88.6689 317.158C88.7175 316.608 88.312 316.123 87.7629 316.074C87.9792 313.733 88.2274 311.402 88.5071 309.081C89.0543 309.148 89.5528 308.759 89.621 308.212C89.9922 305.229 90.4156 302.263 90.8902 299.315C90.9779 298.77 90.608 298.257 90.0638 298.169C90.4461 295.852 90.86 293.545 91.3049 291.25C91.846 291.356 92.371 291.004 92.4781 290.463C93.0623 287.512 93.6979 284.58 94.3842 281.668C94.5107 281.131 94.1785 280.593 93.6421 280.465C94.1895 278.183 94.7679 275.913 95.3767 273.655C95.9088 273.799 96.4577 273.486 96.6035 272.954C97.3967 270.058 98.2404 267.183 99.1335 264.33C99.2983 263.804 99.0057 263.243 98.4798 263.078C99.1904 260.839 99.9313 258.614 100.702 256.403C101.222 256.585 101.792 256.312 101.976 255.792C102.976 252.959 104.025 250.15 105.123 247.365C105.325 246.852 105.073 246.272 104.561 246.069C105.429 243.89 106.328 241.726 107.255 239.578C107.76 239.797 108.349 239.566 108.569 239.06C109.769 236.309 111.017 233.584 112.311 230.885C112.55 230.388 112.341 229.791 111.844 229.552C112.867 227.44 113.919 225.344 114.999 223.265C115.488 223.521 116.091 223.332 116.347 222.843C117.741 220.185 119.182 217.555 120.667 214.954C120.94 214.475 120.774 213.866 120.296 213.591C121.467 211.56 122.665 209.546 123.89 207.551C124.359 207.841 124.975 207.695 125.265 207.227C126.845 204.676 128.469 202.156 130.137 199.667C130.444 199.208 130.322 198.588 129.864 198.28C131.177 196.337 132.516 194.413 133.881 192.509C134.329 192.831 134.953 192.731 135.276 192.283C137.033 189.852 138.833 187.454 140.674 185.089C141.013 184.654 140.935 184.027 140.5 183.687C141.948 181.843 143.42 180.02 144.916 178.218C145.34 178.571 145.969 178.515 146.324 178.092C148.249 175.792 150.214 173.527 152.219 171.299C152.588 170.888 152.555 170.257 152.146 169.888C153.72 168.151 155.318 166.437 156.939 164.745C157.336 165.127 157.968 165.116 158.352 164.719C160.435 162.562 162.556 160.443 164.714 158.361C165.111 157.978 165.123 157.346 164.741 156.949C166.434 155.329 168.149 153.732 169.887 152.159C170.256 152.568 170.887 152.602 171.298 152.233C173.528 150.23 175.794 148.266 178.095 146.342C178.518 145.988 178.575 145.359 178.222 144.935C180.025 143.44 181.849 141.969 183.694 140.523C184.033 140.958 184.66 141.036 185.096 140.697C187.462 138.858 189.862 137.06 192.294 135.304C192.741 134.981 192.842 134.357 192.52 133.91C194.425 132.546 196.35 131.208 198.294 129.896C198.602 130.354 199.222 130.476 199.68 130.17C202.17 128.504 204.692 126.881 207.243 125.303C207.712 125.012 207.858 124.397 207.569 123.928C209.565 122.704 211.579 121.507 213.611 120.338C213.885 120.816 214.495 120.983 214.974 120.709C217.576 119.225 220.207 117.787 222.865 116.394C223.354 116.138 223.543 115.535 223.288 115.046C225.367 113.967 227.464 112.917 229.576 111.894C229.815 112.391 230.412 112.601 230.909 112.363C233.609 111.07 236.335 109.823 239.087 108.625C239.592 108.404 239.824 107.816 239.605 107.31C241.754 106.384 243.918 105.487 246.097 104.62C246.3 105.133 246.88 105.384 247.393 105.182C250.179 104.086 252.988 103.038 255.821 102.039C256.342 101.856 256.615 101.286 256.433 100.766C258.644 99.9959 260.87 99.2559 263.109 98.5462C263.274 99.0721 263.835 99.365 264.361 99.2004C267.214 98.3085 270.09 97.4659 272.986 96.6736C273.518 96.5281 273.831 95.9792 273.687 95.4471C275.945 94.8391 278.216 94.2615 280.498 93.7148C280.625 94.2512 281.163 94.5836 281.7 94.4572C284.613 93.7719 287.545 93.137 290.496 92.5537C291.037 92.4467 291.389 91.9218 291.283 91.3807C293.579 90.9363 295.885 90.523 298.203 90.1412C298.291 90.6854 298.804 91.0554 299.348 90.9678C302.297 90.4939 305.263 90.0711 308.246 89.7003C308.793 89.6323 309.182 89.1339 309.115 88.5866C311.436 88.3073 313.767 88.0594 316.108 87.8434C316.157 88.3926 316.642 88.7981 317.192 88.7496C320.171 88.4864 323.166 88.2751 326.174 88.1164C326.725 88.0874 327.148 87.6178 327.12 87.0671C329.449 86.9535 331.787 86.8713 334.132 86.821C334.143 87.3723 334.598 87.811 335.15 87.8013C336.651 87.775 338.156 87.7617 339.664 87.7617C341.172 87.7617 342.677 87.775 344.178 87.8013C344.73 87.811 345.185 87.3723 345.196 86.821C347.541 86.8713 349.879 86.9535 352.208 87.0671C352.18 87.6178 352.603 88.0874 353.154 88.1165C356.162 88.2751 359.157 88.4864 362.136 88.7496C362.686 88.7981 363.171 88.3926 363.22 87.8434C365.561 88.0594 367.892 88.3073 370.213 88.5866C370.146 89.1339 370.535 89.6323 371.082 89.7004C374.065 90.0711 377.031 90.4939 379.98 90.9679C380.524 91.0554 381.037 90.6854 381.125 90.1412C383.443 90.523 385.749 90.9364 388.045 91.3807C387.939 91.9218 388.291 92.4467 388.832 92.5537C391.783 93.1371 394.715 93.7719 397.628 94.4572C398.165 94.5836 398.702 94.2513 398.83 93.7148C401.112 94.2615 403.383 94.8391 405.641 95.4472C405.497 95.9793 405.81 96.5281 406.342 96.6737C409.238 97.4659 412.113 98.3085 414.967 99.2004C415.493 99.365 416.053 99.0722 416.219 98.5462C418.458 99.2559 420.684 99.9959 422.895 100.766C422.713 101.286 422.986 101.856 423.506 102.039C426.339 103.038 429.149 104.086 431.935 105.182C432.448 105.384 433.028 105.133 433.231 104.62C435.41 105.488 437.574 106.384 439.723 107.31C439.504 107.816 439.736 108.404 440.241 108.625C442.993 109.823 445.719 111.07 448.419 112.363C448.916 112.601 449.512 112.391 449.752 111.895C451.864 112.917 453.96 113.967 456.04 115.046C455.785 115.535 455.974 116.138 456.462 116.394C459.121 117.787 461.752 119.225 464.354 120.709C464.833 120.983 465.443 120.816 465.717 120.338C467.749 121.507 469.763 122.704 471.759 123.928C471.47 124.397 471.615 125.013 472.085 125.303C474.636 126.881 477.158 128.504 479.648 130.17C480.106 130.476 480.726 130.354 481.034 129.896C482.978 131.208 484.902 132.546 486.807 133.91C486.486 134.357 486.587 134.981 487.034 135.304C489.466 137.06 491.866 138.858 494.232 140.697C494.667 141.036 495.295 140.958 495.634 140.523C497.479 141.969 499.303 143.44 501.106 144.935C500.753 145.359 500.81 145.988 501.233 146.342C503.534 148.266 505.8 150.23 508.03 152.233C508.441 152.602 509.072 152.568 509.441 152.159C511.179 153.732 512.894 155.329 514.587 156.949C514.205 157.346 514.217 157.978 514.614 158.361C516.772 160.443 518.893 162.562 520.976 164.719C521.359 165.116 521.991 165.127 522.389 164.745C524.01 166.437 525.608 168.151 527.182 169.888C526.773 170.257 526.74 170.888 527.109 171.299C529.114 173.527 531.079 175.792 533.004 178.092C533.358 178.515 533.988 178.571 534.411 178.218C535.908 180.02 537.38 181.843 538.827 183.687C538.393 184.027 538.315 184.654 538.654 185.089C540.495 187.454 542.295 189.852 544.052 192.283C544.375 192.731 544.999 192.831 545.447 192.509C546.812 194.413 548.151 196.337 549.464 198.28C549.006 198.588 548.884 199.208 549.191 199.667C550.859 202.156 552.483 204.676 554.063 207.227C554.353 207.695 554.969 207.841 555.438 207.551C556.663 209.546 557.861 211.56 559.032 213.591C558.553 213.866 558.387 214.475 558.661 214.954C560.146 217.555 561.587 220.185 562.981 222.843C563.237 223.332 563.84 223.521 564.329 223.265C565.409 225.344 566.461 227.44 567.484 229.552C566.987 229.791 566.778 230.388 567.017 230.885C568.311 233.584 569.559 236.309 570.759 239.06C570.979 239.566 571.567 239.797 572.073 239.578C573 241.726 573.898 243.89 574.767 246.069C574.254 246.272 574.003 246.852 574.205 247.365C575.303 250.15 576.352 252.96 577.352 255.792C577.535 256.312 578.106 256.585 578.626 256.403C579.397 258.614 580.137 260.839 580.848 263.078C580.322 263.244 580.03 263.804 580.194 264.33C581.087 267.183 581.931 270.058 582.724 272.954C582.87 273.486 583.419 273.799 583.951 273.655C584.56 275.913 585.138 278.183 585.686 280.466C585.149 280.593 584.817 281.131 584.944 281.668C585.63 284.58 586.266 287.512 586.85 290.463C586.957 291.004 587.482 291.356 588.023 291.25C588.468 293.545 588.882 295.852 589.264 298.169C588.72 298.258 588.35 298.77 588.438 299.315C588.912 302.264 589.336 305.23 589.707 308.212C589.775 308.759 590.273 309.148 590.821 309.081C591.1 311.402 591.349 313.733 591.565 316.074C591.016 316.123 590.61 316.608 590.659 317.158C590.922 320.137 591.134 323.132 591.293 326.14C591.322 326.691 591.792 327.114 592.342 327.086Z" stroke="url(#paint1_linear_1105_26)" stroke-width="2" stroke-linecap="round" stroke-dasharray="9 9"/>
<path d="M519.667 327.745C519.819 330.009 519.93 332.284 519.998 334.57C519.447 334.585 519.011 335.042 519.025 335.594C519.06 337.058 519.078 338.527 519.078 339.999C519.078 341.472 519.06 342.941 519.025 344.405C519.011 344.956 519.447 345.414 519.998 345.429C519.93 347.715 519.819 349.99 519.667 352.254C519.117 352.215 518.639 352.628 518.599 353.178C518.385 356.113 518.1 359.027 517.746 361.92C517.679 362.467 518.068 362.965 518.614 363.034C518.324 365.301 517.992 367.554 517.618 369.794C517.075 369.701 516.559 370.066 516.465 370.609C515.965 373.506 515.395 376.378 514.757 379.225C514.636 379.763 514.974 380.297 515.511 380.419C514.999 382.644 514.446 384.854 513.852 387.047C513.321 386.902 512.771 387.214 512.624 387.745C511.841 390.575 510.99 393.377 510.072 396.15C509.899 396.673 510.182 397.238 510.705 397.412C509.976 399.575 509.207 401.719 508.398 403.844C507.884 403.647 507.306 403.903 507.107 404.417C506.049 407.154 504.924 409.859 503.737 412.528C503.513 413.032 503.738 413.622 504.241 413.847C503.302 415.926 502.325 417.984 501.31 420.02C500.818 419.773 500.218 419.971 499.969 420.463C498.646 423.08 497.261 425.661 495.815 428.203C495.542 428.682 495.709 429.291 496.187 429.565C495.049 431.54 493.874 433.492 492.663 435.42C492.197 435.125 491.581 435.263 491.285 435.728C489.712 438.202 488.08 440.634 486.391 443.023C486.073 443.473 486.179 444.096 486.628 444.415C485.302 446.269 483.941 448.096 482.547 449.897C482.113 449.558 481.486 449.635 481.146 450.069C479.339 452.376 477.477 454.637 475.562 456.851C475.201 457.268 475.246 457.898 475.662 458.259C474.162 459.974 472.629 461.66 471.066 463.317C470.666 462.937 470.035 462.953 469.654 463.352C467.632 465.47 465.559 467.539 463.436 469.557C463.036 469.936 463.02 470.568 463.398 470.968C461.739 472.528 460.049 474.057 458.331 475.554C457.97 475.137 457.34 475.091 456.923 475.451C454.705 477.362 452.44 479.219 450.13 481.021C449.695 481.36 449.617 481.987 449.954 482.422C448.151 483.812 446.321 485.169 444.465 486.491C444.146 486.042 443.524 485.934 443.073 486.252C440.681 487.936 438.245 489.563 435.769 491.132C435.303 491.427 435.164 492.043 435.457 492.509C433.528 493.716 431.574 494.887 429.596 496.022C429.323 495.544 428.714 495.376 428.234 495.648C425.69 497.089 423.107 498.47 420.487 499.788C419.995 500.036 419.796 500.636 420.042 501.129C418.005 502.14 415.945 503.114 413.865 504.049C413.64 503.546 413.05 503.319 412.546 503.543C409.875 504.726 407.169 505.846 404.43 506.901C403.916 507.1 403.659 507.677 403.855 508.191C401.729 508.997 399.584 509.763 397.42 510.49C397.246 509.967 396.682 509.683 396.158 509.855C393.385 510.769 390.582 511.617 387.751 512.397C387.219 512.544 386.907 513.093 387.051 513.624C384.858 514.216 382.647 514.767 380.421 515.277C380.3 514.739 379.766 514.401 379.228 514.521C376.381 515.157 373.508 515.724 370.611 516.223C370.068 516.316 369.702 516.832 369.794 517.375C367.555 517.747 365.301 518.078 363.034 518.367C362.966 517.821 362.468 517.432 361.921 517.499C359.027 517.851 356.113 518.135 353.178 518.348C352.628 518.388 352.215 518.865 352.253 519.415C349.99 519.567 347.714 519.677 345.429 519.745C345.414 519.194 344.956 518.759 344.405 518.772C342.94 518.807 341.472 518.825 339.999 518.825C338.526 518.825 337.057 518.807 335.593 518.772C335.042 518.759 334.584 519.194 334.569 519.745C332.284 519.677 330.008 519.567 327.745 519.415C327.783 518.865 327.37 518.388 326.82 518.348C323.885 518.135 320.971 517.851 318.077 517.499C317.53 517.432 317.032 517.821 316.964 518.367C314.697 518.078 312.443 517.747 310.204 517.375C310.295 516.832 309.93 516.316 309.387 516.223C306.49 515.724 303.617 515.157 300.77 514.521C300.232 514.401 299.698 514.739 299.577 515.277C297.351 514.767 295.14 514.216 292.946 513.624C293.091 513.093 292.779 512.544 292.247 512.397C289.416 511.617 286.613 510.769 283.84 509.855C283.316 509.683 282.752 509.967 282.578 510.49C280.414 509.763 278.269 508.997 276.143 508.191C276.339 507.677 276.082 507.1 275.568 506.901C272.829 505.846 270.123 504.726 267.452 503.543C266.947 503.319 266.358 503.546 266.133 504.049C264.053 503.114 261.993 502.14 259.955 501.129C260.202 500.636 260.003 500.036 259.511 499.788C256.891 498.47 254.308 497.089 251.764 495.648C251.284 495.376 250.675 495.544 250.402 496.022C248.424 494.887 246.47 493.716 244.541 492.509C244.834 492.043 244.695 491.427 244.229 491.132C241.753 489.563 239.317 487.936 236.925 486.252C236.474 485.934 235.852 486.042 235.533 486.492C233.677 485.169 231.847 483.812 230.044 482.422C230.381 481.987 230.303 481.36 229.868 481.021C227.558 479.219 225.293 477.362 223.075 475.451C222.657 475.091 222.027 475.137 221.667 475.554C219.949 474.057 218.259 472.528 216.6 470.968C216.978 470.568 216.962 469.936 216.562 469.557C214.439 467.539 212.366 465.47 210.344 463.352C209.963 462.953 209.332 462.937 208.932 463.317C207.369 461.66 205.836 459.974 204.336 458.259C204.752 457.898 204.797 457.268 204.436 456.851C202.52 454.637 200.659 452.376 198.852 450.069C198.512 449.635 197.885 449.558 197.451 449.897C196.057 448.096 194.696 446.269 193.37 444.415C193.819 444.096 193.925 443.473 193.607 443.023C191.918 440.634 190.286 438.202 188.713 435.728C188.417 435.263 187.801 435.125 187.335 435.42C186.124 433.492 184.949 431.54 183.811 429.565C184.289 429.291 184.456 428.682 184.183 428.203C182.737 425.661 181.352 423.08 180.029 420.463C179.78 419.971 179.18 419.773 178.688 420.02C177.673 417.984 176.696 415.926 175.757 413.847C176.259 413.622 176.485 413.032 176.261 412.528C175.073 409.859 173.949 407.154 172.891 404.417C172.692 403.903 172.114 403.647 171.6 403.844C170.791 401.719 170.022 399.575 169.293 397.412C169.816 397.238 170.099 396.673 169.925 396.15C169.008 393.377 168.157 390.575 167.374 387.745C167.227 387.214 166.677 386.902 166.146 387.047C165.552 384.854 164.999 382.644 164.487 380.419C165.024 380.297 165.362 379.763 165.241 379.225C164.603 376.378 164.033 373.506 163.533 370.609C163.439 370.066 162.923 369.701 162.38 369.794C162.006 367.554 161.674 365.301 161.383 363.034C161.93 362.965 162.319 362.467 162.252 361.92C161.898 359.027 161.613 356.113 161.399 353.178C161.359 352.628 160.881 352.215 160.331 352.254C160.179 349.99 160.068 347.715 160 345.429C160.551 345.414 160.987 344.956 160.973 344.405C160.938 342.941 160.92 341.472 160.92 339.999C160.92 338.527 160.938 337.058 160.973 335.594C160.987 335.042 160.551 334.585 160 334.57C160.068 332.284 160.179 330.009 160.331 327.745C160.881 327.784 161.359 327.37 161.399 326.82C161.613 323.886 161.898 320.972 162.252 318.079C162.319 317.531 161.93 317.033 161.383 316.965C161.674 314.698 162.006 312.445 162.38 310.205C162.923 310.297 163.439 309.933 163.533 309.389C164.033 306.493 164.603 303.621 165.241 300.774C165.362 300.236 165.024 299.702 164.487 299.58C164.999 297.354 165.552 295.145 166.146 292.951C166.677 293.097 167.227 292.785 167.374 292.254C168.157 289.423 169.008 286.621 169.925 283.849C170.099 283.326 169.816 282.761 169.293 282.587C170.022 280.424 170.791 278.279 171.6 276.154C172.114 276.352 172.692 276.096 172.891 275.581C173.949 272.845 175.073 270.14 176.261 267.47C176.485 266.967 176.259 266.377 175.757 266.151C176.696 264.072 177.673 262.014 178.688 259.978C179.18 260.225 179.78 260.028 180.029 259.536C181.352 256.918 182.737 254.338 184.183 251.796C184.456 251.317 184.289 250.708 183.811 250.434C184.949 248.458 186.124 246.506 187.335 244.579C187.801 244.873 188.417 244.736 188.713 244.27C190.286 241.797 191.918 239.365 193.607 236.976C193.925 236.525 193.819 235.903 193.37 235.583C194.696 233.73 196.057 231.902 197.451 230.102C197.885 230.44 198.512 230.364 198.852 229.929C200.659 227.623 202.52 225.362 204.436 223.148C204.797 222.731 204.752 222.101 204.336 221.739C205.836 220.024 207.369 218.338 208.932 216.682C209.332 217.061 209.963 217.046 210.344 216.647C212.366 214.529 214.439 212.46 216.562 210.442C216.962 210.062 216.978 209.431 216.6 209.03C218.259 207.47 219.949 205.942 221.667 204.445C222.027 204.861 222.657 204.908 223.075 204.548C225.293 202.637 227.558 200.78 229.868 198.978C230.303 198.639 230.381 198.012 230.044 197.577C231.847 196.187 233.677 194.83 235.533 193.507C235.852 193.957 236.474 194.064 236.925 193.747C239.317 192.063 241.753 190.435 244.229 188.867C244.695 188.572 244.834 187.956 244.541 187.49C246.47 186.283 248.424 185.111 250.402 183.976C250.675 184.455 251.284 184.623 251.764 184.351C254.308 182.91 256.891 181.529 259.511 180.211C260.003 179.963 260.202 179.363 259.956 178.87C261.993 177.859 264.053 176.885 266.133 175.949C266.358 176.452 266.947 176.679 267.452 176.456C270.123 175.272 272.829 174.152 275.568 173.097C276.082 172.899 276.339 172.322 276.143 171.807C278.269 171.002 280.414 170.236 282.578 169.509C282.752 170.032 283.316 170.316 283.84 170.143C286.613 169.23 289.416 168.382 292.247 167.601C292.779 167.455 293.091 166.906 292.946 166.374C295.14 165.783 297.351 165.232 299.577 164.722C299.698 165.259 300.232 165.598 300.77 165.477C303.617 164.842 306.49 164.274 309.387 163.776C309.93 163.683 310.296 163.167 310.204 162.624C312.443 162.251 314.697 161.92 316.964 161.631C317.032 162.178 317.53 162.567 318.077 162.5C320.971 162.148 323.885 161.864 326.82 161.651C327.37 161.611 327.783 161.133 327.745 160.584C330.008 160.432 332.284 160.322 334.569 160.254C334.584 160.805 335.042 161.24 335.593 161.227C337.057 161.192 338.526 161.174 339.999 161.174C341.472 161.174 342.94 161.192 344.405 161.227C344.956 161.24 345.414 160.805 345.429 160.254C347.714 160.322 349.99 160.432 352.253 160.584C352.215 161.133 352.628 161.611 353.178 161.651C356.113 161.864 359.027 162.148 361.921 162.5C362.468 162.567 362.966 162.178 363.034 161.631C365.301 161.92 367.555 162.251 369.794 162.624C369.702 163.167 370.068 163.683 370.611 163.776C373.508 164.274 376.381 164.842 379.228 165.477C379.766 165.598 380.3 165.259 380.421 164.722C382.647 165.232 384.858 165.783 387.051 166.374C386.907 166.906 387.219 167.455 387.751 167.601C390.582 168.382 393.385 169.23 396.158 170.143C396.682 170.316 397.246 170.032 397.42 169.509C399.584 170.236 401.729 171.002 403.855 171.807C403.659 172.322 403.916 172.899 404.43 173.097C407.169 174.152 409.875 175.272 412.546 176.456C413.05 176.679 413.64 176.452 413.865 175.949C415.945 176.885 418.005 177.859 420.042 178.87C419.796 179.363 419.995 179.963 420.487 180.211C423.107 181.529 425.69 182.91 428.234 184.351C428.714 184.623 429.323 184.455 429.596 183.976C431.574 185.111 433.528 186.283 435.457 187.49C435.164 187.956 435.303 188.572 435.769 188.867C438.245 190.435 440.681 192.063 443.073 193.747C443.524 194.064 444.146 193.957 444.465 193.507C446.321 194.83 448.151 196.187 449.954 197.577C449.617 198.012 449.695 198.639 450.13 198.978C452.44 200.78 454.705 202.637 456.923 204.548C457.34 204.908 457.97 204.861 458.331 204.445C460.049 205.942 461.739 207.47 463.398 209.03C463.02 209.431 463.036 210.062 463.436 210.442C465.559 212.46 467.632 214.529 469.654 216.647C470.035 217.046 470.666 217.061 471.066 216.682C472.629 218.338 474.162 220.024 475.662 221.739C475.246 222.101 475.201 222.731 475.562 223.148C477.477 225.362 479.339 227.623 481.146 229.929C481.486 230.364 482.113 230.44 482.547 230.102C483.941 231.902 485.302 233.73 486.628 235.583C486.179 235.903 486.073 236.526 486.391 236.976C488.08 239.365 489.712 241.797 491.285 244.27C491.581 244.736 492.197 244.873 492.663 244.579C493.874 246.506 495.049 248.458 496.187 250.434C495.709 250.708 495.542 251.317 495.815 251.796C497.261 254.338 498.646 256.918 499.969 259.536C500.218 260.028 500.818 260.225 501.31 259.978C502.325 262.014 503.302 264.072 504.241 266.151C503.738 266.377 503.513 266.967 503.737 267.47C504.924 270.14 506.049 272.845 507.107 275.581C507.306 276.096 507.884 276.352 508.398 276.154C509.207 278.279 509.976 280.424 510.705 282.587C510.182 282.761 509.899 283.326 510.072 283.849C510.99 286.621 511.841 289.423 512.624 292.254C512.771 292.785 513.321 293.097 513.852 292.951C514.446 295.145 514.999 297.354 515.511 299.58C514.974 299.702 514.636 300.236 514.757 300.774C515.395 303.621 515.965 306.493 516.465 309.389C516.559 309.933 517.075 310.297 517.618 310.205C517.992 312.445 518.324 314.698 518.614 316.965C518.068 317.033 517.679 317.531 517.746 318.079C518.1 320.972 518.385 323.886 518.599 326.82C518.639 327.37 519.117 327.784 519.667 327.745Z" stroke="url(#paint2_linear_1105_26)" stroke-width="2" stroke-linecap="round" stroke-dasharray="9 9"/>
<path d="M438.067 327.264C438.328 329.46 438.519 331.679 438.636 333.918C438.087 333.944 437.661 334.409 437.685 334.959C437.745 336.384 437.776 337.817 437.776 339.258C437.776 340.698 437.745 342.131 437.685 343.557C437.661 344.107 438.087 344.572 438.636 344.598C438.519 346.836 438.328 349.055 438.067 351.252C437.521 351.184 437.022 351.57 436.952 352.116C436.582 354.977 436.091 357.798 435.484 360.576C435.366 361.114 435.705 361.645 436.242 361.766C435.743 363.944 435.172 366.095 434.534 368.217C434.008 368.055 433.45 368.349 433.286 368.875C432.429 371.622 431.456 374.317 430.373 376.954C430.163 377.463 430.405 378.046 430.913 378.257C430.044 380.313 429.109 382.334 428.109 384.317C427.619 384.067 427.019 384.259 426.766 384.748C425.448 387.299 424.023 389.784 422.496 392.199C422.202 392.664 422.339 393.279 422.803 393.576C421.593 395.447 420.322 397.276 418.993 399.058C418.554 398.727 417.929 398.813 417.596 399.251C415.86 401.532 414.027 403.734 412.103 405.852C411.733 406.26 411.762 406.89 412.167 407.261C410.654 408.895 409.087 410.476 407.469 412.004C407.093 411.603 406.463 411.579 406.059 411.953C403.958 413.898 401.773 415.751 399.509 417.507C399.074 417.845 398.994 418.47 399.329 418.906C397.558 420.252 395.741 421.539 393.881 422.764C393.581 422.303 392.964 422.171 392.501 422.47C390.099 424.018 387.626 425.463 385.087 426.8C384.6 427.057 384.412 427.659 384.666 428.147C382.69 429.161 380.676 430.112 378.626 430.994C378.412 430.488 377.828 430.25 377.32 430.463C374.689 431.564 372.001 432.553 369.261 433.425C368.736 433.592 368.445 434.151 368.609 434.676C366.491 435.326 364.342 435.906 362.166 436.415C362.044 435.879 361.511 435.541 360.973 435.661C358.198 436.28 355.378 436.78 352.52 437.156C351.974 437.228 351.589 437.728 351.658 438.273C349.462 438.54 347.243 438.734 345.005 438.854C344.979 438.304 344.513 437.879 343.963 437.903C342.538 437.965 341.105 437.996 339.665 437.996C338.225 437.996 336.792 437.965 335.368 437.903C334.817 437.879 334.352 438.304 334.325 438.854C332.087 438.734 329.869 438.54 327.672 438.273C327.742 437.728 327.357 437.228 326.811 437.156C323.952 436.78 321.133 436.28 318.357 435.661C317.82 435.541 317.287 435.879 317.165 436.415C314.989 435.906 312.84 435.326 310.722 434.676C310.886 434.151 310.595 433.592 310.07 433.425C307.33 432.553 304.641 431.564 302.011 430.463C301.503 430.25 300.919 430.488 300.704 430.994C298.655 430.112 296.641 429.161 294.665 428.147C294.919 427.659 294.731 427.057 294.244 426.8C291.705 425.463 289.232 424.018 286.829 422.47C286.367 422.171 285.75 422.303 285.45 422.764C283.589 421.539 281.772 420.252 280.002 418.906C280.337 418.47 280.257 417.845 279.822 417.507C277.558 415.751 275.373 413.898 273.272 411.953C272.868 411.579 272.237 411.603 271.862 412.004C270.244 410.476 268.677 408.895 267.163 407.261C267.569 406.89 267.598 406.26 267.228 405.852C265.304 403.734 263.471 401.532 261.735 399.251C261.401 398.813 260.777 398.727 260.337 399.058C259.009 397.276 257.738 395.447 256.528 393.576C256.991 393.279 257.129 392.664 256.835 392.199C255.308 389.784 253.882 387.299 252.564 384.748C252.312 384.259 251.711 384.067 251.221 384.317C250.222 382.334 249.287 380.313 248.418 378.257C248.925 378.046 249.167 377.463 248.958 376.954C247.875 374.317 246.902 371.622 246.045 368.875C245.881 368.349 245.323 368.055 244.797 368.217C244.158 366.095 243.588 363.944 243.089 361.766C243.625 361.645 243.965 361.114 243.847 360.576C243.24 357.798 242.749 354.977 242.379 352.116C242.308 351.57 241.81 351.184 241.264 351.252C241.002 349.055 240.812 346.836 240.694 344.598C241.244 344.572 241.669 344.107 241.646 343.557C241.585 342.131 241.555 340.698 241.555 339.258C241.555 337.817 241.585 336.384 241.646 334.959C241.669 334.409 241.244 333.944 240.694 333.918C240.812 331.679 241.002 329.46 241.264 327.264C241.81 327.331 242.308 326.945 242.379 326.399C242.749 323.539 243.24 320.717 243.847 317.94C243.965 317.402 243.625 316.87 243.089 316.75C243.588 314.572 244.158 312.42 244.797 310.299C245.323 310.46 245.881 310.166 246.045 309.641C246.902 306.894 247.875 304.199 248.958 301.562C249.167 301.052 248.925 300.47 248.418 300.259C249.287 298.202 250.222 296.182 251.221 294.199C251.711 294.449 252.312 294.257 252.564 293.767C253.882 291.217 255.308 288.731 256.835 286.317C257.129 285.852 256.991 285.236 256.528 284.94C257.738 283.068 259.009 281.24 260.337 279.458C260.777 279.789 261.401 279.703 261.735 279.265C263.471 276.984 265.304 274.781 267.228 272.664C267.598 272.256 267.569 271.626 267.163 271.254C268.677 269.621 270.244 268.039 271.862 266.511C272.237 266.913 272.868 266.936 273.272 266.562C275.373 264.618 277.558 262.764 279.822 261.008C280.257 260.671 280.337 260.046 280.002 259.609C281.772 258.264 283.589 256.977 285.45 255.751C285.75 256.212 286.367 256.344 286.829 256.046C289.232 254.498 291.705 253.052 294.244 251.715C294.731 251.459 294.919 250.857 294.665 250.369C296.641 249.354 298.655 248.404 300.704 247.521C300.919 248.028 301.503 248.266 302.011 248.053C304.641 246.952 307.33 245.962 310.07 245.091C310.595 244.924 310.886 244.365 310.722 243.84C312.84 243.19 314.989 242.609 317.165 242.101C317.287 242.637 317.82 242.974 318.357 242.854C321.133 242.236 323.952 241.736 326.811 241.359C327.357 241.287 327.742 240.788 327.672 240.242C329.869 239.976 332.087 239.781 334.325 239.662C334.352 240.211 334.817 240.636 335.368 240.613C336.792 240.551 338.225 240.52 339.665 240.52C341.105 240.52 342.538 240.551 343.963 240.613C344.513 240.636 344.979 240.211 345.005 239.662C347.243 239.781 349.462 239.976 351.658 240.242C351.589 240.788 351.974 241.287 352.52 241.359C355.378 241.736 358.198 242.236 360.973 242.854C361.511 242.974 362.044 242.637 362.166 242.101C364.342 242.609 366.491 243.19 368.609 243.84C368.445 244.365 368.736 244.924 369.261 245.091C372.001 245.962 374.689 246.952 377.32 248.053C377.828 248.266 378.412 248.028 378.626 247.521C380.676 248.404 382.69 249.354 384.666 250.369C384.412 250.857 384.6 251.459 385.087 251.715C387.626 253.052 390.099 254.498 392.501 256.046C392.964 256.344 393.581 256.212 393.881 255.751C395.741 256.977 397.558 258.264 399.329 259.609C398.994 260.046 399.074 260.671 399.509 261.008C401.773 262.764 403.958 264.618 406.059 266.562C406.463 266.936 407.093 266.913 407.469 266.511C409.087 268.039 410.654 269.621 412.167 271.254C411.762 271.626 411.733 272.256 412.103 272.663C414.027 274.781 415.86 276.984 417.596 279.265C417.929 279.703 418.554 279.789 418.993 279.458C420.322 281.24 421.593 283.068 422.803 284.94C422.339 285.236 422.202 285.852 422.496 286.317C424.023 288.731 425.448 291.217 426.766 293.767C427.019 294.257 427.619 294.449 428.109 294.199C429.109 296.182 430.044 298.202 430.913 300.259C430.405 300.47 430.163 301.052 430.373 301.562C431.456 304.199 432.429 306.894 433.286 309.641C433.45 310.166 434.008 310.46 434.534 310.299C435.172 312.42 435.743 314.572 436.242 316.75C435.705 316.87 435.366 317.402 435.484 317.94C436.091 320.717 436.582 323.539 436.952 326.399C437.022 326.945 437.521 327.331 438.067 327.264Z" stroke="url(#paint3_linear_1105_26)" stroke-width="2" stroke-linecap="round" stroke-dasharray="9 9"/>
<defs>
<linearGradient id="paint0_linear_1105_26" x1="144.5" y1="-139.643" x2="2389.57" y2="1333.7" gradientUnits="userSpaceOnUse">
<stop stop-color="#0049FF" stop-opacity="0.13"/>
<stop offset="0.28125" stop-color="#02278D" stop-opacity="0.0796774"/>
<stop offset="0.578125" stop-color="#002AE4" stop-opacity="0"/>
<stop offset="0.984375" stop-color="#040E3A" stop-opacity="0.6"/>
</linearGradient>
<linearGradient id="paint1_linear_1105_26" x1="194.198" y1="-17.0949" x2="1864.23" y2="1079.38" gradientUnits="userSpaceOnUse">
<stop stop-color="#0049FF" stop-opacity="0.13"/>
<stop offset="0.28125" stop-color="#02278D" stop-opacity="0.0796774"/>
<stop offset="0.578125" stop-color="#002AE4" stop-opacity="0"/>
<stop offset="0.984375" stop-color="#040E3A" stop-opacity="0.6"/>
</linearGradient>
<linearGradient id="paint2_linear_1105_26" x1="236.454" y1="86.3169" x2="1424.53" y2="867.1" gradientUnits="userSpaceOnUse">
<stop stop-color="#0049FF" stop-opacity="0.13"/>
<stop offset="0.28125" stop-color="#02278D" stop-opacity="0.0796774"/>
<stop offset="0.578125" stop-color="#002AE4" stop-opacity="0"/>
<stop offset="0.984375" stop-color="#040E3A" stop-opacity="0.6"/>
</linearGradient>
<linearGradient id="paint3_linear_1105_26" x1="282.677" y1="198.556" x2="939.601" y2="626.952" gradientUnits="userSpaceOnUse">
<stop stop-color="#0049FF" stop-opacity="0.13"/>
<stop offset="0.28125" stop-color="#02278D" stop-opacity="0.0796774"/>
<stop offset="0.578125" stop-color="#002AE4" stop-opacity="0"/>
<stop offset="0.984375" stop-color="#040E3A" stop-opacity="0.6"/>
</linearGradient>
</defs>
</svg>
