<svg width="2034" height="273" viewBox="0 0 2034 273" fill="none" xmlns="http://www.w3.org/2000/svg">
<g clip-path="url(#clip0_1443_222)">
<path fill-rule="evenodd" clip-rule="evenodd" d="M0 216.2V4.2H47.1065L143.463 135.476C143.444 135.284 143.424 135.091 143.405 134.9C142.805 128.901 142.205 123.002 141.605 117.203L141.604 117.186L141.602 117.169C141.202 111.368 140.802 105.467 140.402 99.467L140.401 99.45V99.433C140.201 93.432 140 86.93 139.8 79.929V79.914V4.2H191.3V216.2H143.597L47.9335 87.317C48.7135 93.784 49.301 99.58 49.6956 104.704C50.2964 109.914 50.6978 114.63 50.8989 118.852C51.0992 123.06 51.1996 127.267 51.2 131.475C51.4002 135.489 51.5 139.998 51.5 145V216.2H0ZM50.2 131.5C50.2 127.3 50.1 123.1 49.9 118.9C49.7 114.7 49.3 110 48.7 104.8C48.3 99.6 47.7 93.7 46.9 87.1C46.8612 86.661 46.8216 86.215 46.7812 85.764C46.7251 85.138 46.6674 84.501 46.6081 83.853L144.1 215.2H190.3V5.2H140.8V79.9C141 86.9 141.2 93.4 141.4 99.4C141.8 105.4 142.2 111.3 142.6 117.1C143.2 122.9 143.8 128.8 144.4 134.8C144.475 135.553 144.554 136.311 144.635 137.073C144.706 137.732 144.779 138.395 144.854 139.061L46.6 5.2H1V215.2H50.5V145C50.5 140 50.4 135.5 50.2 131.5ZM294.492 216.2V4.2H442.892V49.7H345.992V86.7H429.392V130.1H345.992V170.7H445.892V216.2H294.492ZM344.992 171.7V129.1H428.392V87.7H344.992V48.7H441.892V5.2H295.492V215.2H444.892V171.7H344.992ZM664.127 216.2L619.018 150.927L574.278 216.2H512.73L588.753 107.717L514.199 4.2H578.779L622.348 67.91L664.111 4.2H725.649L652.417 111.057L728.713 216.2H664.127ZM651.193 111.073L723.752 5.2H664.652L622.366 69.707L578.252 5.2H516.152L589.98 107.709L514.652 215.2H573.752L619.015 149.164L664.652 215.2H726.752L651.193 111.073ZM849.975 216.2V51.2H787.575V4.2H966.875V51.2H902.975V216.2H849.975ZM901.975 50.2H965.875V5.2H788.575V50.2H850.975V215.2H901.975V50.2ZM1012.47 152V105.9H1118.27V152H1012.47ZM1204.92 153.167L1204.91 153.162C1199.67 139.637 1197.05 125.013 1197.05 109.3C1197.05 93.583 1199.77 79.151 1205.22 66.016L1205.23 66.009C1210.88 52.687 1218.86 41.0739 1229.15 31.1789C1239.45 21.2837 1251.57 13.6143 1265.48 8.1688L1265.49 8.167C1279.61 2.7188 1294.94 0 1311.45 0C1323.13 0 1334.13 1.5111 1344.43 4.5397C1354.9 7.5626 1364.39 11.6976 1372.87 16.9497C1381.35 22.1986 1388.53 28.2644 1394.41 35.151L1394.99 35.8342L1362.78 69.919L1362.05 69.221C1357.1 64.469 1351.96 60.517 1346.64 57.36L1346.63 57.356L1346.62 57.352C1341.5 54.198 1335.98 51.7335 1330.06 49.9578L1330.05 49.9535L1330.03 49.9487C1324.14 47.9851 1317.85 47 1311.15 47C1302.47 47 1294.51 48.5759 1287.25 51.715C1280.17 54.861 1273.88 59.286 1268.37 64.995C1263.07 70.491 1258.94 77.074 1255.98 84.759V84.767C1253.03 92.239 1251.55 100.413 1251.55 109.3C1251.55 118.179 1253.12 126.449 1256.27 134.12C1259.43 141.806 1263.76 148.496 1269.26 154.2C1274.77 159.703 1281.26 164.13 1288.74 167.481C1296.41 170.625 1304.58 172.2 1313.25 172.2C1319.34 172.2 1325.02 171.218 1330.3 169.262L1330.31 169.258C1335.81 167.294 1340.5 164.65 1344.4 161.338C1348.3 158.022 1351.42 154.126 1353.76 149.644C1355.57 146.006 1356.68 142.193 1357.08 138.2H1305.95V96.3H1406.48L1406.63 97.121C1407.04 99.382 1407.34 102.43 1407.55 106.247C1407.75 110.054 1407.85 113.762 1407.85 117.371C1408.05 120.962 1408.15 123.676 1408.15 125.5C1408.15 139.222 1405.62 151.858 1400.57 163.394C1395.71 174.72 1388.83 184.536 1379.93 192.832C1371.03 201.125 1360.52 207.591 1348.4 212.234C1336.28 216.881 1323.16 219.2 1309.05 219.2C1292.14 219.2 1276.81 216.482 1263.08 211.029C1249.36 205.582 1237.54 197.909 1227.64 188.007C1217.74 178.108 1210.17 166.491 1204.92 153.167ZM1399.65 163C1404.65 151.6 1407.15 139.1 1407.15 125.5C1407.15 123.7 1407.05 121 1406.85 117.4C1406.85 113.8 1406.75 110.1 1406.55 106.3C1406.35 102.5 1406.05 99.5 1405.65 97.3H1306.95V137.2H1358.17C1358.14 137.535 1358.12 137.868 1358.08 138.2C1357.68 142.353 1356.54 146.319 1354.65 150.1C1352.25 154.7 1349.05 158.7 1345.05 162.1C1341.05 165.5 1336.25 168.2 1330.65 170.2C1325.25 172.2 1319.45 173.2 1313.25 173.2C1304.45 173.2 1296.15 171.6 1288.35 168.4C1280.75 165 1274.15 160.5 1268.55 154.9C1262.95 149.1 1258.55 142.3 1255.35 134.5C1252.15 126.7 1250.55 118.3 1250.55 109.3C1250.55 100.3 1252.05 92 1255.05 84.4C1258.05 76.6 1262.25 69.9 1267.65 64.3C1273.25 58.5 1279.65 54 1286.85 50.8C1294.25 47.6 1302.35 46 1311.15 46C1317.95 46 1324.35 47 1330.35 49C1336.35 50.8 1341.95 53.3 1347.15 56.5C1352.29 59.546 1357.24 63.316 1362.02 67.811C1362.26 68.039 1362.51 68.269 1362.75 68.5L1393.65 35.8C1387.85 29 1380.75 23 1372.35 17.8C1363.95 12.6 1354.55 8.5 1344.15 5.5C1333.95 2.5 1323.05 1 1311.45 1C1295.05 1 1279.85 3.7 1265.85 9.1C1252.05 14.5 1240.05 22.1 1229.85 31.9C1219.65 41.7 1211.75 53.2 1206.15 66.4C1200.75 79.4 1198.05 93.7 1198.05 109.3C1198.05 124.9 1200.65 139.4 1205.85 152.8C1211.05 166 1218.55 177.5 1228.35 187.3C1238.15 197.1 1249.85 204.7 1263.45 210.1C1277.05 215.5 1292.25 218.2 1309.05 218.2C1323.05 218.2 1336.05 215.9 1348.05 211.3C1360.05 206.7 1370.45 200.3 1379.25 192.1C1388.05 183.9 1394.85 174.2 1399.65 163ZM1497.71 216.2V4.2H1646.11V49.7H1549.21V86.7H1632.61V130.1H1549.21V170.7H1649.11V216.2H1497.71ZM1548.21 171.7V129.1H1631.61V87.7H1548.21V48.7H1645.11V5.2H1498.71V215.2H1648.11V171.7H1548.21ZM1743.57 216.2V4.2H1790.68L1887.04 135.476C1887.02 135.284 1887 135.091 1886.98 134.9C1886.38 128.901 1885.78 123.002 1885.18 117.203V117.186V117.169C1884.78 111.368 1884.38 105.467 1883.98 99.467V99.45L1883.97 99.433C1883.77 93.432 1883.57 86.93 1883.37 79.929V79.914V4.2H1934.87V216.2H1887.17L1791.51 87.317C1792.29 93.784 1792.88 99.58 1793.27 104.705C1793.87 109.914 1794.27 114.631 1794.47 118.852C1794.67 123.06 1794.77 127.267 1794.77 131.475C1794.97 135.489 1795.07 139.997 1795.07 145V216.2H1743.57ZM1793.77 131.5C1793.77 127.3 1793.67 123.1 1793.47 118.9C1793.27 114.7 1792.87 110 1792.27 104.8C1791.87 99.6 1791.27 93.7 1790.47 87.1C1790.44 86.661 1790.4 86.215 1790.36 85.764C1790.3 85.139 1790.24 84.501 1790.18 83.853L1887.67 215.2H1933.87V5.2H1884.37V79.9C1884.57 86.9 1884.77 93.4 1884.97 99.4C1885.37 105.4 1885.77 111.3 1886.17 117.1C1886.77 122.9 1887.37 128.8 1887.97 134.8C1888.05 135.553 1888.13 136.311 1888.21 137.073C1888.28 137.732 1888.35 138.395 1888.43 139.061L1790.17 5.2H1744.57V215.2H1794.07V145C1794.07 140 1793.97 135.5 1793.77 131.5ZM1934.87 272.8V231.5L2033.1 226.699V267.999L1934.87 272.8ZM1013.47 151H1117.27V106.9H1013.47V151ZM1935.87 271.8L2032.1 266.999V227.699L1935.87 232.5V271.8Z" fill="url(#paint0_linear_1443_222)" fill-opacity="0.8"/>
<path d="M1.39844 215.001V5.00078H46.9984L157.098 155.001L147.198 153.501C146.198 146.901 145.398 140.601 144.798 134.601C144.198 128.601 143.598 122.701 142.998 116.901C142.598 111.101 142.198 105.201 141.798 99.2008C141.598 93.2008 141.398 86.7008 141.198 79.7008C141.198 72.7008 141.198 65.1008 141.198 56.9008V5.00078H190.698V215.001H144.498L29.5984 60.2008L44.8984 62.3008C45.8984 71.9008 46.6984 80.1008 47.2984 86.9008C48.0984 93.5008 48.6984 99.4008 49.0984 104.601C49.6984 109.801 50.0984 114.501 50.2984 118.701C50.4984 122.901 50.5984 127.101 50.5984 131.301C50.7984 135.301 50.8984 139.801 50.8984 144.801V215.001H1.39844ZM295.89 215.001V5.00078H442.29V48.5008H345.39V171.501H445.29V215.001H295.89ZM319.89 128.901V87.5008H428.79V128.901H319.89ZM665.05 215.001L599.95 120.801L516.55 5.00078H578.65L642.25 98.0008L727.15 215.001H665.05ZM515.05 215.001L595.15 100.701L636.25 124.401L574.15 215.001H515.05ZM647.05 117.501L606.25 94.7008L665.05 5.00078H724.15L647.05 117.501ZM851.373 215.001V50.0008H788.973V5.00078H966.273V50.0008H902.373V215.001H851.373ZM1013.87 150.801V106.701H1117.67V150.801H1013.87ZM1309.45 218.001C1292.65 218.001 1277.45 215.301 1263.85 209.901C1250.25 204.501 1238.55 196.901 1228.75 187.101C1218.95 177.301 1211.45 165.801 1206.25 152.601C1201.05 139.201 1198.45 124.701 1198.45 109.101C1198.45 93.5008 1201.15 79.2008 1206.55 66.2008C1212.15 53.0008 1220.05 41.5008 1230.25 31.7008C1240.45 21.9008 1252.45 14.3008 1266.25 8.90078C1280.25 3.50078 1295.45 0.800781 1311.85 0.800781C1323.45 0.800781 1334.35 2.30078 1344.55 5.30078C1354.95 8.30078 1364.35 12.4008 1372.75 17.6008C1381.15 22.8008 1388.25 28.8008 1394.05 35.6008L1363.15 68.3008C1358.15 63.5008 1352.95 59.5008 1347.55 56.3008C1342.35 53.1008 1336.75 50.6008 1330.75 48.8008C1324.75 46.8008 1318.35 45.8008 1311.55 45.8008C1302.75 45.8008 1294.65 47.4008 1287.25 50.6008C1280.05 53.8008 1273.65 58.3008 1268.05 64.1008C1262.65 69.7008 1258.45 76.4008 1255.45 84.2008C1252.45 91.8008 1250.95 100.101 1250.95 109.101C1250.95 118.101 1252.55 126.501 1255.75 134.301C1258.95 142.101 1263.35 148.901 1268.95 154.701C1274.55 160.301 1281.15 164.801 1288.75 168.201C1296.55 171.401 1304.85 173.001 1313.65 173.001C1319.85 173.001 1325.65 172.001 1331.05 170.001C1336.65 168.001 1341.45 165.301 1345.45 161.901C1349.45 158.501 1352.65 154.501 1355.05 149.901C1357.45 145.101 1358.65 140.001 1358.65 134.601V126.801L1365.25 137.001H1307.35V97.1008H1406.05C1406.45 99.3008 1406.75 102.301 1406.95 106.101C1407.15 109.901 1407.25 113.601 1407.25 117.201C1407.45 120.801 1407.55 123.501 1407.55 125.301C1407.55 138.901 1405.05 151.401 1400.05 162.801C1395.25 174.001 1388.45 183.701 1379.65 191.901C1370.85 200.101 1360.45 206.501 1348.45 211.101C1336.45 215.701 1323.45 218.001 1309.45 218.001ZM1499.11 215.001V5.00078H1645.51V48.5008H1548.61V171.501H1648.51V215.001H1499.11ZM1523.11 128.901V87.5008H1632.01V128.901H1523.11ZM1744.97 215.001V5.00078H1790.57L1900.67 155.001L1890.77 153.501C1889.77 146.901 1888.97 140.601 1888.37 134.601C1887.77 128.601 1887.17 122.701 1886.57 116.901C1886.17 111.101 1885.77 105.201 1885.37 99.2008C1885.17 93.2008 1884.97 86.7008 1884.77 79.7008C1884.77 72.7008 1884.77 65.1008 1884.77 56.9008V5.00078H1934.27V215.001H1888.07L1773.17 60.2008L1788.47 62.3008C1789.47 71.9008 1790.27 80.1008 1790.87 86.9008C1791.67 93.5008 1792.27 99.4008 1792.67 104.601C1793.27 109.801 1793.67 114.501 1793.87 118.701C1794.07 122.901 1794.17 127.101 1794.17 131.301C1794.37 135.301 1794.47 139.801 1794.47 144.801V215.001H1744.97Z" fill="white"/>
</g>
<defs>
<linearGradient id="paint0_linear_1443_222" x1="1116.1" y1="85.2" x2="1116.1" y2="215.2" gradientUnits="userSpaceOnUse">
<stop stop-color="white"/>
<stop offset="1" stop-opacity="0"/>
</linearGradient>
<clipPath id="clip0_1443_222">
<rect width="2034" height="273" fill="white"/>
</clipPath>
</defs>
</svg>
