<svg width="1932" height="302" viewBox="0 0 1932 302" fill="none" xmlns="http://www.w3.org/2000/svg">
<path fill-rule="evenodd" clip-rule="evenodd" d="M0.199219 298V5.9999H70.038L189.785 169.143C189.534 166.688 189.282 164.246 189.031 161.817L189.021 161.715L189.013 161.613C188.48 153.875 187.946 146.003 187.413 137.999L187.406 137.9L187.403 137.8C187.136 129.789 186.869 121.113 186.602 111.771L186.599 111.686V5.9999H264.599V298H193.981L75.2476 138.036C75.444 140.172 75.6191 142.235 75.7728 144.226C76.5774 151.217 77.1195 157.583 77.3924 163.315C77.6612 168.96 77.7968 174.605 77.7992 180.25C78.0669 185.666 78.1992 191.718 78.1992 198.4V298H0.199219ZM71.7992 180.4C71.7992 174.8 71.6659 169.2 71.3992 163.6C71.1326 158 70.5992 151.733 69.7992 144.8C69.4206 139.878 68.9075 134.485 68.2601 128.622C67.9956 126.227 67.7086 123.752 67.3992 121.2C67.2758 119.801 67.1461 118.358 67.01 116.871L196.999 292H258.599V11.9999H192.599V111.6C192.866 120.933 193.133 129.6 193.399 137.6C193.933 145.6 194.466 153.467 194.999 161.2C195.594 166.953 196.189 172.779 196.785 178.679C196.989 180.711 197.194 182.751 197.399 184.8C197.586 186.672 197.788 188.566 198.005 190.481L66.9992 11.9999H6.19922V292H72.1992V198.4C72.1992 191.733 72.0659 185.733 71.7992 180.4ZM298.855 298V5.9999H591.034L646.582 87.2259L699.827 5.9999H1016.7V77.9999H931.499V298H851.499V77.9999H768.299V42.4122L692.465 153.066L797.635 298H699.921L642.239 214.534L585.03 298H298.855ZM581.868 292L642.219 203.951L703.068 292H785.868L685.123 153.164L774.299 23.0438V71.9999H857.499V292H925.499V71.9999H1010.7V11.9999H703.068L646.687 98.0092L587.868 11.9999H505.068L603.505 148.679L504.055 290.591V234H370.855V177.2H482.055V122H370.855V69.9999H500.055V11.9999H304.855V292H581.868ZM506.055 23.6378V75.9999H376.855V116H488.055V183.2H376.855V228H510.055V271.574L596.145 148.727L506.055 23.6378ZM974.165 212.4V141.6H1124.56V212.4H974.165ZM1137.07 210.985L1137.07 210.971C1129.84 192.355 1126.26 172.279 1126.26 150.8C1126.26 129.296 1129.99 109.436 1137.52 91.2983L1137.53 91.2774L1137.54 91.2566C1145.32 72.9204 1156.31 56.9098 1170.5 43.2733C1184.7 29.6353 1201.38 19.0855 1220.48 11.6124L1220.49 11.6071L1220.5 11.6019C1239.92 4.11251 1260.93 0.399902 1283.46 0.399902C1299.44 0.399902 1314.55 2.46651 1328.74 6.63915C1343.08 10.7763 1356.12 16.4529 1367.82 23.6983C1379.49 30.9248 1389.45 39.3194 1397.63 48.9062L1401.12 53.0051L1352.07 104.916L1347.71 100.728C1341.34 94.6145 1334.77 89.5706 1328 85.5617L1327.96 85.5361L1327.92 85.5099C1321.44 81.5234 1314.45 78.401 1306.94 76.1469L1306.85 76.1208L1306.76 76.092C1299.42 73.6441 1291.53 72.3999 1283.06 72.3999C1272.08 72.3999 1262.11 74.3899 1253.07 78.2944C1244.21 82.239 1236.32 87.7818 1229.38 94.9647C1222.78 101.812 1217.6 110.047 1213.86 119.754L1213.85 119.778L1213.84 119.803C1210.15 129.167 1208.26 139.477 1208.26 150.8C1208.26 162.072 1210.26 172.493 1214.21 182.123C1218.2 191.835 1223.64 200.24 1230.54 207.393C1237.44 214.279 1245.58 219.847 1255.03 224.084C1264.65 228.018 1274.91 230 1285.86 230C1293.47 230 1300.49 228.775 1306.98 226.373L1307.01 226.361L1307.04 226.349C1313.92 223.895 1319.66 220.634 1324.38 216.628C1329.11 212.602 1332.88 207.892 1335.72 202.474C1337.08 199.73 1338.11 196.908 1338.8 194H1271.46V128.8H1414.07L1414.96 133.727C1415.56 137.024 1415.98 141.313 1416.25 146.485C1416.52 151.591 1416.66 156.574 1416.66 161.431C1416.92 166.176 1417.06 169.856 1417.06 172.4C1417.06 191.276 1413.59 208.765 1406.57 224.786C1399.84 240.467 1390.3 254.085 1377.95 265.59C1365.62 277.083 1351.08 286.012 1334.41 292.402C1317.67 298.821 1299.6 302 1280.26 302C1257.21 302 1236.18 298.294 1217.25 290.776C1198.4 283.292 1182.1 272.719 1168.42 259.043C1154.76 245.38 1144.31 229.346 1137.08 210.999L1137.07 210.985ZM1401.06 222.4C1407.73 207.2 1411.06 190.533 1411.06 172.4C1411.06 170 1410.93 166.4 1410.66 161.6C1410.66 156.8 1410.53 151.867 1410.26 146.8C1410 141.733 1409.6 137.733 1409.06 134.8H1277.46V188H1345.75C1345.62 190.033 1345.35 192.033 1344.95 194C1344.16 197.86 1342.86 201.594 1341.06 205.2C1337.86 211.333 1333.6 216.667 1328.26 221.2C1322.93 225.733 1316.53 229.333 1309.06 232C1301.86 234.667 1294.13 236 1285.86 236C1274.13 236 1263.06 233.867 1252.66 229.6C1242.53 225.067 1233.73 219.067 1226.26 211.6C1218.8 203.867 1212.93 194.8 1208.66 184.4C1204.4 174 1202.26 162.8 1202.26 150.8C1202.26 138.8 1204.26 127.733 1208.26 117.6C1212.26 107.2 1217.86 98.2666 1225.06 90.7999C1232.53 83.0666 1241.06 77.0666 1250.66 72.7999C1260.53 68.5332 1271.33 66.3999 1283.06 66.3999C1292.13 66.3999 1300.66 67.7333 1308.66 70.3999C1316.66 72.7999 1324.13 76.1332 1331.06 80.3999C1337.71 84.3424 1344.14 89.1957 1350.34 94.9597C1350.85 95.4336 1351.36 95.9137 1351.86 96.3999L1351.87 96.3959L1393.06 52.7999C1385.33 43.7332 1375.86 35.7332 1364.66 28.7999C1353.46 21.8666 1340.93 16.3999 1327.06 12.3999C1313.46 8.3999 1298.93 6.3999 1283.46 6.3999C1261.6 6.3999 1241.33 9.9999 1222.66 17.1999C1204.26 24.3999 1188.26 34.5332 1174.66 47.5999C1161.06 60.6666 1150.53 75.9999 1143.06 93.5999C1135.86 110.933 1132.26 130 1132.26 150.8C1132.26 171.6 1135.73 190.933 1142.66 208.8C1149.6 226.4 1159.6 241.733 1172.66 254.8C1185.73 267.867 1201.33 278 1219.46 285.2C1237.6 292.4 1257.86 296 1280.26 296C1298.93 296 1316.26 292.933 1332.26 286.8C1348.26 280.667 1362.13 272.133 1373.86 261.2C1385.6 250.267 1394.66 237.333 1401.06 222.4ZM1433.15 298V5.9999H1640.35V75.9999H1511.15V116H1622.35V183.2H1511.15V228H1644.35V298H1433.15ZM1505.15 234V177.2H1616.35V122H1505.15V69.9999H1634.35V11.9999H1439.15V292H1638.35V234H1505.15ZM1666.96 298V5.9999H1736.8L1856.55 169.143C1856.3 166.688 1856.05 164.246 1855.8 161.817L1855.79 161.715L1855.78 161.613C1855.25 153.875 1854.71 146.003 1854.18 137.999L1854.17 137.9L1854.17 137.8C1853.9 129.789 1853.63 121.113 1853.37 111.771L1853.36 111.686V5.9999H1931.36V298H1860.75L1742.01 138.036C1742.21 140.172 1742.38 142.235 1742.54 144.225C1743.34 151.217 1743.89 157.583 1744.16 163.315C1744.43 168.96 1744.56 174.606 1744.56 180.252C1744.83 185.667 1744.96 191.719 1744.96 198.4V298H1666.96ZM1738.56 180.4C1738.56 174.8 1738.43 169.2 1738.16 163.6C1737.9 158 1737.36 151.733 1736.56 144.8C1736.19 139.878 1735.67 134.485 1735.03 128.622C1734.76 126.227 1734.47 123.752 1734.16 121.2C1734.04 119.801 1733.91 118.358 1733.78 116.871L1863.76 292H1925.36V11.9999H1859.36V111.6C1859.63 120.933 1859.9 129.6 1860.16 137.6C1860.7 145.6 1861.23 153.467 1861.76 161.2C1862.36 166.952 1862.96 172.779 1863.55 178.679C1863.76 180.711 1863.96 182.751 1864.16 184.8C1864.35 186.672 1864.55 188.566 1864.77 190.481L1733.76 11.9999H1672.96V292H1738.96V198.4C1738.96 191.733 1738.83 185.733 1738.56 180.4ZM980.165 206.4H1118.56V147.6H980.165V206.4Z" fill="url(#paint0_linear_1372_31)" fill-opacity="0.21"/>
<defs>
<linearGradient id="paint0_linear_1372_31" x1="966" y1="-58.0001" x2="960.996" y2="340.5" gradientUnits="userSpaceOnUse">
<stop stop-color="white"/>
<stop offset="0.875" stop-color="white" stop-opacity="0"/>
</linearGradient>
</defs>
</svg>
