<svg width="2034" height="274" viewBox="0 0 2034 274" fill="none" xmlns="http://www.w3.org/2000/svg">
<path fill-rule="evenodd" clip-rule="evenodd" d="M0.398438 217.001V5.00078H47.5049L143.862 136.277C143.842 136.084 143.823 135.892 143.803 135.7C143.204 129.701 142.604 123.803 142.004 118.004L142.002 117.987L142.001 117.97C141.601 112.169 141.201 106.268 140.801 100.267L140.8 100.251L140.799 100.234C140.599 94.2323 140.399 87.7307 140.199 80.7293L140.198 80.7151V5.00078H191.698V217.001H143.995L48.3319 88.1175C49.1119 94.5844 49.6995 100.381 50.094 105.505C50.6948 110.715 51.0963 115.431 51.2973 119.653C51.4977 123.861 51.598 128.068 51.5984 132.276C51.7986 136.29 51.8984 140.798 51.8984 145.801V217.001H0.398438ZM50.5984 132.301C50.5984 128.101 50.4984 123.901 50.2984 119.701C50.0984 115.501 49.6984 110.801 49.0984 105.601C48.6984 100.401 48.0984 94.5008 47.2984 87.9008C47.2597 87.4614 47.2201 87.0161 47.1796 86.565C47.1235 85.9392 47.0658 85.3022 47.0065 84.6539L144.498 216.001H190.698V6.00078H141.198V80.7008C141.398 87.7008 141.598 94.2008 141.798 100.201C142.198 106.201 142.598 112.101 142.998 117.901C143.598 123.701 144.198 129.601 144.798 135.601C144.874 136.354 144.952 137.111 145.034 137.874C145.104 138.533 145.177 139.196 145.252 139.862L46.9984 6.00078H1.39844V216.001H50.8984V145.801C50.8984 140.801 50.7984 136.301 50.5984 132.301ZM294.891 217.001V5.00078H443.291V50.5008H346.391V87.5008H429.791V130.901H346.391V171.501H446.291V217.001H294.891ZM345.391 172.501V129.901H428.791V88.5008H345.391V49.5008H442.291V6.00078H295.891V216.001H445.291V172.501H345.391ZM664.526 217.001L619.417 151.728L574.677 217.001H513.128L589.151 108.518L514.597 5.00078H579.178L622.747 68.7105L664.51 5.00078H726.048L652.815 111.858L729.111 217.001H664.526ZM651.591 111.874L724.15 6.00078H665.05L622.764 70.5078L578.65 6.00078H516.55L590.378 108.51L515.05 216.001H574.15L619.413 149.964L665.05 216.001H727.15L651.591 111.874ZM850.373 217.001V52.0008H787.973V5.00078H967.273V52.0008H903.373V217.001H850.373ZM902.373 51.0008H966.273V6.00078H788.973V51.0008H851.373V216.001H902.373V51.0008ZM1012.87 152.801V106.701H1118.67V152.801H1012.87ZM1205.31 153.967L1205.31 153.963C1200.06 140.438 1197.45 125.814 1197.45 110.101C1197.45 94.3834 1200.17 79.9513 1205.62 66.8172L1205.62 66.8102C1211.28 53.4875 1219.25 41.8746 1229.55 31.9797C1239.85 22.0845 1251.96 14.415 1265.88 8.96954L1265.89 8.96777C1280.01 3.51955 1295.33 0.800781 1311.85 0.800781C1323.53 0.800781 1334.53 2.31184 1344.82 5.34052C1355.3 8.3634 1364.79 12.4984 1373.27 17.7505C1381.75 22.9994 1388.93 29.0651 1394.81 35.9518L1395.39 36.635L1363.18 70.7202L1362.45 70.0222C1357.5 65.2699 1352.36 61.3181 1347.04 58.1611L1347.03 58.1568L1347.02 58.1524C1341.9 54.9991 1336.38 52.5343 1330.46 50.7586L1330.44 50.7543L1330.43 50.7495C1324.54 48.7859 1318.25 47.8008 1311.55 47.8008C1302.87 47.8008 1294.91 49.3767 1287.65 52.5158C1280.57 55.6622 1274.28 60.0865 1268.76 65.7954C1263.46 71.2916 1259.33 77.8753 1256.38 85.5598L1256.38 85.568C1253.43 93.0397 1251.95 101.214 1251.95 110.101C1251.95 118.979 1253.52 127.25 1256.67 134.921C1259.82 142.607 1264.15 149.297 1269.66 155.001C1275.16 160.503 1281.65 164.931 1289.14 168.281C1296.81 171.426 1304.98 173.001 1313.65 173.001C1319.74 173.001 1325.42 172.019 1330.7 170.063L1330.71 170.059C1336.21 168.094 1340.9 165.451 1344.8 162.139C1348.7 158.823 1351.82 154.926 1354.16 150.445C1355.97 146.807 1357.08 142.994 1357.48 139.001H1306.35V97.1008H1406.88L1407.03 97.9219C1407.44 100.183 1407.74 103.231 1407.94 107.048C1408.14 110.855 1408.24 114.562 1408.25 118.172C1408.44 121.763 1408.55 124.476 1408.55 126.301C1408.55 140.023 1406.02 152.659 1400.96 164.195C1396.11 175.521 1389.23 185.336 1380.33 193.632C1371.43 201.926 1360.91 208.392 1348.8 213.035C1336.68 217.682 1323.56 220.001 1309.45 220.001C1292.54 220.001 1277.21 217.283 1263.48 211.83C1249.76 206.383 1237.94 198.71 1228.04 188.808C1218.14 178.909 1210.56 167.292 1205.31 153.967ZM1400.05 163.801C1405.05 152.401 1407.55 139.901 1407.55 126.301C1407.55 124.501 1407.45 121.801 1407.25 118.201C1407.25 114.601 1407.15 110.901 1406.95 107.101C1406.75 103.301 1406.45 100.301 1406.05 98.1008H1307.35V138.001H1358.56C1358.54 138.335 1358.52 138.669 1358.48 139.001C1358.08 143.154 1356.94 147.12 1355.05 150.901C1352.65 155.501 1349.45 159.501 1345.45 162.901C1341.45 166.301 1336.65 169.001 1331.05 171.001C1325.65 173.001 1319.85 174.001 1313.65 174.001C1304.85 174.001 1296.55 172.401 1288.75 169.201C1281.15 165.801 1274.55 161.301 1268.95 155.701C1263.35 149.901 1258.95 143.101 1255.75 135.301C1252.55 127.501 1250.95 119.101 1250.95 110.101C1250.95 101.101 1252.45 92.8008 1255.45 85.2008C1258.45 77.4008 1262.65 70.7008 1268.05 65.1008C1273.65 59.3008 1280.05 54.8008 1287.25 51.6008C1294.65 48.4008 1302.75 46.8008 1311.55 46.8008C1318.35 46.8008 1324.75 47.8008 1330.75 49.8008C1336.75 51.6008 1342.35 54.1008 1347.55 57.3008C1352.68 60.3465 1357.64 64.1168 1362.42 68.6119C1362.66 68.8397 1362.9 69.0693 1363.15 69.3008L1394.05 36.6008C1388.25 29.8008 1381.15 23.8008 1372.75 18.6008C1364.35 13.4008 1354.95 9.30079 1344.55 6.30077C1334.35 3.30078 1323.45 1.80078 1311.85 1.80078C1295.45 1.80078 1280.25 4.50078 1266.25 9.90078C1252.45 15.3008 1240.45 22.9008 1230.25 32.7008C1220.05 42.5008 1212.15 54.0008 1206.55 67.2008C1201.15 80.2008 1198.45 94.5008 1198.45 110.101C1198.45 125.701 1201.05 140.201 1206.25 153.601C1211.45 166.801 1218.95 178.301 1228.75 188.101C1238.55 197.901 1250.25 205.501 1263.85 210.901C1277.45 216.301 1292.65 219.001 1309.45 219.001C1323.45 219.001 1336.45 216.701 1348.45 212.101C1360.45 207.501 1370.85 201.101 1379.65 192.901C1388.45 184.701 1395.25 175.001 1400.05 163.801ZM1498.11 217.001V5.00078H1646.51V50.5008H1549.61V87.5008H1633.01V130.901H1549.61V171.501H1649.51V217.001H1498.11ZM1548.61 172.501V129.901H1632.01V88.5008H1548.61V49.5008H1645.51V6.00078H1499.11V216.001H1648.51V172.501H1548.61ZM1743.97 217.001V5.00078H1791.08L1887.44 136.277C1887.42 136.084 1887.4 135.892 1887.38 135.7C1886.78 129.701 1886.18 123.803 1885.58 118.004L1885.58 117.987L1885.57 117.97C1885.17 112.169 1884.77 106.268 1884.37 100.267L1884.37 100.251L1884.37 100.234C1884.17 94.2323 1883.97 87.7307 1883.77 80.7293L1883.77 80.7151V5.00078H1935.27V217.001H1887.57L1791.91 88.1175C1792.69 94.5846 1793.27 100.381 1793.67 105.506C1794.27 110.715 1794.67 115.431 1794.87 119.653C1795.07 123.861 1795.17 128.068 1795.17 132.275C1795.37 136.289 1795.47 140.798 1795.47 145.801V217.001H1743.97ZM1794.17 132.301C1794.17 128.101 1794.07 123.901 1793.87 119.701C1793.67 115.501 1793.27 110.801 1792.67 105.601C1792.27 100.401 1791.67 94.5008 1790.87 87.9008C1790.83 87.4614 1790.79 87.0162 1790.75 86.5651C1790.7 85.9393 1790.64 85.3023 1790.58 84.654L1888.07 216.001H1934.27V6.00078H1884.77V80.7008C1884.97 87.7008 1885.17 94.2008 1885.37 100.201C1885.77 106.201 1886.17 112.101 1886.57 117.901C1887.17 123.701 1887.77 129.601 1888.37 135.601C1888.45 136.354 1888.53 137.112 1888.61 137.874C1888.68 138.533 1888.75 139.196 1888.83 139.862L1790.57 6.00078H1744.97V216.001H1794.47V145.801C1794.47 140.801 1794.37 136.301 1794.17 132.301ZM1935.27 273.601V232.301L2033.5 227.5V268.8L1935.27 273.601ZM1013.87 151.801H1117.67V107.701H1013.87V151.801ZM1936.27 272.601L2032.5 267.8V228.5L1936.27 233.301V272.601Z" fill="url(#paint0_linear_1443_185)" fill-opacity="0.8"/>
<defs>
<linearGradient id="paint0_linear_1443_185" x1="1116.5" y1="86.0008" x2="1116.5" y2="216.001" gradientUnits="userSpaceOnUse">
<stop stop-color="white"/>
<stop offset="1" stop-opacity="0"/>
</linearGradient>
</defs>
</svg>
