<svg width="779" height="106" viewBox="0 0 779 106" fill="none" xmlns="http://www.w3.org/2000/svg">
<mask id="path-1-outside-1_1580_184" maskUnits="userSpaceOnUse" x="0" y="0.899902" width="779" height="106" fill="black">
<rect fill="white" y="0.899902" width="779" height="106"/>
<path d="M1 81.9999V11.9999H32.5C36.9667 11.9999 41 12.9666 44.6 14.8999C48.2667 16.8332 51.1333 19.4999 53.2 22.8999C55.2667 26.2332 56.3 30.0332 56.3 34.2999C56.3 38.6999 55.2667 42.6666 53.2 46.1999C51.1333 49.6666 48.3 52.3999 44.7 54.3999C41.1 56.3999 37.0333 57.3999 32.5 57.3999H17.2V81.9999H1ZM39.8 81.9999L22 50.3999L39.4 47.8999L59.2 81.9999H39.8ZM17.2 44.3999H31C32.7333 44.3999 34.2333 44.0332 35.5 43.2999C36.8333 42.4999 37.8333 41.3999 38.5 39.9999C39.2333 38.5999 39.6 36.9999 39.6 35.1999C39.6 33.3999 39.2 31.8332 38.4 30.4999C37.6 29.0999 36.4333 28.0332 34.9 27.2999C33.4333 26.5666 31.6333 26.1999 29.5 26.1999H17.2V44.3999Z"/>
<path d="M92.8617 82.9999C86.9951 82.9999 81.895 81.8332 77.5617 79.4999C73.2284 77.0999 69.8617 73.8666 67.4617 69.7999C65.0617 65.6666 63.8617 60.9666 63.8617 55.6999C63.8617 51.6332 64.5284 47.8999 65.8617 44.4999C67.1951 41.0999 69.0617 38.1666 71.4617 35.6999C73.8617 33.1666 76.695 31.2332 79.9617 29.8999C83.295 28.4999 86.9284 27.7999 90.8617 27.7999C94.5951 27.7999 97.995 28.4666 101.062 29.7999C104.195 31.1332 106.895 32.9999 109.162 35.3999C111.428 37.7999 113.162 40.6332 114.362 43.8999C115.562 47.1666 116.095 50.7332 115.962 54.5999L115.862 58.8999H73.5617L71.2617 49.8999H102.862L101.162 51.7999V49.7999C101.028 48.1332 100.495 46.6666 99.5617 45.3999C98.6951 44.0666 97.5284 43.0332 96.0617 42.2999C94.595 41.5666 92.9284 41.1999 91.0617 41.1999C88.4617 41.1999 86.2284 41.7332 84.3617 42.7999C82.5617 43.7999 81.1951 45.2999 80.2617 47.2999C79.3284 49.2332 78.8617 51.6332 78.8617 54.4999C78.8617 57.4332 79.4617 59.9999 80.6617 62.1999C81.9284 64.3332 83.7284 65.9999 86.0617 67.1999C88.4617 68.3999 91.295 68.9999 94.5617 68.9999C96.8284 68.9999 98.8284 68.6666 100.562 67.9999C102.362 67.3332 104.295 66.1999 106.362 64.5999L113.862 75.1999C111.795 76.9999 109.595 78.4666 107.262 79.5999C104.928 80.7332 102.528 81.5666 100.062 82.0999C97.6617 82.6999 95.2617 82.9999 92.8617 82.9999Z"/>
<path d="M141.479 81.9999L119.279 28.8999H136.979L150.179 68.5999L146.279 68.9999L159.879 28.8999H177.379L154.079 81.9999H141.479Z"/>
<path d="M209.261 82.9999C203.728 82.9999 198.794 81.7999 194.461 79.3999C190.194 76.9999 186.794 73.7332 184.261 69.5999C181.794 65.4666 180.561 60.7332 180.561 55.3999C180.561 50.0666 181.794 45.3332 184.261 41.1999C186.794 37.0666 190.194 33.7999 194.461 31.3999C198.794 28.9999 203.728 27.7999 209.261 27.7999C214.794 27.7999 219.694 28.9999 223.961 31.3999C228.294 33.7999 231.694 37.0666 234.161 41.1999C236.628 45.3332 237.861 50.0666 237.861 55.3999C237.861 60.7332 236.628 65.4666 234.161 69.5999C231.694 73.7332 228.294 76.9999 223.961 79.3999C219.694 81.7999 214.794 82.9999 209.261 82.9999ZM209.261 69.1999C211.661 69.1999 213.794 68.5999 215.661 67.3999C217.528 66.1999 218.994 64.5666 220.061 62.4999C221.128 60.4332 221.628 58.0666 221.561 55.3999C221.628 52.7332 221.128 50.3666 220.061 48.2999C218.994 46.1666 217.528 44.4999 215.661 43.2999C213.794 42.0999 211.661 41.4999 209.261 41.4999C206.861 41.4999 204.694 42.0999 202.761 43.2999C200.894 44.4999 199.428 46.1666 198.361 48.2999C197.294 50.3666 196.794 52.7332 196.861 55.3999C196.794 58.0666 197.294 60.4332 198.361 62.4999C199.428 64.5666 200.894 66.1999 202.761 67.3999C204.694 68.5999 206.861 69.1999 209.261 69.1999Z"/>
<path d="M248.423 81.9999V7.99991H264.423V81.9999H248.423Z"/>
<path d="M296.306 83.0999C292.373 83.0999 289.006 82.2666 286.206 80.5999C283.473 78.8666 281.34 76.3999 279.806 73.1999C278.34 69.9999 277.606 66.1666 277.606 61.6999V28.8999H293.706V59.4999C293.706 61.6332 294.04 63.4666 294.706 64.9999C295.373 66.5332 296.373 67.7332 297.706 68.5999C299.04 69.3999 300.64 69.7999 302.506 69.7999C303.906 69.7999 305.173 69.5666 306.306 69.0999C307.506 68.6332 308.506 67.9999 309.306 67.1999C310.173 66.3332 310.84 65.3666 311.306 64.2999C311.773 63.1666 312.006 61.9332 312.006 60.5999V28.8999H328.106V81.9999H313.006L312.306 71.0999L315.306 69.8999C314.506 72.4332 313.173 74.6999 311.306 76.6999C309.44 78.6332 307.206 80.1999 304.606 81.3999C302.006 82.5332 299.24 83.0999 296.306 83.0999Z"/>
<path d="M346.766 81.9999V15.4999H362.766V81.9999H346.766ZM337.366 42.8999V28.8999H373.066V42.8999H337.366Z"/>
<path d="M383.11 81.9999V28.8999H399.11V81.9999H383.11ZM391.11 18.3999C388.11 18.3999 385.743 17.6999 384.01 16.2999C382.343 14.8332 381.51 12.7666 381.51 10.0999C381.51 7.6999 382.377 5.73324 384.11 4.1999C385.844 2.66657 388.177 1.8999 391.11 1.8999C394.11 1.8999 396.444 2.63324 398.11 4.0999C399.777 5.4999 400.61 7.49991 400.61 10.0999C400.61 12.5666 399.743 14.5666 398.01 16.0999C396.343 17.6332 394.044 18.3999 391.11 18.3999Z"/>
<path d="M439.144 82.9999C433.61 82.9999 428.677 81.7999 424.344 79.3999C420.077 76.9999 416.677 73.7332 414.144 69.5999C411.677 65.4666 410.444 60.7332 410.444 55.3999C410.444 50.0666 411.677 45.3332 414.144 41.1999C416.677 37.0666 420.077 33.7999 424.344 31.3999C428.677 28.9999 433.61 27.7999 439.144 27.7999C444.677 27.7999 449.577 28.9999 453.844 31.3999C458.177 33.7999 461.577 37.0666 464.044 41.1999C466.51 45.3332 467.744 50.0666 467.744 55.3999C467.744 60.7332 466.51 65.4666 464.044 69.5999C461.577 73.7332 458.177 76.9999 453.844 79.3999C449.577 81.7999 444.677 82.9999 439.144 82.9999ZM439.144 69.1999C441.544 69.1999 443.677 68.5999 445.544 67.3999C447.41 66.1999 448.877 64.5666 449.944 62.4999C451.01 60.4332 451.51 58.0666 451.444 55.3999C451.51 52.7332 451.01 50.3666 449.944 48.2999C448.877 46.1666 447.41 44.4999 445.544 43.2999C443.677 42.0999 441.544 41.4999 439.144 41.4999C436.744 41.4999 434.577 42.0999 432.644 43.2999C430.777 44.4999 429.31 46.1666 428.244 48.2999C427.177 50.3666 426.677 52.7332 426.744 55.3999C426.677 58.0666 427.177 60.4332 428.244 62.4999C429.31 64.5666 430.777 66.1999 432.644 67.3999C434.577 68.5999 436.744 69.1999 439.144 69.1999Z"/>
<path d="M478.206 81.9999V28.8999H493.406L493.906 39.6999L490.706 40.8999C491.44 38.4999 492.74 36.3332 494.606 34.3999C496.54 32.3999 498.84 30.7999 501.506 29.5999C504.173 28.3999 506.973 27.7999 509.906 27.7999C513.906 27.7999 517.273 28.6332 520.006 30.2999C522.74 31.8999 524.806 34.3332 526.206 37.5999C527.606 40.7999 528.306 44.7332 528.306 49.3999V81.9999H512.206V50.6999C512.206 48.5666 511.906 46.7999 511.306 45.3999C510.706 43.9999 509.773 42.9666 508.506 42.2999C507.306 41.5666 505.806 41.2332 504.006 41.2999C502.606 41.2999 501.306 41.5332 500.106 41.9999C498.906 42.3999 497.873 43.0332 497.006 43.8999C496.14 44.6999 495.44 45.6332 494.906 46.6999C494.44 47.7666 494.206 48.9332 494.206 50.1999V81.9999H486.306C484.44 81.9999 482.84 81.9999 481.506 81.9999C480.173 81.9999 479.073 81.9999 478.206 81.9999Z"/>
<path d="M542.583 81.9999V28.8999H558.583V81.9999H542.583ZM550.583 18.3999C547.583 18.3999 545.216 17.6999 543.483 16.2999C541.816 14.8332 540.983 12.7666 540.983 10.0999C540.983 7.6999 541.849 5.73324 543.583 4.1999C545.316 2.66657 547.649 1.8999 550.583 1.8999C553.583 1.8999 555.916 2.63324 557.583 4.0999C559.249 5.4999 560.083 7.49991 560.083 10.0999C560.083 12.5666 559.216 14.5666 557.483 16.0999C555.816 17.6332 553.516 18.3999 550.583 18.3999Z"/>
<path d="M571.516 81.9999V72.7999L599.716 36.5999V41.8999H571.516V28.8999H615.516V38.4999L588.816 73.5999L588.416 68.9999H616.416V81.9999H571.516Z"/>
<path d="M629.497 81.9999V28.8999H645.497V81.9999H629.497ZM637.497 18.3999C634.497 18.3999 632.13 17.6999 630.397 16.2999C628.73 14.8332 627.897 12.7666 627.897 10.0999C627.897 7.6999 628.764 5.73324 630.497 4.1999C632.23 2.66657 634.564 1.8999 637.497 1.8999C640.497 1.8999 642.83 2.63324 644.497 4.0999C646.164 5.4999 646.997 7.49991 646.997 10.0999C646.997 12.5666 646.13 14.5666 644.397 16.0999C642.73 17.6332 640.43 18.3999 637.497 18.3999Z"/>
<path d="M660.53 81.9999V28.8999H675.73L676.23 39.6999L673.03 40.8999C673.764 38.4999 675.064 36.3332 676.93 34.3999C678.864 32.3999 681.164 30.7999 683.831 29.5999C686.497 28.3999 689.297 27.7999 692.23 27.7999C696.23 27.7999 699.597 28.6332 702.331 30.2999C705.064 31.8999 707.13 34.3332 708.53 37.5999C709.93 40.7999 710.63 44.7332 710.63 49.3999V81.9999H694.53V50.6999C694.53 48.5666 694.23 46.7999 693.63 45.3999C693.03 43.9999 692.097 42.9666 690.831 42.2999C689.631 41.5666 688.131 41.2332 686.331 41.2999C684.931 41.2999 683.63 41.5332 682.43 41.9999C681.23 42.3999 680.197 43.0332 679.331 43.8999C678.464 44.6999 677.764 45.6332 677.23 46.6999C676.764 47.7666 676.53 48.9332 676.53 50.1999V81.9999H668.63C666.764 81.9999 665.164 81.9999 663.831 81.9999C662.497 81.9999 661.397 81.9999 660.53 81.9999Z"/>
<path d="M748.307 105C743.974 105 739.64 104.367 735.307 103.1C731.04 101.833 727.574 100.2 724.907 98.1999L730.507 86.9999C731.907 87.9332 733.44 88.7332 735.107 89.3999C736.84 90.1332 738.64 90.6999 740.507 91.0999C742.374 91.4999 744.274 91.6999 746.207 91.6999C749.607 91.6999 752.374 91.1999 754.507 90.1999C756.64 89.1999 758.24 87.6666 759.307 85.5999C760.374 83.5999 760.907 81.0666 760.907 77.9999V69.0999L764.007 69.5999C763.54 71.7999 762.374 73.7999 760.507 75.5999C758.707 77.3999 756.474 78.8666 753.807 79.9999C751.14 81.0666 748.307 81.5999 745.307 81.5999C740.507 81.5999 736.207 80.4999 732.407 78.2999C728.674 76.0332 725.707 72.9332 723.507 68.9999C721.374 64.9999 720.307 60.3999 720.307 55.1999C720.307 49.8666 721.374 45.1666 723.507 41.0999C725.64 36.9666 728.574 33.7332 732.307 31.3999C736.04 28.9999 740.24 27.7999 744.907 27.7999C746.907 27.7999 748.807 28.0332 750.607 28.4999C752.474 28.9666 754.174 29.5999 755.707 30.3999C757.307 31.1332 758.707 32.0332 759.907 33.0999C761.174 34.0999 762.174 35.1999 762.907 36.3999C763.707 37.5999 764.24 38.8332 764.507 40.0999L761.207 40.8999L761.807 28.8999H777.007V77.6999C777.007 82.0332 776.34 85.8666 775.007 89.1999C773.74 92.5999 771.84 95.4666 769.307 97.7999C766.84 100.2 763.84 102 760.307 103.2C756.774 104.4 752.774 105 748.307 105ZM748.707 69.1999C751.307 69.1999 753.54 68.6332 755.407 67.4999C757.34 66.2999 758.807 64.6666 759.807 62.5999C760.874 60.5332 761.407 58.0999 761.407 55.2999C761.407 52.4999 760.874 50.0666 759.807 47.9999C758.807 45.8666 757.34 44.2332 755.407 43.0999C753.54 41.8999 751.307 41.2999 748.707 41.2999C746.174 41.2999 743.974 41.8999 742.107 43.0999C740.24 44.2332 738.774 45.8666 737.707 47.9999C736.707 50.0666 736.207 52.4999 736.207 55.2999C736.207 58.0999 736.707 60.5332 737.707 62.5999C738.774 64.6666 740.24 66.2999 742.107 67.4999C743.974 68.6332 746.174 69.1999 748.707 69.1999Z"/>
</mask>
<path d="M1 81.9999V11.9999H32.5C36.9667 11.9999 41 12.9666 44.6 14.8999C48.2667 16.8332 51.1333 19.4999 53.2 22.8999C55.2667 26.2332 56.3 30.0332 56.3 34.2999C56.3 38.6999 55.2667 42.6666 53.2 46.1999C51.1333 49.6666 48.3 52.3999 44.7 54.3999C41.1 56.3999 37.0333 57.3999 32.5 57.3999H17.2V81.9999H1ZM39.8 81.9999L22 50.3999L39.4 47.8999L59.2 81.9999H39.8ZM17.2 44.3999H31C32.7333 44.3999 34.2333 44.0332 35.5 43.2999C36.8333 42.4999 37.8333 41.3999 38.5 39.9999C39.2333 38.5999 39.6 36.9999 39.6 35.1999C39.6 33.3999 39.2 31.8332 38.4 30.4999C37.6 29.0999 36.4333 28.0332 34.9 27.2999C33.4333 26.5666 31.6333 26.1999 29.5 26.1999H17.2V44.3999Z" stroke="url(#paint0_linear_1580_184)" stroke-width="2" mask="url(#path-1-outside-1_1580_184)"/>
<path d="M92.8617 82.9999C86.9951 82.9999 81.895 81.8332 77.5617 79.4999C73.2284 77.0999 69.8617 73.8666 67.4617 69.7999C65.0617 65.6666 63.8617 60.9666 63.8617 55.6999C63.8617 51.6332 64.5284 47.8999 65.8617 44.4999C67.1951 41.0999 69.0617 38.1666 71.4617 35.6999C73.8617 33.1666 76.695 31.2332 79.9617 29.8999C83.295 28.4999 86.9284 27.7999 90.8617 27.7999C94.5951 27.7999 97.995 28.4666 101.062 29.7999C104.195 31.1332 106.895 32.9999 109.162 35.3999C111.428 37.7999 113.162 40.6332 114.362 43.8999C115.562 47.1666 116.095 50.7332 115.962 54.5999L115.862 58.8999H73.5617L71.2617 49.8999H102.862L101.162 51.7999V49.7999C101.028 48.1332 100.495 46.6666 99.5617 45.3999C98.6951 44.0666 97.5284 43.0332 96.0617 42.2999C94.595 41.5666 92.9284 41.1999 91.0617 41.1999C88.4617 41.1999 86.2284 41.7332 84.3617 42.7999C82.5617 43.7999 81.1951 45.2999 80.2617 47.2999C79.3284 49.2332 78.8617 51.6332 78.8617 54.4999C78.8617 57.4332 79.4617 59.9999 80.6617 62.1999C81.9284 64.3332 83.7284 65.9999 86.0617 67.1999C88.4617 68.3999 91.295 68.9999 94.5617 68.9999C96.8284 68.9999 98.8284 68.6666 100.562 67.9999C102.362 67.3332 104.295 66.1999 106.362 64.5999L113.862 75.1999C111.795 76.9999 109.595 78.4666 107.262 79.5999C104.928 80.7332 102.528 81.5666 100.062 82.0999C97.6617 82.6999 95.2617 82.9999 92.8617 82.9999Z" stroke="url(#paint1_linear_1580_184)" stroke-width="2" mask="url(#path-1-outside-1_1580_184)"/>
<path d="M141.479 81.9999L119.279 28.8999H136.979L150.179 68.5999L146.279 68.9999L159.879 28.8999H177.379L154.079 81.9999H141.479Z" stroke="url(#paint2_linear_1580_184)" stroke-width="2" mask="url(#path-1-outside-1_1580_184)"/>
<path d="M209.261 82.9999C203.728 82.9999 198.794 81.7999 194.461 79.3999C190.194 76.9999 186.794 73.7332 184.261 69.5999C181.794 65.4666 180.561 60.7332 180.561 55.3999C180.561 50.0666 181.794 45.3332 184.261 41.1999C186.794 37.0666 190.194 33.7999 194.461 31.3999C198.794 28.9999 203.728 27.7999 209.261 27.7999C214.794 27.7999 219.694 28.9999 223.961 31.3999C228.294 33.7999 231.694 37.0666 234.161 41.1999C236.628 45.3332 237.861 50.0666 237.861 55.3999C237.861 60.7332 236.628 65.4666 234.161 69.5999C231.694 73.7332 228.294 76.9999 223.961 79.3999C219.694 81.7999 214.794 82.9999 209.261 82.9999ZM209.261 69.1999C211.661 69.1999 213.794 68.5999 215.661 67.3999C217.528 66.1999 218.994 64.5666 220.061 62.4999C221.128 60.4332 221.628 58.0666 221.561 55.3999C221.628 52.7332 221.128 50.3666 220.061 48.2999C218.994 46.1666 217.528 44.4999 215.661 43.2999C213.794 42.0999 211.661 41.4999 209.261 41.4999C206.861 41.4999 204.694 42.0999 202.761 43.2999C200.894 44.4999 199.428 46.1666 198.361 48.2999C197.294 50.3666 196.794 52.7332 196.861 55.3999C196.794 58.0666 197.294 60.4332 198.361 62.4999C199.428 64.5666 200.894 66.1999 202.761 67.3999C204.694 68.5999 206.861 69.1999 209.261 69.1999Z" stroke="url(#paint3_linear_1580_184)" stroke-width="2" mask="url(#path-1-outside-1_1580_184)"/>
<path d="M248.423 81.9999V7.99991H264.423V81.9999H248.423Z" stroke="url(#paint4_linear_1580_184)" stroke-width="2" mask="url(#path-1-outside-1_1580_184)"/>
<path d="M296.306 83.0999C292.373 83.0999 289.006 82.2666 286.206 80.5999C283.473 78.8666 281.34 76.3999 279.806 73.1999C278.34 69.9999 277.606 66.1666 277.606 61.6999V28.8999H293.706V59.4999C293.706 61.6332 294.04 63.4666 294.706 64.9999C295.373 66.5332 296.373 67.7332 297.706 68.5999C299.04 69.3999 300.64 69.7999 302.506 69.7999C303.906 69.7999 305.173 69.5666 306.306 69.0999C307.506 68.6332 308.506 67.9999 309.306 67.1999C310.173 66.3332 310.84 65.3666 311.306 64.2999C311.773 63.1666 312.006 61.9332 312.006 60.5999V28.8999H328.106V81.9999H313.006L312.306 71.0999L315.306 69.8999C314.506 72.4332 313.173 74.6999 311.306 76.6999C309.44 78.6332 307.206 80.1999 304.606 81.3999C302.006 82.5332 299.24 83.0999 296.306 83.0999Z" stroke="url(#paint5_linear_1580_184)" stroke-width="2" mask="url(#path-1-outside-1_1580_184)"/>
<path d="M346.766 81.9999V15.4999H362.766V81.9999H346.766ZM337.366 42.8999V28.8999H373.066V42.8999H337.366Z" stroke="url(#paint6_linear_1580_184)" stroke-width="2" mask="url(#path-1-outside-1_1580_184)"/>
<path d="M383.11 81.9999V28.8999H399.11V81.9999H383.11ZM391.11 18.3999C388.11 18.3999 385.743 17.6999 384.01 16.2999C382.343 14.8332 381.51 12.7666 381.51 10.0999C381.51 7.6999 382.377 5.73324 384.11 4.1999C385.844 2.66657 388.177 1.8999 391.11 1.8999C394.11 1.8999 396.444 2.63324 398.11 4.0999C399.777 5.4999 400.61 7.49991 400.61 10.0999C400.61 12.5666 399.743 14.5666 398.01 16.0999C396.343 17.6332 394.044 18.3999 391.11 18.3999Z" stroke="url(#paint7_linear_1580_184)" stroke-width="2" mask="url(#path-1-outside-1_1580_184)"/>
<path d="M439.144 82.9999C433.61 82.9999 428.677 81.7999 424.344 79.3999C420.077 76.9999 416.677 73.7332 414.144 69.5999C411.677 65.4666 410.444 60.7332 410.444 55.3999C410.444 50.0666 411.677 45.3332 414.144 41.1999C416.677 37.0666 420.077 33.7999 424.344 31.3999C428.677 28.9999 433.61 27.7999 439.144 27.7999C444.677 27.7999 449.577 28.9999 453.844 31.3999C458.177 33.7999 461.577 37.0666 464.044 41.1999C466.51 45.3332 467.744 50.0666 467.744 55.3999C467.744 60.7332 466.51 65.4666 464.044 69.5999C461.577 73.7332 458.177 76.9999 453.844 79.3999C449.577 81.7999 444.677 82.9999 439.144 82.9999ZM439.144 69.1999C441.544 69.1999 443.677 68.5999 445.544 67.3999C447.41 66.1999 448.877 64.5666 449.944 62.4999C451.01 60.4332 451.51 58.0666 451.444 55.3999C451.51 52.7332 451.01 50.3666 449.944 48.2999C448.877 46.1666 447.41 44.4999 445.544 43.2999C443.677 42.0999 441.544 41.4999 439.144 41.4999C436.744 41.4999 434.577 42.0999 432.644 43.2999C430.777 44.4999 429.31 46.1666 428.244 48.2999C427.177 50.3666 426.677 52.7332 426.744 55.3999C426.677 58.0666 427.177 60.4332 428.244 62.4999C429.31 64.5666 430.777 66.1999 432.644 67.3999C434.577 68.5999 436.744 69.1999 439.144 69.1999Z" stroke="url(#paint8_linear_1580_184)" stroke-width="2" mask="url(#path-1-outside-1_1580_184)"/>
<path d="M478.206 81.9999V28.8999H493.406L493.906 39.6999L490.706 40.8999C491.44 38.4999 492.74 36.3332 494.606 34.3999C496.54 32.3999 498.84 30.7999 501.506 29.5999C504.173 28.3999 506.973 27.7999 509.906 27.7999C513.906 27.7999 517.273 28.6332 520.006 30.2999C522.74 31.8999 524.806 34.3332 526.206 37.5999C527.606 40.7999 528.306 44.7332 528.306 49.3999V81.9999H512.206V50.6999C512.206 48.5666 511.906 46.7999 511.306 45.3999C510.706 43.9999 509.773 42.9666 508.506 42.2999C507.306 41.5666 505.806 41.2332 504.006 41.2999C502.606 41.2999 501.306 41.5332 500.106 41.9999C498.906 42.3999 497.873 43.0332 497.006 43.8999C496.14 44.6999 495.44 45.6332 494.906 46.6999C494.44 47.7666 494.206 48.9332 494.206 50.1999V81.9999H486.306C484.44 81.9999 482.84 81.9999 481.506 81.9999C480.173 81.9999 479.073 81.9999 478.206 81.9999Z" stroke="url(#paint9_linear_1580_184)" stroke-width="2" mask="url(#path-1-outside-1_1580_184)"/>
<path d="M542.583 81.9999V28.8999H558.583V81.9999H542.583ZM550.583 18.3999C547.583 18.3999 545.216 17.6999 543.483 16.2999C541.816 14.8332 540.983 12.7666 540.983 10.0999C540.983 7.6999 541.849 5.73324 543.583 4.1999C545.316 2.66657 547.649 1.8999 550.583 1.8999C553.583 1.8999 555.916 2.63324 557.583 4.0999C559.249 5.4999 560.083 7.49991 560.083 10.0999C560.083 12.5666 559.216 14.5666 557.483 16.0999C555.816 17.6332 553.516 18.3999 550.583 18.3999Z" stroke="url(#paint10_linear_1580_184)" stroke-width="2" mask="url(#path-1-outside-1_1580_184)"/>
<path d="M571.516 81.9999V72.7999L599.716 36.5999V41.8999H571.516V28.8999H615.516V38.4999L588.816 73.5999L588.416 68.9999H616.416V81.9999H571.516Z" stroke="url(#paint11_linear_1580_184)" stroke-width="2" mask="url(#path-1-outside-1_1580_184)"/>
<path d="M629.497 81.9999V28.8999H645.497V81.9999H629.497ZM637.497 18.3999C634.497 18.3999 632.13 17.6999 630.397 16.2999C628.73 14.8332 627.897 12.7666 627.897 10.0999C627.897 7.6999 628.764 5.73324 630.497 4.1999C632.23 2.66657 634.564 1.8999 637.497 1.8999C640.497 1.8999 642.83 2.63324 644.497 4.0999C646.164 5.4999 646.997 7.49991 646.997 10.0999C646.997 12.5666 646.13 14.5666 644.397 16.0999C642.73 17.6332 640.43 18.3999 637.497 18.3999Z" stroke="url(#paint12_linear_1580_184)" stroke-width="2" mask="url(#path-1-outside-1_1580_184)"/>
<path d="M660.53 81.9999V28.8999H675.73L676.23 39.6999L673.03 40.8999C673.764 38.4999 675.064 36.3332 676.93 34.3999C678.864 32.3999 681.164 30.7999 683.831 29.5999C686.497 28.3999 689.297 27.7999 692.23 27.7999C696.23 27.7999 699.597 28.6332 702.331 30.2999C705.064 31.8999 707.13 34.3332 708.53 37.5999C709.93 40.7999 710.63 44.7332 710.63 49.3999V81.9999H694.53V50.6999C694.53 48.5666 694.23 46.7999 693.63 45.3999C693.03 43.9999 692.097 42.9666 690.831 42.2999C689.631 41.5666 688.131 41.2332 686.331 41.2999C684.931 41.2999 683.63 41.5332 682.43 41.9999C681.23 42.3999 680.197 43.0332 679.331 43.8999C678.464 44.6999 677.764 45.6332 677.23 46.6999C676.764 47.7666 676.53 48.9332 676.53 50.1999V81.9999H668.63C666.764 81.9999 665.164 81.9999 663.831 81.9999C662.497 81.9999 661.397 81.9999 660.53 81.9999Z" stroke="url(#paint13_linear_1580_184)" stroke-width="2" mask="url(#path-1-outside-1_1580_184)"/>
<path d="M748.307 105C743.974 105 739.64 104.367 735.307 103.1C731.04 101.833 727.574 100.2 724.907 98.1999L730.507 86.9999C731.907 87.9332 733.44 88.7332 735.107 89.3999C736.84 90.1332 738.64 90.6999 740.507 91.0999C742.374 91.4999 744.274 91.6999 746.207 91.6999C749.607 91.6999 752.374 91.1999 754.507 90.1999C756.64 89.1999 758.24 87.6666 759.307 85.5999C760.374 83.5999 760.907 81.0666 760.907 77.9999V69.0999L764.007 69.5999C763.54 71.7999 762.374 73.7999 760.507 75.5999C758.707 77.3999 756.474 78.8666 753.807 79.9999C751.14 81.0666 748.307 81.5999 745.307 81.5999C740.507 81.5999 736.207 80.4999 732.407 78.2999C728.674 76.0332 725.707 72.9332 723.507 68.9999C721.374 64.9999 720.307 60.3999 720.307 55.1999C720.307 49.8666 721.374 45.1666 723.507 41.0999C725.64 36.9666 728.574 33.7332 732.307 31.3999C736.04 28.9999 740.24 27.7999 744.907 27.7999C746.907 27.7999 748.807 28.0332 750.607 28.4999C752.474 28.9666 754.174 29.5999 755.707 30.3999C757.307 31.1332 758.707 32.0332 759.907 33.0999C761.174 34.0999 762.174 35.1999 762.907 36.3999C763.707 37.5999 764.24 38.8332 764.507 40.0999L761.207 40.8999L761.807 28.8999H777.007V77.6999C777.007 82.0332 776.34 85.8666 775.007 89.1999C773.74 92.5999 771.84 95.4666 769.307 97.7999C766.84 100.2 763.84 102 760.307 103.2C756.774 104.4 752.774 105 748.307 105ZM748.707 69.1999C751.307 69.1999 753.54 68.6332 755.407 67.4999C757.34 66.2999 758.807 64.6666 759.807 62.5999C760.874 60.5332 761.407 58.0999 761.407 55.2999C761.407 52.4999 760.874 50.0666 759.807 47.9999C758.807 45.8666 757.34 44.2332 755.407 43.0999C753.54 41.8999 751.307 41.2999 748.707 41.2999C746.174 41.2999 743.974 41.8999 742.107 43.0999C740.24 44.2332 738.774 45.8666 737.707 47.9999C736.707 50.0666 736.207 52.4999 736.207 55.2999C736.207 58.0999 736.707 60.5332 737.707 62.5999C738.774 64.6666 740.24 66.2999 742.107 67.4999C743.974 68.6332 746.174 69.1999 748.707 69.1999Z" stroke="url(#paint14_linear_1580_184)" stroke-width="2" mask="url(#path-1-outside-1_1580_184)"/>
<defs>
<linearGradient id="paint0_linear_1580_184" x1="389.004" y1="1.8999" x2="389.004" y2="105" gradientUnits="userSpaceOnUse">
<stop stop-color="white"/>
<stop offset="1" stop-color="white" stop-opacity="0"/>
</linearGradient>
<linearGradient id="paint1_linear_1580_184" x1="389.004" y1="1.8999" x2="389.004" y2="105" gradientUnits="userSpaceOnUse">
<stop stop-color="white"/>
<stop offset="1" stop-color="white" stop-opacity="0"/>
</linearGradient>
<linearGradient id="paint2_linear_1580_184" x1="389.004" y1="1.8999" x2="389.004" y2="105" gradientUnits="userSpaceOnUse">
<stop stop-color="white"/>
<stop offset="1" stop-color="white" stop-opacity="0"/>
</linearGradient>
<linearGradient id="paint3_linear_1580_184" x1="389.004" y1="1.8999" x2="389.004" y2="105" gradientUnits="userSpaceOnUse">
<stop stop-color="white"/>
<stop offset="1" stop-color="white" stop-opacity="0"/>
</linearGradient>
<linearGradient id="paint4_linear_1580_184" x1="389.004" y1="1.8999" x2="389.004" y2="105" gradientUnits="userSpaceOnUse">
<stop stop-color="white"/>
<stop offset="1" stop-color="white" stop-opacity="0"/>
</linearGradient>
<linearGradient id="paint5_linear_1580_184" x1="389.004" y1="1.8999" x2="389.004" y2="105" gradientUnits="userSpaceOnUse">
<stop stop-color="white"/>
<stop offset="1" stop-color="white" stop-opacity="0"/>
</linearGradient>
<linearGradient id="paint6_linear_1580_184" x1="389.004" y1="1.8999" x2="389.004" y2="105" gradientUnits="userSpaceOnUse">
<stop stop-color="white"/>
<stop offset="1" stop-color="white" stop-opacity="0"/>
</linearGradient>
<linearGradient id="paint7_linear_1580_184" x1="389.004" y1="1.8999" x2="389.004" y2="105" gradientUnits="userSpaceOnUse">
<stop stop-color="white"/>
<stop offset="1" stop-color="white" stop-opacity="0"/>
</linearGradient>
<linearGradient id="paint8_linear_1580_184" x1="389.004" y1="1.8999" x2="389.004" y2="105" gradientUnits="userSpaceOnUse">
<stop stop-color="white"/>
<stop offset="1" stop-color="white" stop-opacity="0"/>
</linearGradient>
<linearGradient id="paint9_linear_1580_184" x1="389.004" y1="1.8999" x2="389.004" y2="105" gradientUnits="userSpaceOnUse">
<stop stop-color="white"/>
<stop offset="1" stop-color="white" stop-opacity="0"/>
</linearGradient>
<linearGradient id="paint10_linear_1580_184" x1="389.004" y1="1.8999" x2="389.004" y2="105" gradientUnits="userSpaceOnUse">
<stop stop-color="white"/>
<stop offset="1" stop-color="white" stop-opacity="0"/>
</linearGradient>
<linearGradient id="paint11_linear_1580_184" x1="389.004" y1="1.8999" x2="389.004" y2="105" gradientUnits="userSpaceOnUse">
<stop stop-color="white"/>
<stop offset="1" stop-color="white" stop-opacity="0"/>
</linearGradient>
<linearGradient id="paint12_linear_1580_184" x1="389.004" y1="1.8999" x2="389.004" y2="105" gradientUnits="userSpaceOnUse">
<stop stop-color="white"/>
<stop offset="1" stop-color="white" stop-opacity="0"/>
</linearGradient>
<linearGradient id="paint13_linear_1580_184" x1="389.004" y1="1.8999" x2="389.004" y2="105" gradientUnits="userSpaceOnUse">
<stop stop-color="white"/>
<stop offset="1" stop-color="white" stop-opacity="0"/>
</linearGradient>
<linearGradient id="paint14_linear_1580_184" x1="389.004" y1="1.8999" x2="389.004" y2="105" gradientUnits="userSpaceOnUse">
<stop stop-color="white"/>
<stop offset="1" stop-color="white" stop-opacity="0"/>
</linearGradient>
</defs>
</svg>
