<svg width="32" height="32" viewBox="0 0 32 32" fill="none" xmlns="http://www.w3.org/2000/svg">
<path d="M19.9993 24V21.3333H25.3327V24H19.9993ZM19.9993 13.3333V10.6667H29.3327V13.3333H19.9993ZM19.9993 18.6667V16H27.9993V18.6667H19.9993ZM3.99935 10.6667H2.66602V8H7.99935V6H13.3327V8H18.666V10.6667H17.3327V22.6667C17.3327 23.4 17.0713 24.028 16.5487 24.5507C16.026 25.0733 15.3985 25.3342 14.666 25.3333H6.66602C5.93268 25.3333 5.30468 25.072 4.78202 24.5493C4.25935 24.0267 3.99846 23.3991 3.99935 22.6667V10.6667ZM6.66602 10.6667V22.6667H14.666V10.6667H6.66602Z" fill="white"/>
</svg>
