<svg width="83" height="27" viewBox="0 0 83 27" fill="none" xmlns="http://www.w3.org/2000/svg">
<path d="M32.5637 22.24C31.3317 22.24 30.1957 22.032 29.1557 21.616C28.1317 21.184 27.2357 20.584 26.4677 19.816C25.7157 19.032 25.1317 18.112 24.7157 17.056C24.2997 15.984 24.0917 14.816 24.0917 13.552C24.0917 12.32 24.3077 11.184 24.7397 10.144C25.1717 9.088 25.7797 8.176 26.5637 7.408C27.3477 6.624 28.2677 6.016 29.3237 5.584C30.3797 5.152 31.5237 4.936 32.7557 4.936C33.5557 4.936 34.3397 5.048 35.1077 5.272C35.8917 5.48 36.6037 5.792 37.2437 6.208C37.8997 6.624 38.4597 7.12 38.9237 7.696L36.6677 10.192C36.2837 9.808 35.8837 9.48 35.4677 9.208C35.0677 8.92 34.6357 8.704 34.1717 8.56C33.7237 8.4 33.2437 8.32 32.7317 8.32C32.0437 8.32 31.3957 8.448 30.7877 8.704C30.1957 8.96 29.6757 9.32 29.2277 9.784C28.7797 10.232 28.4197 10.784 28.1477 11.44C27.8917 12.08 27.7637 12.792 27.7637 13.576C27.7637 14.376 27.8917 15.104 28.1477 15.76C28.4037 16.4 28.7637 16.952 29.2277 17.416C29.6917 17.864 30.2437 18.216 30.8837 18.472C31.5397 18.712 32.2597 18.832 33.0437 18.832C33.5557 18.832 34.0517 18.76 34.5317 18.616C35.0117 18.472 35.4517 18.272 35.8517 18.016C36.2677 17.76 36.6357 17.464 36.9557 17.128L38.7077 19.936C38.3237 20.368 37.8037 20.76 37.1477 21.112C36.5077 21.464 35.7877 21.744 34.9877 21.952C34.1877 22.144 33.3797 22.24 32.5637 22.24ZM47.1666 22.24C45.8706 22.24 44.7106 21.96 43.6866 21.4C42.6786 20.824 41.8786 20.04 41.2866 19.048C40.7106 18.056 40.4226 16.92 40.4226 15.64C40.4226 14.36 40.7106 13.232 41.2866 12.256C41.8786 11.264 42.6786 10.48 43.6866 9.904C44.7106 9.328 45.8706 9.04 47.1666 9.04C48.4466 9.04 49.5906 9.328 50.5986 9.904C51.6226 10.48 52.4226 11.264 52.9986 12.256C53.5746 13.232 53.8626 14.36 53.8626 15.64C53.8626 16.92 53.5746 18.056 52.9986 19.048C52.4226 20.04 51.6226 20.824 50.5986 21.4C49.5906 21.96 48.4466 22.24 47.1666 22.24ZM47.1666 19.264C47.7906 19.264 48.3506 19.112 48.8466 18.808C49.3426 18.488 49.7266 18.056 49.9986 17.512C50.2866 16.952 50.4306 16.328 50.4306 15.64C50.4306 14.936 50.2866 14.312 49.9986 13.768C49.7266 13.208 49.3426 12.776 48.8466 12.472C48.3506 12.152 47.7906 11.992 47.1666 11.992C46.5266 11.992 45.9586 12.152 45.4626 12.472C44.9666 12.792 44.5746 13.224 44.2866 13.768C43.9986 14.312 43.8626 14.936 43.8786 15.64C43.8626 16.328 43.9986 16.952 44.2866 17.512C44.5746 18.056 44.9666 18.488 45.4626 18.808C45.9586 19.112 46.5266 19.264 47.1666 19.264ZM61.3947 22.24C60.2907 22.24 59.2987 21.96 58.4187 21.4C57.5387 20.824 56.8427 20.048 56.3307 19.072C55.8347 18.08 55.5867 16.936 55.5867 15.64C55.5867 14.376 55.8347 13.248 56.3307 12.256C56.8427 11.264 57.5307 10.48 58.3947 9.904C59.2747 9.328 60.2747 9.04 61.3947 9.04C61.9867 9.04 62.5547 9.136 63.0987 9.328C63.6587 9.504 64.1547 9.752 64.5867 10.072C65.0347 10.392 65.3947 10.752 65.6667 11.152C65.9387 11.536 66.0907 11.944 66.1227 12.376L65.2587 12.52V4.24H68.6667V22H65.4507L65.3067 19.072L65.9787 19.144C65.9467 19.544 65.8027 19.928 65.5467 20.296C65.2907 20.664 64.9467 21 64.5147 21.304C64.0987 21.592 63.6187 21.824 63.0747 22C62.5467 22.16 61.9867 22.24 61.3947 22.24ZM62.1627 19.408C62.8027 19.408 63.3627 19.248 63.8427 18.928C64.3227 18.608 64.6987 18.168 64.9707 17.608C65.2427 17.048 65.3787 16.392 65.3787 15.64C65.3787 14.904 65.2427 14.256 64.9707 13.696C64.6987 13.12 64.3227 12.68 63.8427 12.376C63.3627 12.056 62.8027 11.896 62.1627 11.896C61.5227 11.896 60.9627 12.056 60.4827 12.376C60.0187 12.68 59.6507 13.12 59.3787 13.696C59.1227 14.256 58.9947 14.904 58.9947 15.64C58.9947 16.392 59.1227 17.048 59.3787 17.608C59.6507 18.168 60.0187 18.608 60.4827 18.928C60.9627 19.248 61.5227 19.408 62.1627 19.408ZM71.4852 22V19.84L78.1812 11.152V12.112H71.4852V9.304H81.6132V11.512L75.2052 19.984L75.1092 19.192H81.7812V22H71.4852Z" fill="white"/>
<g clip-path="url(#clip0_1125_16)">
<path d="M9.15789 18.575L0.289474 10.175C0.184211 10.075 0.109824 9.96667 0.0663158 9.85C0.0221053 9.73333 0 9.60833 0 9.475C0 9.34167 0.0221053 9.21667 0.0663158 9.1C0.109824 8.98333 0.184211 8.875 0.289474 8.775L9.15789 0.35C9.40351 0.116667 9.71053 0 10.0789 0C10.4474 0 10.7632 0.125 11.0263 0.375C11.2895 0.625 11.4211 0.916667 11.4211 1.25C11.4211 1.58333 11.2895 1.875 11.0263 2.125L3.28947 9.475L11.0263 16.825C11.2719 17.0583 11.3947 17.3457 11.3947 17.687C11.3947 18.029 11.2632 18.325 11 18.575C10.7368 18.825 10.4298 18.95 10.0789 18.95C9.72807 18.95 9.42105 18.825 9.15789 18.575Z" fill="url(#paint0_linear_1125_16)"/>
<path d="M10.6831 8.375L19.5515 16.775C19.6568 16.875 19.7312 16.9833 19.7746 17.1C19.8189 17.2167 19.841 17.3417 19.841 17.475C19.841 17.6083 19.8189 17.7333 19.7746 17.85C19.7312 17.9667 19.6568 18.075 19.5515 18.175L10.6831 26.6C10.4375 26.8333 10.1304 26.95 9.76203 26.95C9.39361 26.95 9.07782 26.825 8.81466 26.575C8.5515 26.325 8.41992 26.0333 8.41992 25.7C8.41992 25.3667 8.5515 25.075 8.81466 24.825L16.5515 17.475L8.81466 10.125C8.56905 9.89167 8.44624 9.60434 8.44624 9.263C8.44624 8.921 8.57782 8.625 8.84097 8.375C9.10413 8.125 9.41115 8 9.76203 8C10.1129 8 10.4199 8.125 10.6831 8.375Z" fill="url(#paint1_linear_1125_16)"/>
</g>
<defs>
<linearGradient id="paint0_linear_1125_16" x1="15.0049" y1="-7.14932" x2="-2.59409" y2="6.00419" gradientUnits="userSpaceOnUse">
<stop stop-color="#D4FFEC"/>
<stop offset="0.515625" stop-color="#57F2CC"/>
<stop offset="1" stop-color="#306BFF"/>
</linearGradient>
<linearGradient id="paint1_linear_1125_16" x1="23.4248" y1="0.850679" x2="5.82582" y2="14.0042" gradientUnits="userSpaceOnUse">
<stop stop-color="#D4FFEC"/>
<stop offset="0.515625" stop-color="#57F2CC"/>
<stop offset="1" stop-color="#306BFF"/>
</linearGradient>
<clipPath id="clip0_1125_16">
<rect width="20" height="27" fill="white"/>
</clipPath>
</defs>
</svg>
