<svg width="89" height="25" viewBox="0 0 89 25" fill="none" xmlns="http://www.w3.org/2000/svg">
<path d="M38.5637 21.24C37.3317 21.24 36.1957 21.032 35.1557 20.616C34.1317 20.184 33.2357 19.584 32.4677 18.816C31.7157 18.032 31.1317 17.112 30.7157 16.056C30.2997 14.984 30.0917 13.816 30.0917 12.552C30.0917 11.32 30.3077 10.184 30.7397 9.144C31.1717 8.088 31.7797 7.176 32.5637 6.408C33.3477 5.624 34.2677 5.016 35.3237 4.584C36.3797 4.152 37.5237 3.936 38.7557 3.936C39.5557 3.936 40.3397 4.048 41.1077 4.272C41.8917 4.48 42.6037 4.792 43.2437 5.208C43.8997 5.624 44.4597 6.12 44.9237 6.696L42.6677 9.192C42.2837 8.808 41.8837 8.48 41.4677 8.208C41.0677 7.92 40.6357 7.704 40.1717 7.56C39.7237 7.4 39.2437 7.32 38.7317 7.32C38.0437 7.32 37.3957 7.448 36.7877 7.704C36.1957 7.96 35.6757 8.32 35.2277 8.784C34.7797 9.232 34.4197 9.784 34.1477 10.44C33.8917 11.08 33.7637 11.792 33.7637 12.576C33.7637 13.376 33.8917 14.104 34.1477 14.76C34.4037 15.4 34.7637 15.952 35.2277 16.416C35.6917 16.864 36.2437 17.216 36.8837 17.472C37.5397 17.712 38.2597 17.832 39.0437 17.832C39.5557 17.832 40.0517 17.76 40.5317 17.616C41.0117 17.472 41.4517 17.272 41.8517 17.016C42.2677 16.76 42.6357 16.464 42.9557 16.128L44.7077 18.936C44.3237 19.368 43.8037 19.76 43.1477 20.112C42.5077 20.464 41.7877 20.744 40.9877 20.952C40.1877 21.144 39.3797 21.24 38.5637 21.24ZM53.1666 21.24C51.8706 21.24 50.7106 20.96 49.6866 20.4C48.6786 19.824 47.8786 19.04 47.2866 18.048C46.7106 17.056 46.4226 15.92 46.4226 14.64C46.4226 13.36 46.7106 12.232 47.2866 11.256C47.8786 10.264 48.6786 9.48 49.6866 8.904C50.7106 8.328 51.8706 8.04 53.1666 8.04C54.4466 8.04 55.5906 8.328 56.5986 8.904C57.6226 9.48 58.4226 10.264 58.9986 11.256C59.5746 12.232 59.8626 13.36 59.8626 14.64C59.8626 15.92 59.5746 17.056 58.9986 18.048C58.4226 19.04 57.6226 19.824 56.5986 20.4C55.5906 20.96 54.4466 21.24 53.1666 21.24ZM53.1666 18.264C53.7906 18.264 54.3506 18.112 54.8466 17.808C55.3426 17.488 55.7266 17.056 55.9986 16.512C56.2866 15.952 56.4306 15.328 56.4306 14.64C56.4306 13.936 56.2866 13.312 55.9986 12.768C55.7266 12.208 55.3426 11.776 54.8466 11.472C54.3506 11.152 53.7906 10.992 53.1666 10.992C52.5266 10.992 51.9586 11.152 51.4626 11.472C50.9666 11.792 50.5746 12.224 50.2866 12.768C49.9986 13.312 49.8626 13.936 49.8786 14.64C49.8626 15.328 49.9986 15.952 50.2866 16.512C50.5746 17.056 50.9666 17.488 51.4626 17.808C51.9586 18.112 52.5266 18.264 53.1666 18.264ZM67.3947 21.24C66.2907 21.24 65.2987 20.96 64.4187 20.4C63.5387 19.824 62.8427 19.048 62.3307 18.072C61.8347 17.08 61.5867 15.936 61.5867 14.64C61.5867 13.376 61.8347 12.248 62.3307 11.256C62.8427 10.264 63.5307 9.48 64.3947 8.904C65.2747 8.328 66.2747 8.04 67.3947 8.04C67.9867 8.04 68.5547 8.136 69.0987 8.328C69.6587 8.504 70.1547 8.752 70.5867 9.072C71.0347 9.392 71.3947 9.752 71.6667 10.152C71.9387 10.536 72.0907 10.944 72.1227 11.376L71.2587 11.52V3.24H74.6667V21H71.4507L71.3067 18.072L71.9787 18.144C71.9467 18.544 71.8027 18.928 71.5467 19.296C71.2907 19.664 70.9467 20 70.5147 20.304C70.0987 20.592 69.6187 20.824 69.0747 21C68.5467 21.16 67.9867 21.24 67.3947 21.24ZM68.1627 18.408C68.8027 18.408 69.3627 18.248 69.8427 17.928C70.3227 17.608 70.6987 17.168 70.9707 16.608C71.2427 16.048 71.3787 15.392 71.3787 14.64C71.3787 13.904 71.2427 13.256 70.9707 12.696C70.6987 12.12 70.3227 11.68 69.8427 11.376C69.3627 11.056 68.8027 10.896 68.1627 10.896C67.5227 10.896 66.9627 11.056 66.4827 11.376C66.0187 11.68 65.6507 12.12 65.3787 12.696C65.1227 13.256 64.9947 13.904 64.9947 14.64C64.9947 15.392 65.1227 16.048 65.3787 16.608C65.6507 17.168 66.0187 17.608 66.4827 17.928C66.9627 18.248 67.5227 18.408 68.1627 18.408ZM77.4852 21V18.84L84.1812 10.152V11.112H77.4852V8.304H87.6132V10.512L81.2052 18.984L81.1092 18.192H87.7812V21H77.4852Z" fill="white"/>
<path d="M12.7075 7.92057L20.9431 15.6442C21.0408 15.7362 21.1099 15.8358 21.1503 15.9431C21.1914 16.0504 21.2119 16.1653 21.2119 16.2879C21.2119 16.4105 21.1914 16.5254 21.1503 16.6327C21.1099 16.74 21.0408 16.8396 20.9431 16.9315L12.7075 24.6782C12.4794 24.8927 12.1943 25 11.8522 25C11.5101 25 11.2168 24.8851 10.9724 24.6552C10.728 24.4253 10.6059 24.1571 10.6059 23.8506C10.6059 23.5442 10.728 23.276 10.9724 23.0461L18.1572 16.2879L10.9724 9.52967C10.7444 9.31515 10.6303 9.05089 10.6303 8.73707C10.6303 8.42261 10.7525 8.15044 10.9969 7.92057C11.2412 7.6907 11.5264 7.57576 11.8522 7.57576C12.178 7.57576 12.4631 7.6907 12.7075 7.92057Z" fill="url(#paint0_linear_1364_26)"/>
<path d="M11.1929 7.92057L19.4284 15.6442C19.5262 15.7362 19.5953 15.8358 19.6357 15.9431C19.6767 16.0503 19.6973 16.1653 19.6973 16.2879C19.6973 16.4105 19.6767 16.5254 19.6357 16.6327C19.5953 16.74 19.5262 16.8396 19.4284 16.9315L11.1929 24.6782C10.9648 24.8927 10.6797 25 10.3375 25C9.99541 25 9.70215 24.8851 9.45778 24.6552C9.2134 24.4253 9.09121 24.1571 9.09121 23.8506C9.09121 23.5442 9.2134 23.276 9.45778 23.0461L16.6425 16.2879L9.45778 9.52967C9.22972 9.31515 9.11565 9.05089 9.11565 8.73707C9.11565 8.4226 9.23784 8.15044 9.48222 7.92057C9.72659 7.6907 10.0117 7.57576 10.3375 7.57576C10.6634 7.57576 10.9485 7.6907 11.1929 7.92057Z" fill="url(#paint1_linear_1364_26)"/>
<path d="M8.5044 17.0794L0.268816 9.35576C0.171065 9.26381 0.101986 9.1642 0.0615828 9.05693C0.0205271 8.94965 -7.72355e-07 8.83471 -7.61638e-07 8.71212C-7.5092e-07 8.58953 0.0205271 8.47459 0.0615828 8.36731C0.101987 8.26004 0.171065 8.16043 0.268816 8.06848L8.5044 0.32182C8.73248 0.107274 9.01759 7.88343e-07 9.35972 8.18253e-07C9.70186 8.48163e-07 9.99511 0.114936 10.2395 0.344808C10.4839 0.574679 10.6061 0.842862 10.6061 1.14936C10.6061 1.45585 10.4839 1.72403 10.2395 1.95391L3.05474 8.71212L10.2395 15.4703C10.4675 15.6848 10.5816 15.9491 10.5816 16.2629C10.5816 16.5774 10.4594 16.8496 10.2151 17.0794C9.97067 17.3093 9.68556 17.4242 9.35972 17.4242C9.03389 17.4242 8.74877 17.3093 8.5044 17.0794Z" fill="url(#paint2_linear_1364_26)"/>
<path d="M10.019 17.0794L1.78346 9.35576C1.68571 9.26381 1.61663 9.1642 1.57623 9.05693C1.53518 8.94965 1.51465 8.83471 1.51465 8.71212C1.51465 8.58953 1.53518 8.47459 1.57623 8.36731C1.61663 8.26004 1.68571 8.16043 1.78346 8.06848L10.019 0.32182C10.2471 0.107274 10.5322 7.88343e-07 10.8744 8.18253e-07C11.2165 8.48163e-07 11.5098 0.114936 11.7541 0.344808C11.9985 0.574679 12.1207 0.842862 12.1207 1.14936C12.1207 1.45585 11.9985 1.72404 11.7541 1.95391L4.56939 8.71212L11.7541 15.4703C11.9822 15.6849 12.0963 15.9491 12.0963 16.2629C12.0963 16.5774 11.9741 16.8496 11.7297 17.0794C11.4853 17.3093 11.2002 17.4242 10.8744 17.4242C10.5485 17.4242 10.2634 17.3093 10.019 17.0794Z" fill="url(#paint3_linear_1364_26)"/>
<defs>
<linearGradient id="paint0_linear_1364_26" x1="22.9165" y1="28.0303" x2="8.13401" y2="4.80893" gradientUnits="userSpaceOnUse">
<stop offset="0.368388" stop-color="#2C68FF"/>
<stop offset="1" stop-color="#101010"/>
</linearGradient>
<linearGradient id="paint1_linear_1364_26" x1="5.7631" y1="31.5737" x2="21.9898" y2="19.325" gradientUnits="userSpaceOnUse">
<stop offset="0.338636" stop-color="#101010"/>
<stop offset="1" stop-color="#2C68FF"/>
</linearGradient>
<linearGradient id="paint2_linear_1364_26" x1="-1.70455" y1="-3.0303" x2="13.0779" y2="20.1911" gradientUnits="userSpaceOnUse">
<stop offset="0.368388" stop-color="#2C68FF"/>
<stop offset="1" stop-color="#101010"/>
</linearGradient>
<linearGradient id="paint3_linear_1364_26" x1="15.4488" y1="-6.57369" x2="-0.77793" y2="5.67496" gradientUnits="userSpaceOnUse">
<stop offset="0.338636" stop-color="#101010"/>
<stop offset="1" stop-color="#2C68FF"/>
</linearGradient>
</defs>
</svg>
