<svg width="47" height="64" viewBox="0 0 47 64" fill="none" xmlns="http://www.w3.org/2000/svg">
<path d="M21.6827 44.1766L0.685373 24.199C0.436147 23.9612 0.260026 23.7036 0.157013 23.4261C0.0523376 23.1486 0 22.8513 0 22.5342C0 22.2171 0.0523376 21.9199 0.157013 21.6424C0.260026 21.3649 0.436147 21.1073 0.685373 20.8694L21.6827 0.8324C22.2642 0.277467 22.9912 0 23.8635 0C24.7357 0 25.4834 0.297286 26.1065 0.891857C26.7296 1.48643 27.0411 2.18009 27.0411 2.97286C27.0411 3.76561 26.7296 4.45928 26.1065 5.05385L7.78833 22.5342L26.1065 40.0146C26.6879 40.5695 26.9788 41.253 26.9788 42.0647C26.9788 42.8781 26.6673 43.5821 26.0442 44.1766C25.4211 44.7712 24.6942 45.0685 23.8635 45.0685C23.0327 45.0685 22.3058 44.7712 21.6827 44.1766Z" fill="url(#paint0_linear_1105_10)"/>
<path d="M25.3173 19.5637L46.3147 39.5413C46.5639 39.7792 46.7401 40.0367 46.8431 40.3143C46.9477 40.5918 47.0001 40.8891 47.0001 41.2061C47.0001 41.5232 46.9477 41.8204 46.8431 42.098C46.7401 42.3755 46.5639 42.6331 46.3147 42.8709L25.3173 62.908C24.7358 63.4628 24.0089 63.7404 23.1366 63.7404C22.2643 63.7404 21.5167 63.4431 20.8936 62.8485C20.2705 62.2539 19.959 61.5602 19.959 60.7675C19.959 59.9748 20.2705 59.2811 20.8936 58.6865L39.2117 41.2061L20.8936 23.7258C20.3121 23.1708 20.0213 22.4875 20.0213 21.6756C20.0213 20.8623 20.3328 20.1583 20.9559 19.5637C21.579 18.9692 22.3059 18.6719 23.1366 18.6719C23.9674 18.6719 24.6943 18.9692 25.3173 19.5637Z" fill="url(#paint1_linear_1105_10)"/>
<defs>
<linearGradient id="paint0_linear_1105_10" x1="35.5264" y1="-17.0031" x2="-6.27555" y2="14.1001" gradientUnits="userSpaceOnUse">
<stop stop-color="white"/>
<stop offset="0.515625" stop-color="#57F2E9"/>
<stop offset="1" stop-color="#306BFF"/>
</linearGradient>
<linearGradient id="paint1_linear_1105_10" x1="55.4854" y1="1.66876" x2="13.6834" y2="32.7719" gradientUnits="userSpaceOnUse">
<stop stop-color="white"/>
<stop offset="0.515625" stop-color="#57F2E9"/>
<stop offset="1" stop-color="#306BFF"/>
</linearGradient>
</defs>
</svg>
