<svg width="56" height="66" viewBox="0 0 56 66" fill="none" xmlns="http://www.w3.org/2000/svg">
<path d="M33.5484 20.9103L55.2903 41.3008C55.5484 41.5435 55.7308 41.8065 55.8374 42.0897C55.9458 42.3729 56 42.6763 56 43C56 43.3237 55.9458 43.6271 55.8374 43.9103C55.7308 44.1935 55.5484 44.4565 55.2903 44.6992L33.5484 65.1504C32.9462 65.7168 32.1935 66 31.2903 66C30.3871 66 29.6129 65.6966 28.9677 65.0897C28.3226 64.4828 28 63.7748 28 62.9657C28 62.1566 28.3226 61.4485 28.9677 60.8417L47.9355 43L28.9677 25.1583C28.3657 24.592 28.0645 23.8943 28.0645 23.0659C28.0645 22.2357 28.3871 21.5171 29.0323 20.9103C29.6774 20.3034 30.4301 20 31.2903 20C32.1505 20 32.9032 20.3034 33.5484 20.9103Z" fill="url(#paint0_linear_1265_8)"/>
<path d="M29.5484 20.9103L51.2903 41.3008C51.5484 41.5435 51.7308 41.8065 51.8374 42.0897C51.9458 42.3729 52 42.6763 52 43C52 43.3237 51.9458 43.6271 51.8374 43.9103C51.7308 44.1935 51.5484 44.4565 51.2903 44.6992L29.5484 65.1504C28.9462 65.7168 28.1936 66 27.2903 66C26.3871 66 25.6129 65.6966 24.9677 65.0897C24.3226 64.4828 24 63.7748 24 62.9657C24 62.1566 24.3226 61.4485 24.9677 60.8417L43.9355 43L24.9677 25.1583C24.3657 24.592 24.0645 23.8943 24.0645 23.0659C24.0645 22.2357 24.3871 21.5171 25.0323 20.9103C25.6774 20.3034 26.4301 20 27.2903 20C28.1505 20 28.9032 20.3034 29.5484 20.9103Z" fill="url(#paint1_linear_1265_8)"/>
<path d="M22.4516 45.0897L0.709675 24.6992C0.451611 24.4565 0.269244 24.1935 0.162579 23.9103C0.0541915 23.6271 -2.03902e-06 23.3237 -2.01072e-06 23C-1.98243e-06 22.6763 0.0541916 22.3729 0.162579 22.0897C0.269245 21.8065 0.451611 21.5435 0.709676 21.3008L22.4516 0.849606C23.0538 0.283204 23.8065 2.08123e-06 24.7097 2.16019e-06C25.6129 2.23915e-06 26.3871 0.303432 27.0323 0.910293C27.6774 1.51715 28 2.22516 28 3.0343C28 3.84344 27.6774 4.55145 27.0323 5.15831L8.06451 23L27.0323 40.8417C27.6343 41.408 27.9355 42.1057 27.9355 42.9341C27.9355 43.7643 27.6129 44.4829 26.9677 45.0897C26.3226 45.6966 25.5699 46 24.7097 46C23.8495 46 23.0968 45.6966 22.4516 45.0897Z" fill="url(#paint2_linear_1265_8)"/>
<path d="M26.4516 45.0897L4.70968 24.6992C4.45161 24.4565 4.26924 24.1935 4.16258 23.9103C4.05419 23.6271 4 23.3237 4 23C4 22.6763 4.05419 22.3729 4.16258 22.0897C4.26924 21.8065 4.45161 21.5435 4.70968 21.3008L26.4516 0.849606C27.0538 0.283204 27.8064 2.08123e-06 28.7097 2.16019e-06C29.6129 2.23915e-06 30.3871 0.303432 31.0323 0.910293C31.6774 1.51715 32 2.22516 32 3.0343C32 3.84344 31.6774 4.55145 31.0323 5.15831L12.0645 23L31.0323 40.8417C31.6343 41.408 31.9355 42.1057 31.9355 42.9341C31.9355 43.7643 31.6129 44.4829 30.9677 45.0897C30.3226 45.6966 29.5699 46 28.7097 46C27.8495 46 27.0968 45.6966 26.4516 45.0897Z" fill="url(#paint3_linear_1265_8)"/>
<defs>
<linearGradient id="paint0_linear_1265_8" x1="60.5" y1="74" x2="21.4743" y2="12.6956" gradientUnits="userSpaceOnUse">
<stop offset="0.368388" stop-color="#2C68FF"/>
<stop offset="1" stop-color="#101010"/>
</linearGradient>
<linearGradient id="paint1_linear_1265_8" x1="15.2138" y1="83.3545" x2="58.0524" y2="51.0181" gradientUnits="userSpaceOnUse">
<stop offset="0.338636" stop-color="#101010"/>
<stop offset="1" stop-color="#2C68FF"/>
</linearGradient>
<linearGradient id="paint2_linear_1265_8" x1="-4.5" y1="-8" x2="34.5257" y2="53.3044" gradientUnits="userSpaceOnUse">
<stop offset="0.368388" stop-color="#2C68FF"/>
<stop offset="1" stop-color="#101010"/>
</linearGradient>
<linearGradient id="paint3_linear_1265_8" x1="40.7862" y1="-17.3545" x2="-2.05241" y2="14.9819" gradientUnits="userSpaceOnUse">
<stop offset="0.338636" stop-color="#101010"/>
<stop offset="1" stop-color="#2C68FF"/>
</linearGradient>
</defs>
</svg>
