<svg width="20" height="20" viewBox="0 0 20 20" fill="none" xmlns="http://www.w3.org/2000/svg">
<g clip-path="url(#clip0_1193_84)">
<path d="M7.33366 16.2507C6.72255 16.2507 6.19958 16.0468 5.76477 15.6392C5.32921 15.2309 5.11144 14.7402 5.11144 14.1673V1.66732C5.11144 1.0944 5.32921 0.603776 5.76477 0.195443C6.19958 -0.212196 6.72255 -0.416016 7.33366 -0.416016H17.3337C17.9448 -0.416016 18.4681 -0.212196 18.9037 0.195443C19.3385 0.603776 19.5559 1.0944 19.5559 1.66732V14.1673C19.5559 14.7402 19.3385 15.2309 18.9037 15.6392C18.4681 16.0468 17.9448 16.2507 17.3337 16.2507H7.33366ZM7.33366 14.1673H17.3337V1.66732H7.33366V14.1673ZM2.88921 20.4173C2.2781 20.4173 1.75477 20.2135 1.31921 19.8059C0.884399 19.3975 0.666992 18.9069 0.666992 18.334V4.79232C0.666992 4.49718 0.773659 4.24961 0.986992 4.04961C1.19958 3.8503 1.46329 3.75065 1.7781 3.75065C2.09292 3.75065 2.35699 3.8503 2.57033 4.04961C2.78292 4.24961 2.88921 4.49718 2.88921 4.79232V18.334H14.0003C14.3151 18.334 14.5792 18.434 14.7925 18.634C15.0051 18.8333 15.1114 19.0805 15.1114 19.3757C15.1114 19.6708 15.0051 19.918 14.7925 20.1173C14.5792 20.3173 14.3151 20.4173 14.0003 20.4173H2.88921Z" fill="white"/>
</g>
<defs>
<clipPath id="clip0_1193_84">
<rect width="20" height="20" fill="white"/>
</clipPath>
</defs>
</svg>
