<svg width="30" height="30" viewBox="0 0 30 30" fill="none" xmlns="http://www.w3.org/2000/svg">
<path d="M5 11.25H15M15 18.75H25M15 5V25M5 7.5C5 6.83696 5.26339 6.20107 5.73223 5.73223C6.20107 5.26339 6.83696 5 7.5 5H22.5C23.163 5 23.7989 5.26339 24.2678 5.73223C24.7366 6.20107 25 6.83696 25 7.5V22.5C25 23.163 24.7366 23.7989 24.2678 24.2678C23.7989 24.7366 23.163 25 22.5 25H7.5C6.83696 25 6.20107 24.7366 5.73223 24.2678C5.26339 23.7989 5 23.163 5 22.5V7.5Z" stroke="#FFFAFA" stroke-width="2" stroke-linecap="round" stroke-linejoin="round"/>
</svg>
