<svg width="25" height="25" viewBox="0 0 25 25" fill="none" xmlns="http://www.w3.org/2000/svg">
<path d="M18.45 14.2H20.15C20.3754 14.2 20.5916 14.1104 20.751 13.951C20.9104 13.7916 21 13.5754 21 13.35C21 13.1246 20.9104 12.9084 20.751 12.749C20.5916 12.5896 20.3754 12.5 20.15 12.5H18.45V11.65C18.4425 11.2584 18.3824 10.8696 18.2715 10.494C19.0705 10.1877 19.7584 9.64732 20.2452 8.94362C20.732 8.23993 20.9951 7.40567 21 6.55C21 6.32457 20.9104 6.10837 20.751 5.94896C20.5916 5.78955 20.3754 5.7 20.15 5.7C19.9246 5.7 19.7084 5.78955 19.549 5.94896C19.3896 6.10837 19.3 6.32457 19.3 6.55C19.2993 7.09812 19.1219 7.63141 18.7943 8.07082C18.4666 8.51023 18.0061 8.83237 17.481 8.9895C17.0618 8.45228 16.5195 8.02373 15.9 7.74C15.9088 7.62684 15.9088 7.51316 15.9 7.4C15.9 6.49826 15.5418 5.63346 14.9042 4.99584C14.2665 4.35821 13.4017 4 12.5 4C11.5983 4 10.7335 4.35821 10.0958 4.99584C9.45821 5.63346 9.1 6.49826 9.1 7.4C9.0912 7.51316 9.0912 7.62684 9.1 7.74C8.46812 8.01907 7.91379 8.44795 7.485 8.9895C6.96623 8.82636 6.5132 8.50163 6.19206 8.06275C5.87093 7.62387 5.69852 7.09382 5.7 6.55C5.7 6.32457 5.61045 6.10837 5.45104 5.94896C5.29163 5.78955 5.07543 5.7 4.85 5.7C4.62457 5.7 4.40837 5.78955 4.24896 5.94896C4.08955 6.10837 4 6.32457 4 6.55C4.0049 7.40567 4.26798 8.23993 4.7548 8.94362C5.24163 9.64732 5.92953 10.1877 6.7285 10.494C6.61755 10.8696 6.55752 11.2584 6.55 11.65V12.5H4.85C4.62457 12.5 4.40837 12.5896 4.24896 12.749C4.08955 12.9084 4 13.1246 4 13.35C4 13.5754 4.08955 13.7916 4.24896 13.951C4.40837 14.1104 4.62457 14.2 4.85 14.2H6.55V15.05C6.55073 15.444 6.5906 15.8369 6.669 16.223C5.88384 16.5377 5.21043 17.0794 4.73496 17.779C4.25949 18.4786 4.00358 19.3041 4 20.15C4 20.3754 4.08955 20.5916 4.24896 20.751C4.40837 20.9104 4.62457 21 4.85 21C5.07543 21 5.29163 20.9104 5.45104 20.751C5.61045 20.5916 5.7 20.3754 5.7 20.15C5.7023 19.6543 5.84905 19.1699 6.12229 18.7563C6.39553 18.3427 6.78342 18.0176 7.2385 17.821C7.744 18.7783 8.5011 19.5795 9.42824 20.1384C10.3554 20.6973 11.4174 20.9927 12.5 20.9927C13.5826 20.9927 14.6446 20.6973 15.5718 20.1384C16.4989 19.5795 17.256 18.7783 17.7615 17.821C18.2166 18.0176 18.6045 18.3427 18.8777 18.7563C19.151 19.1699 19.2977 19.6543 19.3 20.15C19.3 20.3754 19.3896 20.5916 19.549 20.751C19.7084 20.9104 19.9246 21 20.15 21C20.3754 21 20.5916 20.9104 20.751 20.751C20.9104 20.5916 21 20.3754 21 20.15C20.9964 19.3041 20.7405 18.4786 20.265 17.779C19.7896 17.0794 19.1162 16.5377 18.331 16.223C18.4094 15.8369 18.4493 15.444 18.45 15.05V14.2ZM11.65 19.215C10.69 19.019 9.82726 18.4974 9.20769 17.7385C8.58812 16.9795 8.2498 16.0298 8.25 15.05V11.65C8.25 10.9737 8.51866 10.3251 8.99688 9.84688C9.4751 9.36866 10.1237 9.1 10.8 9.1H11.65V19.215ZM10.8 7.4C10.8 6.94913 10.9791 6.51673 11.2979 6.19792C11.6167 5.87911 12.0491 5.7 12.5 5.7C12.9509 5.7 13.3833 5.87911 13.7021 6.19792C14.0209 6.51673 14.2 6.94913 14.2 7.4H10.8ZM16.75 15.05C16.7502 16.0298 16.4119 16.9795 15.7923 17.7385C15.1727 18.4974 14.31 19.019 13.35 19.215V9.1H14.2C14.8763 9.1 15.5249 9.36866 16.0031 9.84688C16.4813 10.3251 16.75 10.9737 16.75 11.65V15.05Z" fill="white"/>
</svg>
