<svg width="57" height="56" viewBox="0 0 57 56" fill="none" xmlns="http://www.w3.org/2000/svg">
<path d="M56.5 5V51C56.5 53.7614 54.2614 56 51.5 56H5.5C2.73858 56 0.5 53.7614 0.5 51V5C0.5 2.23858 2.73858 0 5.5 0H51.5C54.2614 0 56.5 2.23858 56.5 5Z" fill="url(#paint0_linear_1211_13)" fill-opacity="0.25"/>
<path d="M56 5V51C56 53.4853 53.9853 55.5 51.5 55.5H5.5C3.01472 55.5 1 53.4853 1 51V5C1 2.51472 3.01472 0.5 5.5 0.5H51.5C53.9853 0.5 56 2.51472 56 5Z" stroke="url(#paint1_linear_1211_13)" stroke-opacity="0.21"/>
<path d="M38.8 30.8H41.6C41.9713 30.8 42.3274 30.6525 42.59 30.3899C42.8525 30.1274 43 29.7713 43 29.4C43 29.0287 42.8525 28.6726 42.59 28.4101C42.3274 28.1475 41.9713 28 41.6 28H38.8V26.6C38.7876 25.955 38.6887 25.3147 38.506 24.696C39.822 24.1915 40.955 23.3015 41.7568 22.1424C42.5586 20.9834 42.9919 19.6093 43 18.2C43 17.8287 42.8525 17.4726 42.59 17.2101C42.3274 16.9475 41.9713 16.8 41.6 16.8C41.2287 16.8 40.8726 16.9475 40.61 17.2101C40.3475 17.4726 40.2 17.8287 40.2 18.2C40.1988 19.1028 39.9067 19.9811 39.367 20.7049C38.8274 21.4286 38.0689 21.9592 37.204 22.218C36.5135 21.3332 35.6204 20.6273 34.6 20.16C34.6145 19.9736 34.6145 19.7864 34.6 19.6C34.6 18.1148 34.01 16.6904 32.9598 15.6402C31.9096 14.59 30.4852 14 29 14C27.5148 14 26.0904 14.59 25.0402 15.6402C23.99 16.6904 23.4 18.1148 23.4 19.6C23.3855 19.7864 23.3855 19.9736 23.4 20.16C22.3593 20.6196 21.4462 21.326 20.74 22.218C19.8855 21.9493 19.1394 21.4145 18.6105 20.6916C18.0815 19.9687 17.7976 19.0957 17.8 18.2C17.8 17.8287 17.6525 17.4726 17.3899 17.2101C17.1274 16.9475 16.7713 16.8 16.4 16.8C16.0287 16.8 15.6726 16.9475 15.4101 17.2101C15.1475 17.4726 15 17.8287 15 18.2C15.0081 19.6093 15.4414 20.9834 16.2432 22.1424C17.045 23.3015 18.178 24.1915 19.494 24.696C19.3113 25.3147 19.2124 25.955 19.2 26.6V28H16.4C16.0287 28 15.6726 28.1475 15.4101 28.4101C15.1475 28.6726 15 29.0287 15 29.4C15 29.7713 15.1475 30.1274 15.4101 30.3899C15.6726 30.6525 16.0287 30.8 16.4 30.8H19.2V32.2C19.2012 32.8489 19.2669 33.4961 19.396 34.132C18.1028 34.6503 16.9936 35.5426 16.2105 36.6949C15.4274 37.8471 15.0059 39.2068 15 40.6C15 40.9713 15.1475 41.3274 15.4101 41.59C15.6726 41.8525 16.0287 42 16.4 42C16.7713 42 17.1274 41.8525 17.3899 41.59C17.6525 41.3274 17.8 40.9713 17.8 40.6C17.8038 39.7835 18.0455 38.9858 18.4955 38.3045C18.9456 37.6232 19.5845 37.0879 20.334 36.764C21.1666 38.3407 22.4136 39.6604 23.9406 40.5809C25.4677 41.5015 27.2169 41.9879 29 41.9879C30.783 41.9879 32.5323 41.5015 34.0594 40.5809C35.5864 39.6604 36.8334 38.3407 37.666 36.764C38.4155 37.0879 39.0544 37.6232 39.5045 38.3045C39.9545 38.9858 40.1962 39.7835 40.2 40.6C40.2 40.9713 40.3475 41.3274 40.61 41.59C40.8726 41.8525 41.2287 42 41.6 42C41.9713 42 42.3274 41.8525 42.59 41.59C42.8525 41.3274 43 40.9713 43 40.6C42.9941 39.2068 42.5726 37.8471 41.7895 36.6949C41.0064 35.5426 39.8972 34.6503 38.604 34.132C38.7331 33.4961 38.7988 32.8489 38.8 32.2V30.8ZM27.6 39.06C26.0189 38.7373 24.5978 37.8781 23.5774 36.6281C22.5569 35.378 21.9997 33.8137 22 32.2V26.6C22 25.4861 22.4425 24.4178 23.2302 23.6302C24.0178 22.8425 25.0861 22.4 26.2 22.4H27.6V39.06ZM26.2 19.6C26.2 18.8574 26.495 18.1452 27.0201 17.6201C27.5452 17.095 28.2574 16.8 29 16.8C29.7426 16.8 30.4548 17.095 30.9799 17.6201C31.505 18.1452 31.8 18.8574 31.8 19.6H26.2ZM36 32.2C36.0003 33.8137 35.4431 35.378 34.4226 36.6281C33.4022 37.8781 31.9811 38.7373 30.4 39.06V22.4H31.8C32.9139 22.4 33.9822 22.8425 34.7698 23.6302C35.5575 24.4178 36 25.4861 36 26.6V32.2Z" fill="url(#paint2_linear_1211_13)"/>
<defs>
<linearGradient id="paint0_linear_1211_13" x1="61.4123" y1="-4.91227" x2="-30.6904" y2="25.7746" gradientUnits="userSpaceOnUse">
<stop stop-color="#9B9B9B" stop-opacity="0.54"/>
<stop offset="1" stop-color="#05010D"/>
</linearGradient>
<linearGradient id="paint1_linear_1211_13" x1="28.5" y1="1.53768e-08" x2="24.7727" y2="57.5813" gradientUnits="userSpaceOnUse">
<stop stop-color="white"/>
<stop offset="1" stop-color="white" stop-opacity="0"/>
</linearGradient>
<linearGradient id="paint2_linear_1211_13" x1="20.95" y1="8.25" x2="113.394" y2="68.9169" gradientUnits="userSpaceOnUse">
<stop stop-color="#306BFF"/>
<stop offset="1" stop-color="#040E3A"/>
</linearGradient>
</defs>
</svg>
