<svg width="28" height="28" viewBox="0 0 28 28" fill="none" xmlns="http://www.w3.org/2000/svg">
<path d="M23.3335 23.3327H4.66683C4.04799 23.3327 3.4545 23.0868 3.01691 22.6493C2.57933 22.2117 2.3335 21.6182 2.3335 20.9993V6.89785C2.35967 6.29677 2.61701 5.72903 3.05179 5.31317C3.48657 4.8973 4.06518 4.66545 4.66683 4.66602H23.3335C23.9523 4.66602 24.5458 4.91185 24.9834 5.34943C25.421 5.78702 25.6668 6.38051 25.6668 6.99935V20.9993C25.6668 21.6182 25.421 22.2117 24.9834 22.6493C24.5458 23.0868 23.9523 23.3327 23.3335 23.3327ZM4.66683 9.17868V20.9993H23.3335V9.17868L14.0002 15.3993L4.66683 9.17868ZM5.60016 6.99935L14.0002 12.5993L22.4002 6.99935H5.60016Z" fill="#C1C1C1"/>
</svg>
