<svg width="24" height="24" viewBox="0 0 24 24" fill="none" xmlns="http://www.w3.org/2000/svg">
<rect x="1" y="1" width="21" height="21" rx="10.5" fill="#2C68FF"/>
<path d="M15.55 11.5749C15.55 11.7082 15.525 11.8376 15.475 11.9629C15.425 12.0882 15.3583 12.1922 15.275 12.2749L10.675 16.8749C10.4917 17.0582 10.2583 17.1499 9.975 17.1499C9.69167 17.1499 9.45833 17.0582 9.275 16.8749C9.09167 16.6916 9 16.4582 9 16.1749C9 15.8916 9.09167 15.6582 9.275 15.4749L13.175 11.5749L9.275 7.6749C9.09167 7.49157 9 7.25824 9 6.9749C9 6.69157 9.09167 6.45824 9.275 6.2749C9.45833 6.09157 9.69167 5.9999 9.975 5.9999C10.2583 5.9999 10.4917 6.09157 10.675 6.2749L15.275 10.8749C15.375 10.9749 15.446 11.0832 15.488 11.1999C15.53 11.3166 15.5507 11.4416 15.55 11.5749Z" fill="white"/>
</svg>
