<svg width="23" height="23" viewBox="0 0 23 23" fill="none" xmlns="http://www.w3.org/2000/svg">
<path d="M13.4164 11.5V19.0517C13.4548 19.3392 13.3589 19.6458 13.1385 19.8471C13.0498 19.9359 12.9445 20.0064 12.8286 20.0545C12.7127 20.1026 12.5884 20.1273 12.4629 20.1273C12.3374 20.1273 12.2131 20.1026 12.0972 20.0545C11.9812 20.0064 11.8759 19.9359 11.7873 19.8471L9.86101 17.9208C9.75649 17.8187 9.67702 17.6937 9.6288 17.5557C9.58059 17.4177 9.56495 17.2705 9.58309 17.1254V11.5H9.55434L4.03434 4.4275C3.87872 4.22772 3.8085 3.97446 3.83902 3.72306C3.86955 3.47166 3.99834 3.24257 4.19726 3.08583C4.37934 2.95167 4.58059 2.875 4.79143 2.875H18.2081C18.4189 2.875 18.6202 2.95167 18.8023 3.08583C19.0012 3.24257 19.13 3.47166 19.1605 3.72306C19.191 3.97446 19.1208 4.22772 18.9652 4.4275L13.4452 11.5H13.4164Z" fill="#306BFF"/>
</svg>
