<svg width="25" height="25" viewBox="0 0 25 25" fill="none" xmlns="http://www.w3.org/2000/svg">
<path fill-rule="evenodd" clip-rule="evenodd" d="M8.62414 5.41379C9.63598 5.00854 10.7419 4.89806 11.8139 5.09514C12.8859 5.29223 13.8802 5.78883 14.6818 6.52747C15.4833 7.26611 16.0593 8.2166 16.3431 9.26896C16.6269 10.3213 16.6069 11.4325 16.2855 12.474L19.9076 15.5388C20.2339 15.8161 20.4992 16.1579 20.6867 16.5428C20.8743 16.9277 20.9801 17.3473 20.9975 17.7751C21.0148 18.2029 20.9433 18.6296 20.7875 19.0284C20.6317 19.4272 20.3949 19.7894 20.0922 20.0922C19.7894 20.395 19.4272 20.6317 19.0284 20.7875C18.6296 20.9433 18.2028 21.0148 17.775 20.9975C17.3472 20.9801 16.9276 20.8743 16.5427 20.6868C16.1578 20.4992 15.8159 20.2339 15.5386 19.9076L12.4746 16.2856C11.433 16.6072 10.3216 16.6272 9.26912 16.3434C8.21661 16.0595 7.266 15.4835 6.5273 14.6818C5.7886 13.8802 5.29202 12.8858 5.09503 11.8136C4.89804 10.7415 5.00869 9.63551 5.41418 8.62366C5.70929 7.88672 6.6342 7.79358 7.11478 8.31619L9.75512 11.1831L10.9471 10.9457L11.1862 9.75132L8.31748 7.11517C7.79486 6.6346 7.88636 5.7089 8.62414 5.41379ZM10.2786 6.67993L12.5562 8.77368C12.8216 9.01768 12.9403 9.38202 12.8695 9.734L12.482 11.6744C12.4421 11.8741 12.3439 12.0575 12.1998 12.2014C12.0558 12.3454 11.8723 12.4434 11.6725 12.4831L9.73534 12.868C9.56196 12.9025 9.38264 12.8918 9.21459 12.8369C9.04655 12.7821 8.89545 12.6849 8.77581 12.5548L6.67871 10.278C6.59335 10.9871 6.69361 11.7061 6.96968 12.3647C7.24575 13.0234 7.68815 13.599 8.25357 14.0353C8.81898 14.4715 9.48802 14.7535 10.1952 14.8535C10.9023 14.9535 11.6233 14.8681 12.2875 14.6057C12.4889 14.5257 12.7104 14.511 12.9206 14.5635C13.1309 14.616 13.3194 14.7331 13.4597 14.8983L16.7982 18.8435C16.9277 18.9971 17.0877 19.1222 17.268 19.2107C17.4484 19.2993 17.6452 19.3495 17.8459 19.358C18.0466 19.3666 18.247 19.3333 18.4342 19.2604C18.6214 19.1875 18.7915 19.0765 18.9335 18.9344C19.0756 18.7923 19.1866 18.6223 19.2595 18.4351C19.3325 18.2479 19.3657 18.0475 19.3572 17.8468C19.3486 17.6461 19.2984 17.4493 19.2099 17.269C19.1213 17.0886 18.9962 16.9286 18.8426 16.7992L14.8981 13.4607C14.7329 13.3205 14.6158 13.132 14.5633 12.9217C14.5108 12.7114 14.5256 12.49 14.6055 12.2885C14.8682 11.6244 14.9537 10.9033 14.8539 10.1961C14.754 9.48888 14.472 8.81974 14.0357 8.25427C13.5994 7.6888 13.0236 7.24639 12.3648 6.9704C11.706 6.69442 10.9869 6.59433 10.2777 6.67993H10.2786Z" fill="white"/>
</svg>
