<svg width="56" height="56" viewBox="0 0 56 56" fill="none" xmlns="http://www.w3.org/2000/svg">
<path d="M56 5V51C56 53.7614 53.7614 56 51 56H5C2.23858 56 0 53.7614 0 51V5C0 2.23858 2.23858 0 5 0H51C53.7614 0 56 2.23858 56 5Z" fill="url(#paint0_linear_1211_12)" fill-opacity="0.25"/>
<path d="M55.5 5V51C55.5 53.4853 53.4853 55.5 51 55.5H5C2.51472 55.5 0.5 53.4853 0.5 51V5C0.5 2.51472 2.51472 0.5 5 0.5H51C53.4853 0.5 55.5 2.51472 55.5 5Z" stroke="url(#paint1_linear_1211_12)" stroke-opacity="0.21"/>
<path fill-rule="evenodd" clip-rule="evenodd" d="M20.8892 15.6724C22.5335 15.0139 24.3306 14.8343 26.0726 15.1546C27.8146 15.4749 29.4304 16.2818 30.7329 17.4821C32.0354 18.6824 32.9714 20.227 33.4326 21.9371C33.8937 23.6471 33.8613 25.4529 33.3389 27.1453L39.2249 32.1255C39.7551 32.5761 40.1862 33.1316 40.491 33.757C40.7958 34.3825 40.9677 35.0643 40.9959 35.7595C41.024 36.4547 40.9079 37.1482 40.6547 37.7962C40.4015 38.4443 40.0168 39.0329 39.5248 39.5248C39.0328 40.0168 38.4442 40.4015 37.7961 40.6547C37.1481 40.9079 36.4545 41.024 35.7593 40.9959C35.0641 40.9677 34.3823 40.7958 33.7568 40.491C33.1314 40.1862 32.5759 39.7551 32.1253 39.2249L27.1462 33.3391C25.4536 33.8617 23.6476 33.8942 21.9373 33.433C20.227 32.9718 18.6822 32.0356 17.4819 30.733C16.2815 29.4303 15.4745 27.8144 15.1544 26.0722C14.8343 24.33 15.0141 22.5327 15.673 20.8884C16.1526 19.6909 17.6556 19.5396 18.4365 20.3888L22.7271 25.0476L24.6641 24.6618L25.0525 22.7209L20.3909 18.4372C19.5416 17.6562 19.6903 16.152 20.8892 15.6724ZM23.5777 17.7299L27.2788 21.1322C27.7102 21.5287 27.9031 22.1208 27.7879 22.6928L27.1583 25.846C27.0934 26.1705 26.9338 26.4685 26.6997 26.7023C26.4656 26.9362 26.1674 27.0955 25.8428 27.16L22.6949 27.7856C22.4132 27.8416 22.1218 27.8242 21.8487 27.735C21.5756 27.6459 21.3301 27.488 21.1357 27.2765L17.7279 23.5768C17.5892 24.729 17.7521 25.8974 18.2007 26.9677C18.6493 28.038 19.3682 28.9734 20.287 29.6823C21.2058 30.3913 22.293 30.8494 23.4421 31.0119C24.5912 31.1744 25.7628 31.0356 26.8421 30.6092C27.1695 30.4793 27.5293 30.4553 27.871 30.5407C28.2127 30.626 28.5191 30.8162 28.747 31.0848L34.1721 37.4956C34.3825 37.7453 34.6425 37.9485 34.9356 38.0925C35.2286 38.2364 35.5484 38.3179 35.8746 38.3318C36.2008 38.3457 36.5263 38.2917 36.8306 38.1732C37.1348 38.0547 37.4111 37.8743 37.642 37.6434C37.8729 37.4126 38.0533 37.1363 38.1718 36.832C38.2903 36.5278 38.3443 36.2023 38.3304 35.8761C38.3165 35.5499 38.235 35.2301 38.091 34.9371C37.9471 34.644 37.7439 34.384 37.4942 34.1736L31.0845 28.7487C30.816 28.5208 30.6257 28.2144 30.5404 27.8727C30.4551 27.5311 30.479 27.1712 30.6089 26.8439C31.0358 25.7646 31.1748 24.5929 31.0125 23.4437C30.8502 22.2944 30.3921 21.2071 29.683 20.2882C28.974 19.3693 28.0384 18.6504 26.9678 18.2019C25.8973 17.7534 24.7286 17.5908 23.5763 17.7299H23.5777Z" fill="url(#paint2_linear_1211_12)"/>
<defs>
<linearGradient id="paint0_linear_1211_12" x1="60.9123" y1="-4.91227" x2="-31.1904" y2="25.7746" gradientUnits="userSpaceOnUse">
<stop stop-color="#9B9B9B" stop-opacity="0.54"/>
<stop offset="1" stop-color="#05010D"/>
</linearGradient>
<linearGradient id="paint1_linear_1211_12" x1="28" y1="1.53768e-08" x2="24.2727" y2="57.5813" gradientUnits="userSpaceOnUse">
<stop stop-color="white"/>
<stop offset="1" stop-color="white" stop-opacity="0"/>
</linearGradient>
<linearGradient id="paint2_linear_1211_12" x1="20.525" y1="9.66071" x2="106.366" y2="65.9943" gradientUnits="userSpaceOnUse">
<stop stop-color="#306BFF"/>
<stop offset="1" stop-color="#040E3A"/>
</linearGradient>
</defs>
</svg>
