<svg width="23" height="23" viewBox="0 0 23 23" fill="none" xmlns="http://www.w3.org/2000/svg">
<path d="M11.5007 15.334C12.009 15.334 12.4965 15.5359 12.8559 15.8954C13.2154 16.2548 13.4173 16.7423 13.4173 17.2507C13.4173 17.759 13.2154 18.2465 12.8559 18.6059C12.4965 18.9654 12.009 19.1673 11.5007 19.1673C10.9923 19.1673 10.5048 18.9654 10.1454 18.6059C9.78592 18.2465 9.58398 17.759 9.58398 17.2507C9.58398 16.7423 9.78592 16.2548 10.1454 15.8954C10.5048 15.5359 10.9923 15.334 11.5007 15.334ZM11.5007 9.58398C12.009 9.58398 12.4965 9.78592 12.8559 10.1454C13.2154 10.5048 13.4173 10.9923 13.4173 11.5007C13.4173 12.009 13.2154 12.4965 12.8559 12.8559C12.4965 13.2154 12.009 13.4173 11.5007 13.4173C10.9923 13.4173 10.5048 13.2154 10.1454 12.8559C9.78592 12.4965 9.58398 12.009 9.58398 11.5007C9.58398 10.9923 9.78592 10.5048 10.1454 10.1454C10.5048 9.78592 10.9923 9.58398 11.5007 9.58398ZM11.5007 3.83398C12.009 3.83398 12.4965 4.03592 12.8559 4.39536C13.2154 4.75481 13.4173 5.24232 13.4173 5.75065C13.4173 6.25898 13.2154 6.74649 12.8559 7.10594C12.4965 7.46538 12.009 7.66732 11.5007 7.66732C10.9923 7.66732 10.5048 7.46538 10.1454 7.10594C9.78592 6.74649 9.58398 6.25898 9.58398 5.75065C9.58398 5.24232 9.78592 4.75481 10.1454 4.39536C10.5048 4.03592 10.9923 3.83398 11.5007 3.83398Z" fill="#8A8A8A"/>
</svg>
