<svg width="30" height="28" viewBox="0 0 30 28" fill="none" xmlns="http://www.w3.org/2000/svg">
<path d="M10.5625 19.5938C10.7917 19.3229 10.9062 19.0154 10.9062 18.6712C10.9062 18.3279 10.7917 18.0417 10.5625 17.8125L8.25 15.5H17.2188C17.5729 15.5 17.8696 15.38 18.1087 15.14C18.3487 14.9008 18.4688 14.6042 18.4688 14.25C18.4688 13.8958 18.3487 13.5987 18.1087 13.3587C17.8696 13.1196 17.5729 13 17.2188 13H8.25L10.5625 10.6875C10.8125 10.4375 10.9375 10.1408 10.9375 9.7975C10.9375 9.45333 10.8125 9.15625 10.5625 8.90625C10.3333 8.65625 10.0467 8.53125 9.7025 8.53125C9.35917 8.53125 9.07292 8.64583 8.84375 8.875L4.34375 13.375C4.21875 13.5 4.13 13.6354 4.0775 13.7812C4.02583 13.9271 4 14.0833 4 14.25C4 14.4167 4.02583 14.5729 4.0775 14.7188C4.13 14.8646 4.21875 15 4.34375 15.125L8.84375 19.625C9.11458 19.8958 9.41125 20.0154 9.73375 19.9837C10.0571 19.9529 10.3333 19.8229 10.5625 19.5938ZM23.4688 25.5C24.1562 25.5 24.745 25.2554 25.235 24.7663C25.7242 24.2763 25.9688 23.6875 25.9688 23V5.5C25.9688 4.8125 25.7242 4.22375 25.235 3.73375C24.745 3.24458 24.1562 3 23.4688 3H15.9688C15.6146 3 15.3175 3.11958 15.0775 3.35875C14.8383 3.59875 14.7188 3.89583 14.7188 4.25C14.7188 4.60417 14.8383 4.90083 15.0775 5.14C15.3175 5.38 15.6146 5.5 15.9688 5.5H23.4688V23H15.9688C15.6146 23 15.3175 23.12 15.0775 23.36C14.8383 23.5992 14.7188 23.8958 14.7188 24.25C14.7188 24.6042 14.8383 24.9008 15.0775 25.14C15.3175 25.38 15.6146 25.5 15.9688 25.5H23.4688Z" fill="white"/>
</svg>
