<svg width="30" height="28" viewBox="0 0 30 28" fill="none" xmlns="http://www.w3.org/2000/svg">
<path d="M6.3 23C5.6675 23 5.12585 22.7672 4.67505 22.3017C4.22425 21.8362 3.99924 21.2773 4 20.625V6.375C4 5.72188 4.2254 5.16256 4.6762 4.69706C5.127 4.23156 5.66827 3.99921 6.3 4H13.2L15.5 6.375H24.7C25.3325 6.375 25.8741 6.60775 26.3249 7.07325C26.7757 7.53875 27.0008 8.09767 27 8.75V20.625C27 21.2781 26.7746 21.8374 26.3238 22.3029C25.873 22.7684 25.3317 23.0008 24.7 23H6.3ZM6.3 6.375V20.625H24.7V8.75H14.5513L12.2513 6.375H6.3Z" fill="white"/>
</svg>
