<svg width="30" height="30" viewBox="0 0 30 30" fill="none" xmlns="http://www.w3.org/2000/svg">
<path d="M11.2812 15.25L13.125 13.4062C13.375 13.1562 13.5 12.8646 13.5 12.5312C13.5 12.1979 13.375 11.9062 13.125 11.6562C12.875 11.4062 12.5783 11.2812 12.235 11.2812C11.8908 11.2812 11.5938 11.4062 11.3438 11.6562L8.625 14.375C8.5 14.5 8.41167 14.6354 8.36 14.7812C8.3075 14.9271 8.28125 15.0833 8.28125 15.25C8.28125 15.4167 8.3075 15.5729 8.36 15.7188C8.41167 15.8646 8.5 16 8.625 16.125L11.3438 18.8438C11.5938 19.0938 11.8908 19.2188 12.235 19.2188C12.5783 19.2188 12.875 19.0938 13.125 18.8438C13.375 18.5938 13.5 18.3021 13.5 17.9688C13.5 17.6354 13.375 17.3438 13.125 17.0938L11.2812 15.25ZM19.2188 15.25L17.375 17.0938C17.125 17.3438 17 17.6354 17 17.9688C17 18.3021 17.125 18.5938 17.375 18.8438C17.625 19.0938 17.9221 19.2188 18.2663 19.2188C18.6096 19.2188 18.9062 19.0938 19.1562 18.8438L21.875 16.125C22 16 22.0883 15.8646 22.14 15.7188C22.1925 15.5729 22.2188 15.4167 22.2188 15.25C22.2188 15.0833 22.1925 14.9271 22.14 14.7812C22.0883 14.6354 22 14.5 21.875 14.375L19.1562 11.6562C19.0312 11.5312 18.8908 11.4375 18.735 11.375C18.5783 11.3125 18.4221 11.2812 18.2663 11.2812C18.1096 11.2812 17.9533 11.3125 17.7975 11.375C17.6408 11.4375 17.5 11.5312 17.375 11.6562C17.125 11.9062 17 12.1979 17 12.5312C17 12.8646 17.125 13.1562 17.375 13.4062L19.2188 15.25ZM6.5 26.5C5.8125 26.5 5.22375 26.2554 4.73375 25.7663C4.24458 25.2763 4 24.6875 4 24V6.5C4 5.8125 4.24458 5.22375 4.73375 4.73375C5.22375 4.24458 5.8125 4 6.5 4H24C24.6875 4 25.2763 4.24458 25.7663 4.73375C26.2554 5.22375 26.5 5.8125 26.5 6.5V24C26.5 24.6875 26.2554 25.2763 25.7663 25.7663C25.2763 26.2554 24.6875 26.5 24 26.5H6.5ZM6.5 24H24V6.5H6.5V24Z" fill="white"/>
</svg>
