<svg width="20" height="20" viewBox="0 0 20 20" fill="none" xmlns="http://www.w3.org/2000/svg">
<path d="M19.7583 4.40834L15.5917 0.24168C15.5138 0.164446 15.4214 0.103342 15.3199 0.0618712C15.2184 0.0204007 15.1097 -0.000620149 15 1.39286e-05H1.66667C1.22464 1.39286e-05 0.800715 0.175608 0.488155 0.488169C0.175595 0.800729 0 1.22465 0 1.66668V18.3333C0 18.7754 0.175595 19.1993 0.488155 19.5118C0.800715 19.8244 1.22464 20 1.66667 20H18.3333C18.7753 20 19.1993 19.8244 19.5118 19.5118C19.8244 19.1993 20 18.7754 20 18.3333V5.00001C20.0006 4.89034 19.9796 4.78162 19.9381 4.68009C19.8967 4.57856 19.8356 4.48621 19.7583 4.40834ZM6.66666 1.66668H13.3333V5.00001H6.66666V1.66668ZM13.3333 18.3333H6.66666V11.6667H13.3333V18.3333ZM15 18.3333V11.6667C15 11.2246 14.8244 10.8007 14.5118 10.4882C14.1993 10.1756 13.7754 10 13.3333 10H6.66666C6.22463 10 5.80071 10.1756 5.48815 10.4882C5.17559 10.8007 5 11.2246 5 11.6667V18.3333H1.66667V1.66668H5V5.00001C5 5.44204 5.17559 5.86596 5.48815 6.17852C5.80071 6.49108 6.22463 6.66668 6.66666 6.66668H13.3333C13.7754 6.66668 14.1993 6.49108 14.5118 6.17852C14.8244 5.86596 15 5.44204 15 5.00001V2.00835L18.3333 5.34168V18.3333H15Z" fill="white"/>
</svg>
