<svg width="23" height="23" viewBox="0 0 23 23" fill="none" xmlns="http://www.w3.org/2000/svg">
<path d="M9.93178 2.875C8.53608 2.875 7.17173 3.28887 6.01125 4.06428C4.85076 4.83969 3.94628 5.94181 3.41217 7.23127C2.87806 8.52072 2.73831 9.93961 3.0106 11.3085C3.28288 12.6774 3.95498 13.9348 4.94189 14.9217C5.92879 15.9086 7.18619 16.5807 8.55507 16.853C9.92395 17.1252 11.3428 16.9855 12.6323 16.4514C13.9218 15.9173 15.0239 15.0128 15.7993 13.8523C16.5747 12.6918 16.9886 11.3275 16.9886 9.93178C16.9884 8.06024 16.2449 6.26539 14.9215 4.94201C13.5982 3.61864 11.8033 2.87512 9.93178 2.875Z" stroke="#999999" stroke-width="2" stroke-miterlimit="10"/>
<path d="M15.1973 15.1973L20.1256 20.1256" stroke="#999999" stroke-width="2" stroke-miterlimit="10" stroke-linecap="round"/>
</svg>
