<svg width="32" height="32" viewBox="0 0 32 32" fill="none" xmlns="http://www.w3.org/2000/svg">
<path d="M27.709 4.28977C27.5741 4.15544 27.4036 4.06244 27.2176 4.0217C27.0316 3.98095 26.8378 3.99416 26.659 4.05977L4.65902 12.0598C4.46929 12.1317 4.30594 12.2597 4.19068 12.4267C4.07541 12.5937 4.01367 12.7918 4.01367 12.9948C4.01367 13.1977 4.07541 13.3958 4.19068 13.5628C4.30594 13.7298 4.46929 13.8578 4.65902 13.9298L14.259 17.7698L18.099 27.3698C18.1712 27.5512 18.2948 27.7075 18.4548 27.8194C18.6147 27.9314 18.8039 27.9941 18.999 27.9998C19.2011 27.9956 19.3972 27.9303 19.5614 27.8125C19.7257 27.6947 19.8503 27.5299 19.919 27.3398L27.919 5.33977C27.9872 5.16285 28.0036 4.9702 27.9664 4.78429C27.9292 4.59839 27.84 4.42688 27.709 4.28977ZM18.999 24.1998L16.209 17.1998L20.999 12.4098L19.589 10.9998L14.759 15.8298L7.79902 12.9998L25.329 6.66977L18.999 24.1998Z" fill="white"/>
</svg>
