<svg width="23" height="23" viewBox="0 0 23 23" fill="none" xmlns="http://www.w3.org/2000/svg">
<path d="M21.7445 8.99248C21.5801 9.16352 21.3569 9.26066 21.1234 9.26277C20.89 9.26489 20.6652 9.1718 20.4979 9.00376L17.6219 6.02445V14.6803C17.6219 14.9197 17.5297 15.1493 17.3656 15.3186C17.2016 15.488 16.979 15.5831 16.747 15.5831C16.515 15.5831 16.2925 15.488 16.1284 15.3186C15.9644 15.1493 15.8722 14.9197 15.8722 14.6803V6.02445L12.9962 9.00376C12.829 9.17062 12.6055 9.2639 12.3728 9.2639C12.1402 9.2639 11.9167 9.17062 11.7495 9.00376C11.5853 8.83259 11.4931 8.60142 11.4931 8.3605C11.4931 8.11959 11.5853 7.88841 11.7495 7.71724L16.1237 3.20313H16.1346C16.1565 3.18056 16.1784 3.16928 16.1893 3.14671L16.2221 3.12414L16.2659 3.09028L16.2987 3.06771L16.3315 3.04514H16.3752L16.408 3.02257H16.4518L16.4955 3H16.9985L17.0423 3.02257H17.086L17.1188 3.04514H17.1626L17.1954 3.06771L17.2282 3.09028L17.2719 3.12414L17.3047 3.14671C17.3266 3.16928 17.3485 3.18056 17.3594 3.20313H17.3703L21.7445 7.71724C21.9081 7.88649 22 8.11579 22 8.35486C22 8.59392 21.9081 8.82323 21.7445 8.99248ZM1.87483 13.7774H9.74835C9.98037 13.7774 10.2029 13.6823 10.3669 13.513C10.531 13.3437 10.6232 13.1141 10.6232 12.8746C10.6232 12.6352 10.531 12.4055 10.3669 12.2362C10.2029 12.0669 9.98037 11.9718 9.74835 11.9718H1.87483C1.64281 11.9718 1.4203 12.0669 1.25623 12.2362C1.09217 12.4055 1 12.6352 1 12.8746C1 13.1141 1.09217 13.3437 1.25623 13.513C1.4203 13.6823 1.64281 13.7774 1.87483 13.7774ZM1.87483 6.55486H7.99868C8.2307 6.55486 8.45321 6.45974 8.61728 6.29043C8.78134 6.12112 8.87351 5.89148 8.87351 5.65204C8.87351 5.41259 8.78134 5.18296 8.61728 5.01365C8.45321 4.84433 8.2307 4.74922 7.99868 4.74922H1.87483C1.64281 4.74922 1.4203 4.84433 1.25623 5.01365C1.09217 5.18296 1 5.41259 1 5.65204C1 5.89148 1.09217 6.12112 1.25623 6.29043C1.4203 6.45974 1.64281 6.55486 1.87483 6.55486ZM16.747 19.1944H1.87483C1.64281 19.1944 1.4203 19.2895 1.25623 19.4588C1.09217 19.6281 1 19.8577 1 20.0972C1 20.3366 1.09217 20.5663 1.25623 20.7356C1.4203 20.9049 1.64281 21 1.87483 21H16.747C16.979 21 17.2016 20.9049 17.3656 20.7356C17.5297 20.5663 17.6219 20.3366 17.6219 20.0972C17.6219 19.8577 17.5297 19.6281 17.3656 19.4588C17.2016 19.2895 16.979 19.1944 16.747 19.1944Z" fill="#306BFF"/>
</svg>
