<svg width="153" height="20" viewBox="0 0 153 20" fill="none" xmlns="http://www.w3.org/2000/svg">
<path d="M1.568 16V4.8H6.128C6.736 4.8 7.28533 4.95467 7.776 5.264C8.27733 5.56267 8.67733 5.97333 8.976 6.496C9.27467 7.01867 9.424 7.6 9.424 8.24C9.424 8.88 9.27467 9.46133 8.976 9.984C8.67733 10.5067 8.27733 10.928 7.776 11.248C7.28533 11.5573 6.736 11.712 6.128 11.712H3.296V16H1.568ZM3.296 10.048H6.096C6.384 10.048 6.64533 9.968 6.88 9.808C7.11467 9.63733 7.30133 9.41867 7.44 9.152C7.58933 8.87467 7.664 8.57067 7.664 8.24C7.664 7.90933 7.58933 7.61067 7.44 7.344C7.30133 7.07733 7.11467 6.864 6.88 6.704C6.64533 6.544 6.384 6.464 6.096 6.464H3.296V10.048ZM14.9124 16.16C14.091 16.16 13.355 15.9733 12.7044 15.6C12.0644 15.216 11.5577 14.6987 11.1844 14.048C10.811 13.3867 10.6244 12.6347 10.6244 11.792C10.6244 10.9493 10.811 10.2027 11.1844 9.552C11.5577 8.89067 12.0644 8.37333 12.7044 8C13.355 7.616 14.091 7.424 14.9124 7.424C15.723 7.424 16.4484 7.616 17.0884 8C17.739 8.37333 18.251 8.89067 18.6244 9.552C18.9977 10.2027 19.1844 10.9493 19.1844 11.792C19.1844 12.6347 18.9977 13.3867 18.6244 14.048C18.251 14.6987 17.739 15.216 17.0884 15.6C16.4484 15.9733 15.723 16.16 14.9124 16.16ZM14.9124 14.656C15.4137 14.656 15.8617 14.5333 16.2564 14.288C16.651 14.032 16.9604 13.6907 17.1844 13.264C17.4084 12.8267 17.515 12.336 17.5044 11.792C17.515 11.2373 17.4084 10.7467 17.1844 10.32C16.9604 9.88267 16.651 9.54133 16.2564 9.296C15.8617 9.05067 15.4137 8.928 14.9124 8.928C14.411 8.928 13.9577 9.056 13.5524 9.312C13.1577 9.55733 12.8484 9.89867 12.6244 10.336C12.4004 10.7627 12.2937 11.248 12.3044 11.792C12.2937 12.336 12.4004 12.8267 12.6244 13.264C12.8484 13.6907 13.1577 14.032 13.5524 14.288C13.9577 14.5333 14.411 14.656 14.9124 14.656ZM22.7316 16L19.8676 7.6L21.5316 7.584L23.5796 13.872L23.2116 13.84L25.4356 8.928H26.4276L28.6676 13.856L28.2356 13.888L30.2996 7.6H31.9636L29.1316 16H27.9956L25.6596 10.656L26.0276 10.704L23.8516 16H22.7316ZM37.1501 16.16C36.2861 16.16 35.5181 15.9787 34.8461 15.616C34.1848 15.2427 33.6621 14.736 33.2781 14.096C32.9048 13.456 32.7181 12.72 32.7181 11.888C32.7181 11.2267 32.8248 10.624 33.0381 10.08C33.2515 9.536 33.5448 9.06667 33.9181 8.672C34.3021 8.26667 34.7555 7.95733 35.2781 7.744C35.8115 7.52 36.3875 7.408 37.0061 7.408C37.5501 7.408 38.0568 7.51467 38.5261 7.728C38.9955 7.93067 39.4008 8.21333 39.7421 8.576C40.0941 8.93867 40.3608 9.37067 40.5421 9.872C40.7341 10.3627 40.8248 10.9013 40.8141 11.488L40.7981 12.192H33.9341L33.5661 10.88H39.3741L39.1341 11.152V10.768C39.1021 10.416 38.9848 10.1013 38.7821 9.824C38.5795 9.54667 38.3235 9.328 38.0141 9.168C37.7048 9.008 37.3688 8.928 37.0061 8.928C36.4301 8.928 35.9448 9.04 35.5501 9.264C35.1555 9.47733 34.8568 9.79733 34.6541 10.224C34.4515 10.64 34.3501 11.1573 34.3501 11.776C34.3501 12.3627 34.4728 12.8747 34.7181 13.312C34.9635 13.7387 35.3101 14.0693 35.7581 14.304C36.2061 14.5387 36.7235 14.656 37.3101 14.656C37.7261 14.656 38.1101 14.5867 38.4621 14.448C38.8248 14.3093 39.2141 14.0587 39.6301 13.696L40.4621 14.864C40.2061 15.12 39.8915 15.344 39.5181 15.536C39.1555 15.728 38.7661 15.8827 38.3501 16C37.9448 16.1067 37.5448 16.16 37.1501 16.16ZM42.6051 16V7.6H44.2691V10.24L44.1091 9.6C44.2265 9.19467 44.4238 8.82667 44.7011 8.496C44.9891 8.16533 45.3145 7.904 45.6771 7.712C46.0505 7.52 46.4345 7.424 46.8291 7.424C47.0105 7.424 47.1811 7.44 47.3411 7.472C47.5118 7.504 47.6451 7.54133 47.7411 7.584L47.3091 9.376C47.1811 9.32267 47.0371 9.28 46.8771 9.248C46.7278 9.20533 46.5785 9.184 46.4291 9.184C46.1411 9.184 45.8638 9.24267 45.5971 9.36C45.3411 9.46667 45.1118 9.62133 44.9091 9.824C44.7171 10.016 44.5625 10.2453 44.4451 10.512C44.3278 10.768 44.2691 11.0507 44.2691 11.36V16H42.6051ZM52.6189 16.16C51.7549 16.16 50.9869 15.9787 50.3149 15.616C49.6535 15.2427 49.1309 14.736 48.7469 14.096C48.3735 13.456 48.1869 12.72 48.1869 11.888C48.1869 11.2267 48.2935 10.624 48.5069 10.08C48.7202 9.536 49.0135 9.06667 49.3869 8.672C49.7709 8.26667 50.2242 7.95733 50.7469 7.744C51.2802 7.52 51.8562 7.408 52.4749 7.408C53.0189 7.408 53.5255 7.51467 53.9949 7.728C54.4642 7.93067 54.8695 8.21333 55.2109 8.576C55.5629 8.93867 55.8295 9.37067 56.0109 9.872C56.2029 10.3627 56.2935 10.9013 56.2829 11.488L56.2669 12.192H49.4029L49.0349 10.88H54.8429L54.6029 11.152V10.768C54.5709 10.416 54.4535 10.1013 54.2509 9.824C54.0482 9.54667 53.7922 9.328 53.4829 9.168C53.1735 9.008 52.8375 8.928 52.4749 8.928C51.8989 8.928 51.4135 9.04 51.0189 9.264C50.6242 9.47733 50.3255 9.79733 50.1229 10.224C49.9202 10.64 49.8189 11.1573 49.8189 11.776C49.8189 12.3627 49.9415 12.8747 50.1869 13.312C50.4322 13.7387 50.7789 14.0693 51.2269 14.304C51.6749 14.5387 52.1922 14.656 52.7789 14.656C53.1949 14.656 53.5789 14.5867 53.9309 14.448C54.2935 14.3093 54.6829 14.0587 55.0989 13.696L55.9309 14.864C55.6749 15.12 55.3602 15.344 54.9869 15.536C54.6242 15.728 54.2349 15.8827 53.8189 16C53.4135 16.1067 53.0135 16.16 52.6189 16.16ZM61.5779 16.16C60.8099 16.16 60.1219 15.9733 59.5139 15.6C58.9165 15.216 58.4419 14.6987 58.0899 14.048C57.7379 13.3867 57.5619 12.6347 57.5619 11.792C57.5619 10.9493 57.7325 10.2027 58.0739 9.552C58.4259 8.89067 58.9005 8.37333 59.4979 8C60.0952 7.616 60.7725 7.424 61.5299 7.424C61.9459 7.424 62.3459 7.49333 62.7299 7.632C63.1245 7.76 63.4765 7.94133 63.7859 8.176C64.0952 8.4 64.3352 8.65067 64.5059 8.928C64.6872 9.19467 64.7779 9.46667 64.7779 9.744L64.2979 9.776V4.16H65.9459V16H64.2979V14H64.6179C64.6179 14.256 64.5325 14.512 64.3619 14.768C64.1912 15.0133 63.9619 15.2427 63.6739 15.456C63.3965 15.6693 63.0712 15.84 62.6979 15.968C62.3352 16.096 61.9619 16.16 61.5779 16.16ZM61.8019 14.736C62.3032 14.736 62.7459 14.608 63.1299 14.352C63.5139 14.096 63.8125 13.7493 64.0259 13.312C64.2499 12.864 64.3619 12.3573 64.3619 11.792C64.3619 11.2267 64.2499 10.7253 64.0259 10.288C63.8125 9.84 63.5139 9.488 63.1299 9.232C62.7459 8.976 62.3032 8.848 61.8019 8.848C61.3005 8.848 60.8579 8.976 60.4739 9.232C60.0899 9.488 59.7859 9.84 59.5619 10.288C59.3485 10.7253 59.2419 11.2267 59.2419 11.792C59.2419 12.3573 59.3485 12.864 59.5619 13.312C59.7859 13.7493 60.0899 14.096 60.4739 14.352C60.8579 14.608 61.3005 14.736 61.8019 14.736ZM73.1149 16V4.8H77.7869C78.5015 4.8 79.1042 4.90667 79.5949 5.12C80.0855 5.33333 80.4535 5.65333 80.6989 6.08C80.9549 6.496 81.0829 7.008 81.0829 7.616C81.0829 8.224 80.9122 8.74133 80.5709 9.168C80.2402 9.59467 79.7762 9.888 79.1789 10.048V9.728C79.6802 9.83467 80.1175 10.0267 80.4909 10.304C80.8642 10.5707 81.1522 10.9067 81.3549 11.312C81.5682 11.7173 81.6749 12.1813 81.6749 12.704C81.6749 13.2373 81.5895 13.712 81.4189 14.128C81.2589 14.5333 81.0135 14.8747 80.6829 15.152C80.3629 15.4293 79.9735 15.6427 79.5149 15.792C79.0562 15.9307 78.5335 16 77.9469 16H73.1149ZM74.8429 14.336H77.8509C78.2882 14.336 78.6562 14.272 78.9549 14.144C79.2642 14.016 79.4989 13.8293 79.6589 13.584C79.8295 13.328 79.9149 13.024 79.9149 12.672C79.9149 12.3413 79.8242 12.0587 79.6429 11.824C79.4722 11.5893 79.2269 11.4133 78.9069 11.296C78.5869 11.168 78.2082 11.104 77.7709 11.104H74.8429V14.336ZM74.8429 9.44H77.6909C78.0109 9.44 78.2935 9.376 78.5389 9.248C78.7949 9.12 78.9922 8.944 79.1309 8.72C79.2802 8.496 79.3549 8.24 79.3549 7.952C79.3549 7.472 79.1949 7.104 78.8749 6.848C78.5549 6.592 78.0962 6.464 77.4989 6.464H74.8429V9.44ZM84.9975 19.68L86.6935 15.76L86.7095 17.072L82.5175 7.6H84.4375L87.0615 13.776C87.1148 13.8827 87.1788 14.048 87.2535 14.272C87.3282 14.4853 87.3922 14.6987 87.4455 14.912L87.0295 15.008C87.1148 14.784 87.1948 14.56 87.2695 14.336C87.3548 14.112 87.4348 13.888 87.5095 13.664L89.7015 7.6H91.6535L88.1975 16L86.7735 19.68H84.9975Z" fill="#B8B8B8"/>
<path d="M147.213 13.5195L143.98 6.40039H141.297L145.915 16.0061L145.832 16.2954C145.717 16.6799 145.472 17.0119 145.141 17.2348C144.81 17.4577 144.413 17.5577 144.017 17.5177C143.554 17.5133 143.099 17.3897 142.696 17.1584L142.267 19.2158C142.887 19.4738 143.55 19.6085 144.22 19.6123C146.068 19.6123 147.185 18.9266 148.109 16.9065L153 6.40039H150.409L147.213 13.5195Z" fill="white"/>
<path d="M124.364 3.00879H116.614V16.0947H119.154V11.2849H124.364C127.195 11.2849 129.057 9.84336 129.057 7.14683C129.057 4.45035 127.195 3.00879 124.364 3.00879ZM124.226 8.99431H119.145V5.2621H124.226C125.694 5.2621 126.535 5.93854 126.535 7.12819C126.535 8.31784 125.694 8.99431 124.226 8.99431Z" fill="white"/>
<path d="M139.676 13.6129V9.67074C139.676 7.33817 138.018 6.12988 135.173 6.12988C132.864 6.12988 130.841 7.2169 130.273 8.88699L132.361 9.63347C132.67 8.79839 133.746 8.18257 135.086 8.18257C136.674 8.18257 137.344 8.83567 137.344 9.63347V9.89006L133.566 10.3099C131.391 10.5432 129.959 11.5275 129.959 13.2864C129.959 15.213 131.599 16.2487 133.774 16.2487C135.176 16.2929 136.542 15.7919 137.589 14.8491C137.968 15.7822 138.355 16.4073 140.937 16.0761V14.1261C139.903 14.378 139.676 14.1261 139.676 13.6129ZM137.367 12.3626C137.367 13.6315 135.607 14.3033 134.134 14.3033C133.012 14.3033 132.338 13.9395 132.338 13.2163C132.338 12.4932 132.892 12.232 133.963 12.106L137.376 11.7048L137.367 12.3626Z" fill="white"/>
<path d="M111.81 13.0256C111.828 13.0802 111.828 13.1391 111.81 13.1936C111.8 13.248 111.774 13.2982 111.736 13.3382L109.293 15.9275C109.239 15.9833 109.175 16.0277 109.103 16.058C109.032 16.0896 108.955 16.1056 108.877 16.1047H97.2893C97.2357 16.1052 97.1829 16.0907 97.1369 16.0627C97.0909 16.0311 97.0542 15.9876 97.0307 15.9368C97.0144 15.8852 97.0144 15.8297 97.0307 15.7782C97.0403 15.7245 97.0642 15.6744 97.1 15.6335L99.5478 13.0443C99.6016 12.9884 99.666 12.944 99.7371 12.9137C99.8083 12.8817 99.8855 12.8658 99.9634 12.867H111.533C111.589 12.866 111.643 12.8823 111.69 12.9137C111.742 12.9353 111.784 12.975 111.81 13.0256ZM109.297 8.1085C109.242 8.05409 109.178 8.00986 109.108 7.9779C109.036 7.9485 108.959 7.93275 108.882 7.93124H97.2893C97.235 7.93203 97.182 7.94817 97.1362 7.9779C97.0905 8.00756 97.054 8.04956 97.0307 8.09918C97.0147 8.15082 97.0147 8.20615 97.0307 8.25779C97.0385 8.31207 97.0627 8.3626 97.1 8.40243L99.5478 10.9963C99.6028 11.0507 99.6669 11.095 99.7371 11.1269C99.809 11.1566 99.8858 11.1725 99.9634 11.1736H111.533C111.589 11.1746 111.643 11.1584 111.69 11.1269C111.737 11.0994 111.772 11.0566 111.791 11.0056C111.815 10.956 111.823 10.9001 111.814 10.8458C111.805 10.7915 111.779 10.7414 111.741 10.7024L109.297 8.1085ZM97.1369 6.19572C97.1829 6.22368 97.2357 6.23818 97.2893 6.23772H108.882C108.96 6.23858 109.037 6.22263 109.108 6.19106C109.179 6.16075 109.244 6.11638 109.297 6.06047L111.741 3.47126C111.779 3.43119 111.804 3.381 111.815 3.32664C111.831 3.275 111.831 3.21966 111.815 3.16802C111.795 3.11702 111.76 3.0742 111.713 3.04672C111.667 3.01529 111.612 2.999 111.556 3.00007H99.945C99.8671 2.99882 99.7898 3.01474 99.7187 3.04672C99.6475 3.07704 99.5831 3.12146 99.5293 3.17735L97.0861 5.77585C97.0474 5.8153 97.0216 5.86576 97.0122 5.92049C96.9959 5.97207 96.9959 6.02753 97.0122 6.07911C97.0422 6.12898 97.0854 6.16941 97.1369 6.19572Z" fill="url(#paint0_linear_1763_24)"/>
<defs>
<linearGradient id="paint0_linear_1763_24" x1="98.2515" y1="16.4171" x2="110.258" y2="2.72118" gradientUnits="userSpaceOnUse">
<stop offset="0.08" stop-color="#9945FF"/>
<stop offset="0.3" stop-color="#8752F3"/>
<stop offset="0.5" stop-color="#5497D5"/>
<stop offset="0.6" stop-color="#43B4CA"/>
<stop offset="0.72" stop-color="#28E0B9"/>
<stop offset="0.97" stop-color="#19FB9B"/>
</linearGradient>
</defs>
</svg>
