<svg width="25" height="25" viewBox="0 0 25 25" fill="none" xmlns="http://www.w3.org/2000/svg">
<path d="M13 13V11L19 5L21 7L15 13H13Z" stroke="white" stroke-width="1.5" stroke-linecap="round" stroke-linejoin="round"/>
<path d="M9.8 13H7C6.46957 13 5.96086 13.2107 5.58579 13.5858C5.21071 13.9609 5 14.4696 5 15C5 15.5304 5.21071 16.0391 5.58579 16.4142C5.96086 16.7893 6.46957 17 7 17H19C19.5304 17 20.0391 17.2107 20.4142 17.5858C20.7893 17.9609 21 18.4696 21 19C21 19.5304 20.7893 20.0391 20.4142 20.4142C20.0391 20.7893 19.5304 21 19 21H10.6" stroke="white" stroke-width="1.5" stroke-linecap="round" stroke-linejoin="round"/>
</svg>
