<svg width="25" height="25" viewBox="0 0 25 25" fill="none" xmlns="http://www.w3.org/2000/svg">
<path d="M13 6.77273V9.63636L17 5.81818L13 2V4.86364C10.8783 4.86364 8.84344 5.66818 7.34315 7.10028C5.84285 8.53237 5 10.4747 5 12.5C5 13.9986 5.46 15.3923 6.24 16.5664L7.7 15.1727C7.23846 14.3509 6.99793 13.4325 7 12.5C7 10.981 7.63214 9.52428 8.75736 8.45021C9.88258 7.37613 11.4087 6.77273 13 6.77273ZM19.76 8.43364L18.3 9.82727C18.74 10.6291 19 11.5455 19 12.5C19 14.019 18.3679 15.4757 17.2426 16.5498C16.1174 17.6239 14.5913 18.2273 13 18.2273V15.3636L9 19.1818L13 23V20.1364C15.1217 20.1364 17.1566 19.3318 18.6569 17.8997C20.1571 16.4676 21 14.5253 21 12.5C21 11.0014 20.54 9.60773 19.76 8.43364Z" fill="white"/>
<path d="M14.9583 14.8768C14.8819 14.9589 14.7864 15 14.6717 15C14.5569 15 14.4581 14.9552 14.375 14.8656C14.2917 14.776 14.25 14.6697 14.25 14.5467C14.25 14.4237 14.2917 14.3172 14.375 14.2273L15.9896 12.4916L14.3646 10.7447C14.2882 10.6625 14.2517 10.56 14.255 10.4369C14.2583 10.3139 14.2983 10.2112 14.375 10.1288C14.4514 10.0466 14.5486 10.0056 14.6667 10.0056C14.7847 10.0056 14.8819 10.0466 14.9583 10.1288L16.875 12.1892C16.9583 12.2788 17 12.3833 17 12.5028C17 12.6222 16.9583 12.7268 16.875 12.8163L14.9583 14.8768ZM11.0417 14.8768L9.125 12.8163C9.04167 12.7268 9 12.6222 9 12.5028C9 12.3833 9.04167 12.2788 9.125 12.1892L11.0417 10.1288C11.1181 10.0466 11.2153 10.0038 11.3333 10.0002C11.4514 9.99662 11.5521 10.0395 11.6354 10.1288C11.7188 10.2183 11.7604 10.3248 11.7604 10.4481C11.7604 10.5715 11.7188 10.6778 11.6354 10.7671L10.0104 12.514L11.6354 14.2609C11.7118 14.343 11.7483 14.4458 11.745 14.5691C11.7417 14.6924 11.7017 14.795 11.625 14.8768C11.5486 14.9589 11.4514 15 11.3333 15C11.2153 15 11.1181 14.9589 11.0417 14.8768Z" fill="white"/>
</svg>
