<svg width="28" height="28" viewBox="0 0 28 28" fill="none" xmlns="http://www.w3.org/2000/svg">
<path d="M14 15.166C15.933 15.166 17.5 13.599 17.5 11.666C17.5 9.73302 15.933 8.16602 14 8.16602C12.067 8.16602 10.5 9.73302 10.5 11.666C10.5 13.599 12.067 15.166 14 15.166Z" stroke="#C1C1C1" stroke-width="2" stroke-linecap="round" stroke-linejoin="round"/>
<path d="M19.8332 19.8327C19.8332 17.2543 17.221 15.166 13.9998 15.166C10.7787 15.166 8.1665 17.2543 8.1665 19.8327" stroke="#C1C1C1" stroke-width="2" stroke-linecap="round" stroke-linejoin="round"/>
<path d="M21 3.5H7C5.067 3.5 3.5 5.067 3.5 7V21C3.5 22.933 5.067 24.5 7 24.5H21C22.933 24.5 24.5 22.933 24.5 21V7C24.5 5.067 22.933 3.5 21 3.5Z" stroke="#C1C1C1" stroke-width="2" stroke-linecap="round" stroke-linejoin="round"/>
</svg>
