<svg width="28" height="28" viewBox="0 0 28 28" fill="none" xmlns="http://www.w3.org/2000/svg">
<path fill-rule="evenodd" clip-rule="evenodd" d="M19.8333 8.16602C19.8333 7.23776 19.4646 6.34752 18.8082 5.69114C18.1518 5.03476 17.2616 4.66602 16.3333 4.66602H11.6667C10.7384 4.66602 9.84817 5.03476 9.19179 5.69114C8.53542 6.34752 8.16667 7.23776 8.16667 8.16602H7C6.07174 8.16602 5.1815 8.53476 4.52513 9.19114C3.86875 9.84752 3.5 10.7378 3.5 11.666V20.9994C3.5 21.9276 3.86875 22.8178 4.52513 23.4742C5.1815 24.1306 6.07174 24.4994 7 24.4994H21C21.9283 24.4994 22.8185 24.1306 23.4749 23.4742C24.1313 22.8178 24.5 21.9276 24.5 20.9994V11.666C24.5 10.7378 24.1313 9.84752 23.4749 9.19114C22.8185 8.53476 21.9283 8.16602 21 8.16602H19.8333ZM16.3333 6.99935H11.6667C11.3572 6.99935 11.0605 7.12227 10.8417 7.34106C10.6229 7.55985 10.5 7.8566 10.5 8.16602H17.5C17.5 7.8566 17.3771 7.55985 17.1583 7.34106C16.9395 7.12227 16.6428 6.99935 16.3333 6.99935ZM7 10.4993H21C21.3094 10.4993 21.6062 10.6223 21.825 10.8411C22.0438 11.0599 22.1667 11.3566 22.1667 11.666V20.9994C22.1667 21.3088 22.0438 21.6055 21.825 21.8243C21.6062 22.0431 21.3094 22.166 21 22.166H7C6.69058 22.166 6.39383 22.0431 6.17504 21.8243C5.95625 21.6055 5.83333 21.3088 5.83333 20.9994V11.666C5.83333 11.3566 5.95625 11.0599 6.17504 10.8411C6.39383 10.6223 6.69058 10.4993 7 10.4993Z" fill="#C1C1C1"/>
</svg>
